<?xml version="1.0" encoding="UTF-8"?>
<svg version="1.1" xmlns="http://www.w3.org/2000/svg" width="3000" height="3000">
<path d="M0 0 C1.61833439 -0.00313936 3.23666666 -0.00759042 4.85499433 -0.0132131 C9.26463194 -0.02479159 13.67406995 -0.0179607 18.08370396 -0.00787924 C22.89533543 -0.00022084 27.70693795 -0.01006789 32.51856524 -0.01760924 C40.9393161 -0.02841328 49.3600092 -0.02813474 57.78076267 -0.02046776 C70.30299057 -0.00909755 82.82516995 -0.01493336 95.34739755 -0.02409268 C117.71528442 -0.03987504 140.08314556 -0.03852661 162.45103487 -0.02985594 C182.02633551 -0.02230518 201.60162672 -0.02034108 221.17692852 -0.02392387 C223.12568545 -0.02426761 223.12568545 -0.02426761 225.11381122 -0.02461828 C230.38776446 -0.02555232 235.66171769 -0.02650752 240.93567093 -0.02749758 C255.67744634 -0.03023198 270.41922175 -0.0319603 285.16099739 -0.03285599 C285.83223297 -0.03289692 286.50346856 -0.03293786 287.19504462 -0.03298004 C308.57475112 -0.03420737 329.95445437 -0.03082981 351.33415985 -0.02430725 C352.3738837 -0.02399113 352.3738837 -0.02399113 353.43461208 -0.02366862 C364.68995904 -0.02023403 375.94530593 -0.01657553 387.20065281 -0.0128981 C431.83443606 0.00166939 476.46819231 0.00099478 521.10197544 -0.01358986 C532.35053823 -0.01725363 543.59910102 -0.02088686 554.84766388 -0.02430725 C555.54034022 -0.0245186 556.23301656 -0.02472994 556.94668309 -0.02494769 C578.30378141 -0.03141929 599.66087749 -0.03415849 621.01797676 -0.03285599 C622.02410524 -0.03279486 622.02410524 -0.03279486 623.05055954 -0.03273249 C638.43747002 -0.03175286 653.82438017 -0.02964139 669.21129042 -0.02675307 C674.47586794 -0.02579094 679.74044547 -0.02485242 685.005023 -0.02392387 C686.94938811 -0.02356803 686.94938811 -0.02356803 688.93303333 -0.02320499 C708.49369946 -0.0197949 728.05435512 -0.02377908 747.6150198 -0.03136253 C769.86075726 -0.03994404 792.106465 -0.03778787 814.35219877 -0.0215203 C826.79697902 -0.01271964 839.24169488 -0.01212458 851.68647345 -0.02345882 C860.00543252 -0.03019879 868.3243401 -0.02597614 876.64329157 -0.01294452 C881.37883359 -0.00582751 886.11424792 -0.00332765 890.8497858 -0.01416247 C934.04897123 -0.10578594 934.04897123 -0.10578594 952.65788364 6.44002342 C953.5182523 6.7360244 954.37862095 7.03202538 955.26506138 7.33699608 C981.0691836 16.59977233 1003.67483627 33.7804623 1019.15788364 56.44002342 C1019.53702915 56.98626366 1019.91617466 57.53250389 1020.30680943 58.09529686 C1028.49296965 70.44152423 1033.80718871 84.05795581 1038.53288364 98.00252342 C1039.15011282 99.79681321 1039.76789567 101.5909126 1040.38615513 103.38484764 C1048.24077173 126.27021481 1055.82795509 149.24979511 1063.44255161 172.21590233 C1069.15640728 189.44280182 1074.93495199 206.64503053 1080.81554317 223.8157711 C1085.62373011 237.85670302 1090.38641837 251.91243097 1095.11882114 265.97908592 C1095.45708927 266.98451502 1095.7953574 267.98994411 1096.14387608 269.02584076 C1097.88681471 274.20712344 1099.62898091 279.38866543 1101.37068272 284.570364 C1105.11110205 295.698314 1108.85532967 306.82498311 1112.59928989 317.95174217 C1112.97127947 319.05735308 1113.34326904 320.16296398 1113.72653103 321.30207825 C1120.29099642 340.81209327 1126.87350046 360.31594881 1133.47038364 379.81502342 C1135.37548814 385.44648088 1137.28046969 391.07797991 1139.18522739 396.70955467 C1139.42235825 397.41063473 1139.6594891 398.11171478 1139.90380573 398.83403969 C1146.46007874 418.21906406 1152.99574315 437.6110408 1159.53288364 457.00252342 C1161.99633574 464.30984529 1164.45985927 471.61714307 1166.92350864 478.92439842 C1167.22716154 479.82504461 1167.53081444 480.7256908 1167.84366894 481.6536293 C1174.31765115 500.85520475 1180.79917988 520.05422877 1187.28288364 539.25252342 C1187.81770471 540.83615159 1188.35252527 542.41977992 1188.88734531 544.00340843 C1189.4221048 545.58685368 1189.95686432 547.17029891 1190.49162388 548.75374413 C1191.29390254 551.12932539 1192.09618037 553.50490693 1192.89845562 555.88048935 C1193.4331758 557.46382479 1193.96789845 559.04715939 1194.50262356 560.63049316 C1200.86940322 579.48281728 1207.23259666 598.33635144 1213.59538364 617.19002342 C1214.15985683 618.8626106 1214.7243303 620.53519767 1215.28880405 622.20778465 C1217.54912231 628.90532712 1219.80942208 635.60287584 1222.06968784 642.30043602 C1226.01691423 653.99675231 1229.96429248 665.69301735 1233.91178989 677.38924217 C1234.19011095 678.21389284 1234.46843201 679.03854351 1234.75518703 679.88818359 C1236.16058612 684.05230467 1237.56598783 688.21642487 1238.97139072 692.38054466 C1241.50229894 699.87946962 1244.03318388 707.37840242 1246.5640707 714.87733459 C1247.97034074 719.04406452 1249.37661227 723.21079395 1250.78288364 727.37752342 C1251.34538365 729.04419009 1251.90788365 730.71085675 1252.47038364 732.37752342 C1252.88803989 733.61502342 1252.88803989 733.61502342 1253.31413364 734.87752342 C1295.07975864 858.62752342 1295.07975864 858.62752342 1336.84538364 982.37752342 C1337.12382051 983.20252153 1337.40225739 984.02751965 1337.68913174 984.8775177 C1338.25163815 986.54420342 1338.81414451 988.21088916 1339.37665081 989.87757492 C1340.78280219 994.04395022 1342.18895457 998.21032518 1343.59510899 1002.37669945 C1346.12753764 1009.88017841 1348.65995932 1017.38365972 1351.19234371 1024.88715363 C1352.60012293 1029.05842439 1354.00790799 1033.22969318 1355.41569614 1037.40096092 C1355.6943766 1038.2266898 1355.97305706 1039.05241867 1356.26018238 1039.90316963 C1360.1742129 1051.50038551 1364.08856904 1063.09749143 1368.00313473 1074.69452667 C1370.51312601 1082.13050028 1373.02302565 1089.56650482 1375.53288364 1097.00252342 C1375.80946182 1097.82194546 1376.08604 1098.64136749 1376.37099934 1099.4856205 C1385.79882457 1127.41777799 1395.21967073 1155.35228508 1404.63830662 1183.28754234 C1413.51366354 1209.61128736 1422.39443883 1235.93319471 1431.28288364 1262.25252342 C1431.68025604 1263.42917187 1431.68025604 1263.42917187 1432.08565617 1264.62959099 C1432.88788624 1267.00504224 1433.69012037 1269.38049212 1434.4923563 1271.75594139 C1435.29445328 1274.13097922 1436.0965499 1276.50601718 1436.89864445 1278.88105583 C1437.43328506 1280.46415076 1437.9679276 1282.04724504 1438.50257206 1283.63033867 C1444.86936855 1302.4827144 1451.2325793 1321.33630001 1457.59538364 1340.19002342 C1458.15985683 1341.8626106 1458.7243303 1343.53519767 1459.28880405 1345.20778465 C1461.54912231 1351.90532712 1463.80942208 1358.60287584 1466.06968784 1365.30043602 C1470.01691423 1376.99675231 1473.96429248 1388.69301735 1477.91178989 1400.38924217 C1478.19011095 1401.21389284 1478.46843201 1402.03854351 1478.75518703 1402.88818359 C1480.16058612 1407.05230467 1481.56598783 1411.21642487 1482.97139072 1415.38054466 C1485.50229894 1422.87946962 1488.03318388 1430.37840242 1490.5640707 1437.87733459 C1491.97034074 1442.04406452 1493.37661227 1446.21079395 1494.78288364 1450.37752342 C1495.34538365 1452.04419009 1495.90788365 1453.71085675 1496.47038364 1455.37752342 C1496.74882114 1456.20252342 1497.02725864 1457.02752342 1497.31413364 1457.87752342 C1539.07975864 1581.62752342 1539.07975864 1581.62752342 1769.84538364 2265.37752342 C1770.12382838 2266.20254419 1770.40227312 2267.02756496 1770.68915558 2267.87758636 C1771.25158412 2269.54404266 1771.814011 2271.21049952 1772.37643623 2272.87695694 C1773.78376599 2277.04684681 1775.19112461 2281.21672692 1776.59854221 2285.38658714 C1779.11692868 2292.84808838 1781.63512822 2300.30965236 1784.15221786 2307.77159119 C1785.54067974 2311.88768018 1786.92931496 2316.00371068 1788.31803989 2320.11971092 C1788.59368338 2320.93669331 1788.86932686 2321.75367569 1789.15332317 2322.59541512 C1793.03165383 2334.08932566 1796.91818506 2345.58043834 1800.81019688 2357.06972313 C1803.00155515 2363.53876708 1805.19077089 2370.00853551 1807.37951565 2376.47846413 C1809.15984971 2381.74047391 1810.94301611 2387.00151219 1812.7283783 2392.26181793 C1813.83248006 2395.51718647 1814.93380247 2398.77349043 1816.03439617 2402.03004646 C1816.54049916 2403.52571661 1817.04772392 2405.02100779 1817.55622768 2406.51586342 C1827.70586302 2436.36009558 1832.86017547 2466.33672734 1824.15788364 2497.37752342 C1823.9759647 2498.04735252 1823.79404575 2498.71718163 1823.60661411 2499.40730858 C1817.83631372 2520.09066415 1806.30501206 2537.4967832 1792.15788364 2553.37752342 C1791.56362583 2554.0452578 1790.96936802 2554.71299217 1790.35710239 2555.40096092 C1775.24698618 2571.37344109 1754.09732866 2582.11674952 1733.22038364 2588.12752342 C1732.54185337 2588.32636131 1731.8633231 2588.5251992 1731.1642313 2588.73006248 C1718.44699146 2592.18412763 1705.52395312 2592.67214474 1692.43503284 2592.63199902 C1690.79290961 2592.63439428 1689.15078745 2592.63766292 1687.50866747 2592.64171562 C1683.01902881 2592.65028503 1678.52947442 2592.64653035 1674.03983459 2592.64065989 C1669.14665714 2592.63647256 1664.25349459 2592.64390116 1659.36032081 2592.6498124 C1650.79174517 2592.65856121 1642.22319344 2592.6598912 1633.65461445 2592.65630913 C1620.9125162 2592.65099641 1608.17044104 2592.65710316 1595.4283453 2592.66539206 C1571.34581651 2592.68062755 1547.26329825 2592.68233759 1523.18076566 2592.67986903 C1504.58336194 2592.67803594 1485.98596167 2592.67979631 1467.38855839 2592.68409348 C1464.71610661 2592.68469806 1462.04365483 2592.68529712 1459.37120305 2592.68589708 C1458.0311969 2592.68619877 1456.69119074 2592.68650065 1455.35118459 2592.68680272 C1454.6869559 2592.6869524 1454.02272722 2592.68710208 1453.3383704 2592.6872563 C1451.99479006 2592.68755983 1450.65120972 2592.68786451 1449.30762938 2592.68817034 C1411.1949457 2592.69684082 1373.0822633 2592.70148912 1334.96957874 2592.69722271 C1334.26417231 2592.69714465 1333.55876587 2592.6970666 1332.83198348 2592.69698617 C1324.96636779 2592.69611341 1317.1007521 2592.69518415 1309.23513642 2592.69423554 C1308.52501874 2592.69415003 1307.81490107 2592.69406452 1307.08326468 2592.69397642 C1301.18358875 2592.69326572 1301.18358875 2592.69326572 1298.46797582 2592.69293419 C1253.05015064 2592.68739887 1207.63234578 2592.69494033 1162.21452427 2592.71370506 C1150.77033715 2592.71842748 1139.32615001 2592.72310808 1127.88196278 2592.72754192 C1127.17724845 2592.72781525 1126.47253413 2592.72808857 1125.74646483 2592.72837017 C1104.01833315 2592.73674462 1082.29020317 2592.74142143 1060.56206989 2592.74224949 C1059.87966128 2592.74227586 1059.19725266 2592.74230222 1058.494165 2592.74232939 C1043.51199942 2592.74287023 1028.52983398 2592.74249758 1013.54766844 2592.74128967 C1008.18652053 2592.74086407 1002.82537262 2592.74049894 997.46422471 2592.74016023 C995.46483913 2592.74003235 993.46545355 2592.73989481 991.46606797 2592.73975725 C971.56256619 2592.73859158 951.65907674 2592.74523731 931.75557804 2592.75584412 C909.11817358 2592.7678956 886.48079631 2592.76945563 863.84339145 2592.75705395 C851.17866847 2592.7504261 838.5140105 2592.75205476 825.84929273 2592.76564246 C817.38362276 2592.77389175 808.91800144 2592.77118314 800.45233541 2592.7596672 C795.63294391 2592.75341562 790.81367917 2592.75179749 785.99429503 2592.76353053 C781.59917799 2592.77413183 777.20429415 2592.7706165 772.80918929 2592.756426 C771.2395422 2592.75372536 769.66987592 2592.75590607 768.10024703 2592.76393315 C729.62069285 2592.94708914 696.2197255 2578.67503944 668.72428989 2552.01814842 C667.44672731 2550.73311471 666.17637079 2549.44084781 664.91569614 2548.13924217 C662.42877044 2545.64678997 659.76018618 2543.38652034 657.09147739 2541.09236717 C654.59356809 2538.87704962 652.27763376 2536.50854172 649.93913364 2534.12752342 C648.0739869 2532.29509855 646.13860619 2530.58399207 644.15788364 2528.87752342 C640.92831997 2526.09513011 637.92465711 2523.16732914 634.93913364 2520.12752342 C633.0739869 2518.29509855 631.13860619 2516.58399207 629.15788364 2514.87752342 C625.92831997 2512.09513011 622.92465711 2509.16732914 619.93913364 2506.12752342 C618.0739869 2504.29509855 616.13860619 2502.58399207 614.15788364 2500.87752342 C610.92831997 2498.09513011 607.92465711 2495.16732914 604.93913364 2492.12752342 C603.0739869 2490.29509855 601.13860619 2488.58399207 599.15788364 2486.87752342 C595.92831997 2484.09513011 592.92465711 2481.16732914 589.93913364 2478.12752342 C588.0739869 2476.29509855 586.13860619 2474.58399207 584.15788364 2472.87752342 C580.92831997 2470.09513011 577.92465711 2467.16732914 574.93913364 2464.12752342 C573.0739869 2462.29509855 571.13860619 2460.58399207 569.15788364 2458.87752342 C565.92831997 2456.09513011 562.92465711 2453.16732914 559.93913364 2450.12752342 C558.0739869 2448.29509855 556.13860619 2446.58399207 554.15788364 2444.87752342 C551.55140756 2442.63194403 549.06853844 2440.3320083 546.65788364 2437.87752342 C544.26735198 2435.4436261 541.80742102 2433.16396783 539.22038364 2430.94002342 C535.69153601 2427.90072691 532.42783337 2424.66735495 529.16178989 2421.35017967 C526.57542213 2418.80414513 523.84253084 2416.45730786 521.09147739 2414.09236717 C518.59356809 2411.87704962 516.27763376 2409.50854172 513.93913364 2407.12752342 C512.0739869 2405.29509855 510.13860619 2403.58399207 508.15788364 2401.87752342 C504.92831997 2399.09513011 501.92465711 2396.16732914 498.93913364 2393.12752342 C497.0739869 2391.29509855 495.13860619 2389.58399207 493.15788364 2387.87752342 C489.92831997 2385.09513011 486.92465711 2382.16732914 483.93913364 2379.12752342 C482.0739869 2377.29509855 480.13860619 2375.58399207 478.15788364 2373.87752342 C474.92831997 2371.09513011 471.92465711 2368.16732914 468.93913364 2365.12752342 C467.0739869 2363.29509855 465.13860619 2361.58399207 463.15788364 2359.87752342 C459.92831997 2357.09513011 456.92465711 2354.16732914 453.93913364 2351.12752342 C452.0739869 2349.29509855 450.13860619 2347.58399207 448.15788364 2345.87752342 C444.92831997 2343.09513011 441.92465711 2340.16732914 438.93913364 2337.12752342 C437.0739869 2335.29509855 435.13860619 2333.58399207 433.15788364 2331.87752342 C429.92831997 2329.09513011 426.92465711 2326.16732914 423.93913364 2323.12752342 C422.0739869 2321.29509855 420.13860619 2319.58399207 418.15788364 2317.87752342 C414.92831997 2315.09513011 411.92465711 2312.16732914 408.93913364 2309.12752342 C407.0739869 2307.29509855 405.13860619 2305.58399207 403.15788364 2303.87752342 C399.92831997 2301.09513011 396.92465711 2298.16732914 393.93913364 2295.12752342 C392.0739869 2293.29509855 390.13860619 2291.58399207 388.15788364 2289.87752342 C384.92831997 2287.09513011 381.92465711 2284.16732914 378.93913364 2281.12752342 C377.0739869 2279.29509855 375.13860619 2277.58399207 373.15788364 2275.87752342 C369.92831997 2273.09513011 366.92465711 2270.16732914 363.93913364 2267.12752342 C362.0739869 2265.29509855 360.13860619 2263.58399207 358.15788364 2261.87752342 C354.92831997 2259.09513011 351.92465711 2256.16732914 348.93913364 2253.12752342 C347.0739869 2251.29509855 345.13860619 2249.58399207 343.15788364 2247.87752342 C339.92831997 2245.09513011 336.92465711 2242.16732914 333.93913364 2239.12752342 C332.0739869 2237.29509855 330.13860619 2235.58399207 328.15788364 2233.87752342 C324.92831997 2231.09513011 321.92465711 2228.16732914 318.93913364 2225.12752342 C317.0739869 2223.29509855 315.13860619 2221.58399207 313.15788364 2219.87752342 C309.92831997 2217.09513011 306.92465711 2214.16732914 303.93913364 2211.12752342 C302.0739869 2209.29509855 300.13860619 2207.58399207 298.15788364 2205.87752342 C294.92831997 2203.09513011 291.92465711 2200.16732914 288.93913364 2197.12752342 C287.0739869 2195.29509855 285.13860619 2193.58399207 283.15788364 2191.87752342 C279.92831997 2189.09513011 276.92465711 2186.16732914 273.93913364 2183.12752342 C272.0739869 2181.29509855 270.13860619 2179.58399207 268.15788364 2177.87752342 C264.92831997 2175.09513011 261.92465711 2172.16732914 258.93913364 2169.12752342 C257.0739869 2167.29509855 255.13860619 2165.58399207 253.15788364 2163.87752342 C249.92831997 2161.09513011 246.92465711 2158.16732914 243.93913364 2155.12752342 C242.0739869 2153.29509855 240.13860619 2151.58399207 238.15788364 2149.87752342 C234.92831997 2147.09513011 231.92465711 2144.16732914 228.93913364 2141.12752342 C227.0739869 2139.29509855 225.13860619 2137.58399207 223.15788364 2135.87752342 C219.92831997 2133.09513011 216.92465711 2130.16732914 213.93913364 2127.12752342 C212.0739869 2125.29509855 210.13860619 2123.58399207 208.15788364 2121.87752342 C204.92831997 2119.09513011 201.92465711 2116.16732914 198.93913364 2113.12752342 C197.0739869 2111.29509855 195.13860619 2109.58399207 193.15788364 2107.87752342 C189.92831997 2105.09513011 186.92465711 2102.16732914 183.93913364 2099.12752342 C182.0739869 2097.29509855 180.13860619 2095.58399207 178.15788364 2093.87752342 C174.92831997 2091.09513011 171.92465711 2088.16732914 168.93913364 2085.12752342 C167.0739869 2083.29509855 165.13860619 2081.58399207 163.15788364 2079.87752342 C159.92831997 2077.09513011 156.92465711 2074.16732914 153.93913364 2071.12752342 C152.0739869 2069.29509855 150.13860619 2067.58399207 148.15788364 2065.87752342 C144.92831997 2063.09513011 141.92465711 2060.16732914 138.93913364 2057.12752342 C136.44877386 2054.68085416 133.80213769 2052.43243755 131.15788364 2050.15486717 C128.02000263 2047.36632056 125.08378041 2044.38571104 122.15788364 2041.37752342 C120.06490881 2044.51698567 119.07970789 2047.22016888 117.88078403 2050.79231834 C117.65990368 2051.44635139 117.43902332 2052.10038445 117.21144962 2052.77423668 C116.47193968 2054.9674306 115.738782 2057.16269555 115.00553989 2059.35799217 C114.4780177 2060.92651032 113.95008938 2062.49489193 113.4217844 2064.06314659 C112.28323445 2067.44564659 111.14746782 2070.82906378 110.01384068 2074.21321678 C108.19902418 2079.63078147 106.37815922 2085.04630098 104.55632114 2090.4615078 C102.33532191 2097.06440871 100.11571315 2103.66777369 97.89791775 2110.2717514 C94.04509653 2121.74389773 90.1816489 2133.2124227 86.31022739 2144.67830467 C86.03470098 2145.49433851 85.75917458 2146.31037235 85.47529888 2147.15113449 C84.09043928 2151.25250367 82.70537088 2155.35380229 81.32020664 2159.45506859 C78.79667776 2166.92720106 76.27502751 2174.3999676 73.75320721 2181.87267685 C72.34650694 2186.0409841 70.93968946 2190.20925179 69.53288364 2194.37752342 C68.97038308 2196.0441899 68.40788308 2197.71085657 67.84538364 2199.37752342 C57.72038364 2229.37752342 47.59538364 2259.37752342 37.47038364 2289.37752342 C37.19194457 2290.20252814 36.9135055 2291.02753286 36.62662888 2291.87753773 C36.06414491 2293.54415676 35.50166081 2295.21077574 34.93917656 2296.87739468 C33.53268002 2301.04478977 32.12618596 2305.21218571 30.719697 2309.37958336 C28.19139362 2316.87088595 25.66307318 2324.36218278 23.13465881 2331.85344791 C21.73223179 2336.00860432 20.32981947 2340.16376569 18.92741489 2344.31892967 C18.51066974 2345.55369639 18.51066974 2345.55369639 18.08550549 2346.8134079 C14.9573411 2356.08186607 11.82949648 2365.35043203 8.70231724 2374.61922264 C8.27300136 2375.89167603 8.27300136 2375.89167603 7.83501244 2377.18983555 C6.39012802 2381.47238287 4.94532572 2385.75495789 3.50064182 2390.03757286 C0.66029656 2398.45704714 -2.18161831 2406.87598616 -5.02693081 2415.29378319 C-6.13471539 2418.57165654 -7.24236451 2421.84957565 -8.34992886 2425.12752342 C-8.62133127 2425.9306893 -8.89273369 2426.73385517 -9.17236042 2427.56135941 C-12.66792455 2437.90810649 -16.14450241 2448.26098665 -19.60079861 2458.62091637 C-21.3597512 2463.89281045 -23.12534534 2469.16247247 -24.8926754 2474.43156338 C-26.06176695 2477.9186932 -27.22717745 2481.40694993 -28.38304043 2484.898489 C-41.38439319 2524.15616487 -60.38133507 2558.56799794 -98.61555386 2578.39314842 C-117.58971939 2587.76099056 -137.86481749 2592.54546338 -159.0028038 2592.50895119 C-160.11222699 2592.51100382 -161.22165017 2592.51305645 -162.36469224 2592.51517129 C-166.09068335 2592.52083595 -169.81663744 2592.51938468 -173.5426321 2592.51796532 C-176.23774102 2592.52054926 -178.93284697 2592.52352379 -181.62795466 2592.52696872 C-188.26373864 2592.53453704 -194.89951458 2592.53674119 -201.53530243 2592.53729777 C-209.48490188 2592.53821258 -217.43449392 2592.54488364 -225.38409017 2592.5516446 C-244.59808923 2592.5676958 -263.81208748 2592.57360709 -283.02609203 2592.57839335 C-292.11914242 2592.5807304 -301.21219219 2592.58433319 -310.30524208 2592.58808872 C-341.44313453 2592.60092409 -372.58102663 2592.61164278 -403.71892166 2592.61509132 C-405.67318906 2592.61531296 -407.62745645 2592.61553474 -409.58172385 2592.61575668 C-411.54066567 2592.61597731 -413.4996075 2592.6161978 -415.45854932 2592.61641812 C-419.38840695 2592.61686067 -423.31826458 2592.61730779 -427.24812222 2592.6177578 C-428.70968389 2592.61792188 -428.70968389 2592.61792188 -430.20077207 2592.61808928 C-461.78319763 2592.62171858 -493.36560022 2592.63763391 -524.94801698 2592.66094816 C-558.35308325 2592.68556271 -591.7581364 2592.69926494 -625.163212 2592.70045924 C-628.83272215 2592.70063069 -632.50223229 2592.70084612 -636.17174244 2592.70109367 C-637.52700823 2592.70117733 -637.52700823 2592.70117733 -638.90965312 2592.70126267 C-653.42946511 2592.70241177 -667.94925346 2592.71342183 -682.46905747 2592.72798073 C-697.073683 2592.74237103 -711.67827834 2592.74556845 -726.28290901 2592.73754075 C-734.95061844 2592.73309627 -743.61823019 2592.73689761 -752.28592671 2592.75277926 C-758.08754422 2592.76257323 -763.88909377 2592.76130914 -769.69071075 2592.75134303 C-772.98870234 2592.74598252 -776.28635632 2592.74682658 -779.58435581 2592.75785175 C-820.92029203 2592.887227 -855.35667034 2582.77026392 -885.90461636 2553.62752342 C-909.64938741 2529.05895419 -921.9569729 2496.95731784 -922.09211636 2463.00252342 C-922.11274136 2461.74568748 -922.13336636 2460.48885155 -922.15461636 2459.19392967 C-922.22249718 2442.51221806 -918.31850076 2427.58574868 -913.02961636 2411.87752342 C-912.41360414 2410.01921989 -911.79840178 2408.16064775 -911.18391323 2406.30183983 C-909.08995954 2399.98698146 -906.96753466 2393.68184886 -904.84211636 2387.37752342 C-904.46250759 2386.25003685 -904.08289883 2385.12255028 -903.69178677 2383.96089745 C-899.10716704 2370.34536013 -894.4994958 2356.73771486 -889.88103962 2343.13362694 C-882.90765278 2322.59269038 -875.97803909 2302.03708463 -869.05299664 2281.4798069 C-866.15909115 2272.88951842 -863.26423981 2264.29954859 -860.36946011 2255.70955467 C-860.0518239 2254.76696989 -859.7341877 2253.82438511 -859.40692616 2252.85323715 C-852.83043772 2233.33792685 -846.24426331 2213.8258939 -839.65461636 2194.31502342 C-839.12176846 2192.73731577 -838.58892137 2191.15960784 -838.0560751 2189.58189964 C-836.9910006 2186.42832867 -835.92592171 2183.27475918 -834.86083889 2180.12119102 C-834.59730303 2179.34089594 -834.33376717 2178.56060085 -834.06224537 2177.75666046 C-833.53045173 2176.18209817 -832.99865369 2174.60753737 -832.46685123 2173.03297806 C-826.3926723 2155.04849108 -820.32219613 2137.06275488 -814.25229931 2119.07682228 C-813.40517952 2116.56669216 -812.55805156 2114.0565648 -811.71092129 2111.54643822 C-809.45070101 2104.84918521 -807.19049541 2098.15192725 -804.93032742 2091.4546566 C-800.98309623 2079.75832495 -797.03571267 2068.06204474 -793.08821011 2056.36580467 C-792.80988905 2055.541154 -792.53156799 2054.71650333 -792.24481297 2053.86686325 C-790.83941388 2049.70274217 -789.43401217 2045.53862198 -788.02860928 2041.37450218 C-785.49770106 2033.87557723 -782.96681612 2026.37664442 -780.4359293 2018.87771225 C-779.02965926 2014.71098232 -777.62338773 2010.5442529 -776.21711636 2006.37752342 C-775.65461635 2004.71085676 -775.09211635 2003.04419009 -774.52961636 2001.37752342 C-746.68586636 1918.87752342 -718.84211636 1836.37752342 -581.31086826 1428.87752914 C-580.74836185 1427.21084342 -580.18585549 1425.54415768 -579.62334919 1423.87747192 C-578.21719781 1419.71109663 -576.81104543 1415.54472167 -575.40489101 1411.3783474 C-572.87246236 1403.87486844 -570.34004068 1396.37138712 -567.80765629 1388.86789322 C-566.39987707 1384.69662246 -564.99209201 1380.52535367 -563.58430386 1376.35408592 C-563.3056234 1375.52835705 -563.02694294 1374.70262817 -562.73981762 1373.85187721 C-558.8257871 1362.25466134 -554.91143096 1350.65755541 -550.99686527 1339.06052017 C-548.48687399 1331.62454656 -545.97697435 1324.18854202 -543.46711636 1316.75252342 C-543.05224909 1315.52339037 -543.05224909 1315.52339037 -542.62900066 1314.26942635 C-533.5074483 1287.24467452 -524.39227791 1260.21777434 -515.27961636 1233.19002342 C-504.76315902 1201.99867634 -494.23777005 1170.81035743 -483.70562649 1139.62430382 C-483.17086882 1138.04086645 -482.63611184 1136.45742885 -482.10135555 1134.87399101 C-481.56671494 1133.29089608 -481.0320724 1131.70780181 -480.49742794 1130.12470818 C-474.13063145 1111.27233245 -467.7674207 1092.41874683 -461.40461636 1073.56502342 C-460.84014317 1071.89243625 -460.2756697 1070.21984917 -459.71119595 1068.54726219 C-457.45087769 1061.84971972 -455.19057792 1055.15217101 -452.93031216 1048.45461082 C-448.98308577 1036.75829453 -445.03570752 1025.0620295 -441.08821011 1013.36580467 C-440.80988905 1012.541154 -440.53156799 1011.71650333 -440.24481297 1010.86686325 C-438.83941388 1006.70274217 -437.43401217 1002.53862198 -436.02860928 998.37450218 C-433.49770106 990.87557723 -430.96681612 983.37664442 -428.4359293 975.87771225 C-427.02965926 971.71098232 -425.62338773 967.5442529 -424.21711636 963.37752342 C-423.65461635 961.71085676 -423.09211635 960.04419009 -422.52961636 958.37752342 C-394.68586636 875.87752342 -366.84211636 793.37752342 -203.15461636 308.37752342 C-202.8761776 307.55251965 -202.59773884 306.72751587 -202.31086254 305.87751198 C-201.74837537 304.21088342 -201.18588809 302.5442549 -200.62340069 300.87762642 C-199.21695346 296.71037701 -197.81050821 292.54312693 -196.40406704 288.37587547 C-193.87517434 280.8828334 -191.34626795 273.38979595 -188.81728649 265.89678383 C-187.41409488 261.73932537 -186.01091502 257.58186294 -184.60774136 253.42439842 C-184.32978977 252.60085617 -184.05183819 251.77731392 -183.76546383 250.92881584 C-180.64418243 241.68071594 -177.52315357 232.4325309 -174.40266323 223.18416405 C-174.11802086 222.34056076 -173.83337849 221.49695747 -173.54011059 220.62779045 C-172.10273098 216.36775395 -170.66540884 212.10769807 -169.22816372 207.8476162 C-166.39694004 199.45601593 -163.56458947 191.06479878 -160.72981167 182.67439842 C-159.62133656 179.39317432 -158.51295037 176.11192019 -157.40461636 172.83064842 C-157.13239002 172.02476784 -156.86016369 171.21888725 -156.57968807 170.38858604 C-153.0061745 159.80823445 -149.44633357 149.22339576 -145.89955044 138.63405418 C-144.05229864 133.11928396 -142.20027346 127.60612058 -140.34698009 122.09337807 C-139.11179028 118.4181205 -137.87920076 114.74203924 -136.65327358 111.06368065 C-124.18197199 73.65463997 -124.18197199 73.65463997 -116.15461636 61.25252342 C-115.74235806 60.60420555 -115.33009975 59.95588768 -114.90534878 59.28792381 C-110.20354573 52.09842204 -104.64656793 45.68909614 -98.84211636 39.37752342 C-98.22852261 38.69303123 -97.61492886 38.00853905 -96.98274136 37.30330467 C-72.29706219 11.09004635 -35.10017203 -0.17558301 0 0 Z M453.15788364 1057.37752342 C452.80709751 1058.43511864 452.45631138 1059.49271385 452.09489536 1060.58235741 C445.06914377 1081.75447566 437.98302696 1102.90400366 430.75627232 1124.0083828 C430.16354243 1125.73948964 429.57085108 1127.47060967 428.97819614 1129.20174217 C428.67752735 1130.0799865 428.37685856 1130.95823082 428.06707859 1131.86308861 C423.96989984 1143.83914884 419.90956362 1155.82773482 415.84538364 1167.81502342 C414.21396633 1172.62625292 412.58244673 1177.43744771 410.95085239 1182.24861717 C410.34624935 1184.03148125 410.34624935 1184.03148125 409.72943211 1185.85036278 C405.02052203 1199.73406589 400.29967498 1213.61370703 395.5770731 1227.4927578 C391.84225023 1238.47079266 388.11576081 1249.45159058 384.40007114 1260.43611717 C377.34005792 1281.30042801 370.27089244 1302.15847306 362.97038364 1322.94002342 C353.63183473 1349.53179443 344.68624809 1376.25805408 335.68280125 1402.96460533 C331.22879787 1416.17511848 326.7552806 1429.37895256 322.27772617 1442.58150291 C313.31109527 1469.02395259 304.38649814 1495.48050321 295.47038364 1521.94002342 C294.82969061 1523.84127978 294.18899441 1525.74253507 293.54829502 1527.64378929 C292.26699548 1531.44600868 290.98569993 1535.24822942 289.70440769 1539.05045128 C289.06390011 1540.95114214 288.4233921 1542.85183286 287.78288364 1544.75252342 C287.46570818 1545.69373732 287.14853271 1546.63495121 286.82174587 1547.60468674 C280.42697724 1566.58088687 274.03022714 1585.55641681 267.62721348 1604.52983665 C266.54558441 1607.73503375 265.46438528 1610.9403753 264.38362217 1614.14586449 C263.12191897 1617.88793045 261.85944528 1621.62973546 260.59624386 1625.37129593 C260.11276282 1626.80349062 259.62946422 1628.23574692 259.14635754 1629.66806793 C256.45641732 1637.64101904 253.74020324 1645.60401292 250.97966099 1653.55281639 C250.72100474 1654.2990536 250.4623485 1655.04529081 250.19585419 1655.81414127 C248.95872231 1659.38327764 247.71742494 1662.95083354 246.46740818 1666.51547813 C246.02769071 1667.78119196 245.58816069 1669.04697093 245.14885044 1670.31282616 C244.57036602 1671.96664551 244.57036602 1671.96664551 243.98019505 1673.65387535 C243.01336878 1676.38200423 243.01336878 1676.38200423 243.15788364 1679.37752342 C381.75788364 1679.37752342 520.35788364 1679.37752342 663.15788364 1679.37752342 C661.8372785 1673.43480029 660.46971988 1667.9287471 658.47575474 1662.23933983 C658.21277718 1661.47550358 657.94979961 1660.71166733 657.67885303 1659.92468452 C657.10866277 1658.26990329 656.5363223 1656.61586169 655.9620409 1654.9624958 C654.37203984 1650.38340339 652.79921293 1645.7983977 651.22331333 1641.21443748 C650.8908164 1640.2487528 650.55831947 1639.28306812 650.21574688 1638.28812027 C646.4930321 1627.46748706 642.84285509 1616.6226638 639.19694614 1605.77596092 C638.51281319 1603.74203885 637.8286444 1601.70812883 637.14444065 1599.67423058 C635.74420755 1595.51119841 634.34446484 1591.34800177 632.94508457 1587.18468285 C629.20466524 1576.05673285 625.46043762 1564.93006373 621.71647739 1553.80330467 C621.34448782 1552.69769377 620.97249825 1551.59208286 620.58923626 1550.4529686 C614.02477086 1530.94295357 607.44226683 1511.43909804 600.84538364 1491.94002342 C598.94027914 1486.30856597 597.0352976 1480.67706693 595.13053989 1475.04549217 C594.89340904 1474.34441212 594.65627819 1473.64333206 594.41196156 1472.92100716 C587.85568855 1453.53598279 581.32002414 1434.14400605 574.78288364 1414.75252342 C572.31943155 1407.44520156 569.85590802 1400.13790378 567.39225864 1392.83064842 C567.08860575 1391.93000223 566.78495285 1391.02935604 566.47209835 1390.10141754 C559.99811614 1370.89984209 553.51658741 1351.70081808 547.03288364 1332.50252342 C546.49806258 1330.91889526 545.96324202 1329.33526692 545.42842197 1327.75163841 C544.89366249 1326.16819317 544.35890297 1324.58474794 543.82414341 1323.00130272 C543.02186475 1320.62572146 542.21958692 1318.25013991 541.41731167 1315.8745575 C540.88259148 1314.29122206 540.34786884 1312.70788745 539.81314373 1311.12455368 C533.72888531 1293.1087878 527.64787295 1275.0919267 521.5674181 1257.07487679 C520.72094167 1254.56667692 519.87445706 1252.05847981 519.02797031 1249.55028343 C514.78819429 1236.98752593 510.54855365 1224.42472274 506.3089304 1211.86191368 C502.07115692 1199.30459147 497.83332536 1186.74728886 493.59538364 1174.19002342 C493.32013355 1173.37443836 493.04488346 1172.5588533 492.76129246 1171.71855354 C479.89785771 1133.6034019 467.02851146 1095.49024665 454.15788364 1057.37752342 C453.82788364 1057.37752342 453.49788364 1057.37752342 453.15788364 1057.37752342 Z " fill="#0B59A2" transform="translate(1046.842116355896,203.6224765777588)"/>
<path d="M0 0 C86.58375116 -0.05142311 173.16750417 -0.09912093 259.75126648 -0.12702942 C261.0329143 -0.12744359 262.31456211 -0.12785776 263.63504774 -0.12828448 C290.81091316 -0.13704471 317.98677872 -0.14520325 345.16264453 -0.15263903 C358.81466197 -0.15637512 372.46667939 -0.16023004 386.11869677 -0.16419732 C388.17800901 -0.16479507 390.23732124 -0.16538943 392.29663348 -0.16598364 C423.99455186 -0.17515995 455.69246677 -0.18687951 487.39038086 -0.20599365 C488.07153996 -0.20640435 488.75269906 -0.20681505 489.45449935 -0.20723819 C500.43629515 -0.21387502 511.41809082 -0.22072596 522.39988647 -0.22760532 C568.35732452 -0.25638985 614.31475473 -0.27556633 660.27220264 -0.28174497 C666.6679765 -0.28260942 673.06375033 -0.28358633 679.45952415 -0.28463173 C680.71829321 -0.284834 681.97706226 -0.28503627 683.27397582 -0.28524467 C703.52943698 -0.28878859 723.78487837 -0.30269948 744.04033146 -0.3204961 C764.40827625 -0.33817 784.77620145 -0.34490088 805.14415363 -0.34050413 C817.24224945 -0.33822397 829.34027354 -0.34429169 841.4383564 -0.36239263 C849.5268541 -0.37366662 857.61530499 -0.37397387 865.70380597 -0.36549544 C870.30804534 -0.36097929 874.91214934 -0.36110629 879.51637403 -0.37464955 C921.86641973 -0.49198644 921.86641973 -0.49198644 940.5 6.0625 C941.36036865 6.35850098 942.2207373 6.65450195 943.10717773 6.95947266 C968.91129996 16.22224891 991.51695263 33.40293888 1007 56.0625 C1007.56871826 56.88186035 1007.56871826 56.88186035 1008.14892578 57.71777344 C1016.335086 70.06400081 1021.64930507 83.68043239 1026.375 97.625 C1026.99222918 99.41928978 1027.61001203 101.21338918 1028.22827148 103.00732422 C1036.08288809 125.89269139 1043.67007144 148.87227169 1051.28466797 171.83837891 C1056.99852364 189.0652784 1062.77706835 206.26750711 1068.65765953 223.43824768 C1073.46584646 237.47917959 1078.22853473 251.53490755 1082.9609375 265.6015625 C1083.29920563 266.6069916 1083.63747375 267.61242069 1083.98599243 268.64831734 C1085.72893107 273.82960002 1087.47109726 279.01114201 1089.21279907 284.19284058 C1092.95321841 295.32079057 1096.69744602 306.44745969 1100.44140625 317.57421875 C1100.81339582 318.67982965 1101.1853854 319.78544056 1101.56864738 320.92455482 C1108.13311278 340.43456985 1114.71561681 359.93842538 1121.3125 379.4375 C1123.2176045 385.06895746 1125.12258604 390.70045649 1127.02734375 396.33203125 C1127.38304003 397.38365133 1127.38304003 397.38365133 1127.74592209 398.45651627 C1134.30219509 417.84154064 1140.8378595 437.23351737 1147.375 456.625 C1149.83845209 463.93232187 1152.30197563 471.23961964 1154.765625 478.546875 C1155.0692779 479.44752119 1155.37293079 480.34816738 1155.68578529 481.27610588 C1162.15976751 500.47768133 1168.64129623 519.67670534 1175.125 538.875 C1175.65982107 540.45862816 1176.19464162 542.0422565 1176.72946167 543.62588501 C1177.26422115 545.20933025 1177.79898068 546.79277548 1178.33374023 548.3762207 C1179.1360189 550.75180197 1179.93829673 553.12738351 1180.74057198 555.50296593 C1181.27529216 557.08630136 1181.8100148 558.66963597 1182.34473991 560.25296974 C1188.71151958 579.10529386 1195.07471302 597.95882802 1201.4375 616.8125 C1202.00197319 618.48508717 1202.56644666 620.15767425 1203.13092041 621.83026123 C1205.39123866 628.5278037 1207.65153843 635.22535241 1209.9118042 641.9229126 C1213.85903059 653.61922889 1217.80640883 665.31549392 1221.75390625 677.01171875 C1222.17138783 678.24869475 1222.17138783 678.24869475 1222.59730339 679.51066017 C1224.00270248 683.67478125 1225.40810419 687.83890144 1226.81350708 692.00302124 C1229.34441529 699.50194619 1231.87530024 707.000879 1234.40618706 714.49981117 C1235.8124571 718.6665411 1237.21872862 722.83327052 1238.625 727 C1239.18750001 728.66666666 1239.75000001 730.33333333 1240.3125 732 C1240.5909375 732.825 1240.869375 733.65 1241.15625 734.5 C1269 817 1296.84375 899.5 1324.6875 982 C1324.96593687 982.82499811 1325.24437374 983.64999622 1325.53124809 984.49999428 C1326.09375451 986.16668 1326.65626087 987.83336574 1327.21876717 989.5000515 C1328.62491855 993.66642679 1330.03107093 997.83280175 1331.43722534 1001.99917603 C1333.969654 1009.50265499 1336.50207568 1017.0061363 1339.03446007 1024.5096302 C1340.44223928 1028.68090097 1341.85002434 1032.85216976 1343.2578125 1037.0234375 C1343.53649296 1037.84916637 1343.81517342 1038.67489525 1344.10229874 1039.52564621 C1348.01632925 1051.12286209 1351.93068539 1062.71996801 1355.84525108 1074.31700325 C1358.35524237 1081.75297686 1360.86514201 1089.1889814 1363.375 1096.625 C1363.65157818 1097.44442204 1363.92815636 1098.26384407 1364.21311569 1099.10809708 C1373.64094093 1127.04025457 1383.06178709 1154.97476166 1392.48042297 1182.91001892 C1401.3557799 1209.23376394 1410.23655518 1235.55567129 1419.125 1261.875 C1419.5223724 1263.05164845 1419.5223724 1263.05164845 1419.92777252 1264.25206757 C1420.7300026 1266.62751882 1421.53223672 1269.0029687 1422.33447266 1271.37841797 C1423.13656964 1273.7534558 1423.93866626 1276.12849376 1424.7407608 1278.50353241 C1425.27540142 1280.08662734 1425.81004395 1281.66972162 1426.34468842 1283.25281525 C1432.71148491 1302.10519097 1439.07469566 1320.95877659 1445.4375 1339.8125 C1446.00197319 1341.48508717 1446.56644666 1343.15767425 1447.13092041 1344.83026123 C1449.39123866 1351.5278037 1451.65153843 1358.22535241 1453.9118042 1364.9229126 C1457.85903059 1376.61922889 1461.80640883 1388.31549392 1465.75390625 1400.01171875 C1466.03222731 1400.83636942 1466.31054836 1401.66102009 1466.59730339 1402.51066017 C1468.00270248 1406.67478125 1469.40810419 1410.83890144 1470.81350708 1415.00302124 C1473.34441529 1422.50194619 1475.87530024 1430.000879 1478.40618706 1437.49981117 C1479.8124571 1441.6665411 1481.21872862 1445.83327052 1482.625 1450 C1483.18750001 1451.66666666 1483.75000001 1453.33333333 1484.3125 1455 C1484.5909375 1455.825 1484.869375 1456.65 1485.15625 1457.5 C1513 1540 1540.84375 1622.5 1757.6875 2265 C1757.96594474 2265.82502077 1758.24438948 2266.65004154 1758.53127193 2267.50006294 C1759.09370047 2269.16651924 1759.65612736 2270.8329761 1760.21855259 2272.49943352 C1761.62588235 2276.66932338 1763.03324097 2280.8392035 1764.44065857 2285.00906372 C1766.95904504 2292.47056495 1769.47724457 2299.93212894 1771.99433422 2307.39406776 C1773.3827961 2311.51015676 1774.77143131 2315.62618725 1776.16015625 2319.7421875 C1776.43579973 2320.55916988 1776.71144321 2321.37615227 1776.99543953 2322.21789169 C1780.87377018 2333.71180223 1784.76030142 2345.20291492 1788.65231323 2356.69219971 C1790.84367151 2363.16124365 1793.03288724 2369.63101209 1795.221632 2376.1009407 C1797.00196606 2381.36295048 1798.78513246 2386.62398877 1800.57049465 2391.88429451 C1801.67459641 2395.13966305 1802.77591883 2398.395967 1803.87651253 2401.65252304 C1804.38261552 2403.14819319 1804.88984028 2404.64348437 1805.39834404 2406.13834 C1815.54797938 2435.98257216 1820.70229183 2465.95920392 1812 2497 C1811.81808105 2497.6698291 1811.63616211 2498.3396582 1811.44873047 2499.02978516 C1805.67843007 2519.71314073 1794.14712842 2537.11925978 1780 2553 C1779.40574219 2553.66773437 1778.81148437 2554.33546875 1778.19921875 2555.0234375 C1763.08910254 2570.99591767 1741.93944502 2581.7392261 1721.0625 2587.75 C1720.38396973 2587.94883789 1719.70543945 2588.14767578 1719.00634766 2588.35253906 C1706.61472024 2591.71816626 1694.0212868 2592.29522783 1681.25241089 2592.23498535 C1679.70599897 2592.23522936 1678.15958699 2592.23635466 1676.61317623 2592.23826551 C1672.35870924 2592.24095648 1668.10435053 2592.23110855 1663.84990281 2592.2191968 C1659.14596814 2592.20829693 1654.44203193 2592.20922968 1649.7380867 2592.20852661 C1641.36800879 2592.20561652 1632.99796674 2592.1950255 1624.62790298 2592.17958069 C1611.93540024 2592.15617907 1599.24290411 2592.14444339 1586.55038457 2592.13461393 C1562.60024514 2592.11557075 1538.65013535 2592.08353761 1514.70001785 2592.04710811 C1491.83224322 2592.01232676 1468.96446654 2591.98133317 1446.0966826 2591.9533148 C1438.36466787 2591.94383488 1430.63265323 2591.93427719 1422.90063858 2591.92472839 C1422.03642101 2591.92366172 1421.17220343 2591.92259505 1420.28179745 2591.92149606 C1336.21148145 2591.81765769 1252.14120416 2591.69078932 1168.07092781 2591.5591586 C1139.49552854 2591.5144211 1110.92012808 2591.47052375 1082.34472656 2591.42724609 C1081.3584092 2591.42575204 1080.37209184 2591.42425798 1079.35588607 2591.42271865 C1069.44241616 2591.40770266 1059.52894624 2591.39270051 1049.61547631 2591.37770845 C1029.4569381 2591.34722256 1009.29840004 2591.31664483 989.13986206 2591.28601074 C988.21491513 2591.28460525 987.2899682 2591.28319976 986.33699258 2591.28175168 C925.55799266 2591.18938544 864.77899603 2591.09488572 804 2591 C805 2589 805 2589 806.71142578 2588.33325195 C807.4486084 2588.13691162 808.18579102 2587.94057129 808.9453125 2587.73828125 C810.17894531 2587.39615601 810.17894531 2587.39615601 811.4375 2587.04711914 C812.324375 2586.80469482 813.21125 2586.56227051 814.125 2586.3125 C847.51713337 2576.72474803 875.2990318 2555.17141621 892.53735352 2525.03222656 C898.12532892 2514.85501813 901.83533056 2504.14297955 905 2493 C905.36222656 2491.74574219 905.72445312 2490.49148437 906.09765625 2489.19921875 C908.24626315 2480.0551475 908.30599057 2470.84708313 908.375 2461.5 C908.38909912 2460.21818848 908.40319824 2458.93637695 908.41772461 2457.61572266 C908.3394127 2442.04652159 904.67906034 2428.00222796 899.6171875 2413.41796875 C899.08425927 2411.8552348 898.55254193 2410.29208747 898.02194214 2408.7285614 C896.91274196 2405.46256247 895.79873688 2402.19826182 894.68151855 2398.93499756 C892.21945304 2391.72799399 889.82721686 2384.49783384 887.43079376 2377.26880264 C886.08609722 2373.21520332 884.73616568 2369.16334798 883.38671875 2365.11132812 C881.75866508 2360.22142148 880.13106415 2355.33136585 878.50537109 2350.44067383 C872.14678565 2331.31333649 865.72689688 2312.20886112 859.19892883 2293.13862419 C854.73932101 2280.11069616 850.31048079 2267.07282934 845.9140625 2254.0234375 C845.61974712 2253.14987799 845.32543175 2252.27631847 845.02219772 2251.37628746 C843.51299005 2246.89604859 842.00450315 2242.41556748 840.49645996 2237.93493652 C837.55874105 2229.20653329 834.61816604 2220.479092 831.67778015 2211.75158691 C831.01325192 2209.77914365 830.34875192 2207.80669088 829.6842804 2205.83422852 C823.38506264 2187.13535276 817.07127552 2168.44142887 810.75 2149.75 C809.04803911 2144.71716349 807.34612721 2139.68431041 805.6442337 2134.65145111 C805.15796813 2133.21346568 804.67169597 2131.77548248 804.18541718 2130.33750153 C798.15971437 2112.51854659 792.14210576 2094.69685946 786.125 2076.875 C785.57938698 2075.25899231 785.03377338 2073.64298483 784.48815918 2072.02697754 C782.30085436 2065.54855982 780.11358793 2059.07012915 777.9263916 2052.5916748 C772.76294711 2037.2976059 767.59881453 2022.00376937 762.43457317 2006.70996952 C760.53911818 2001.09661335 758.64369545 1995.48324629 756.74829102 1989.86987305 C751.6133604 1974.66243236 746.47832348 1959.45502758 741.34299088 1944.24772263 C730.90684101 1913.34298151 720.47197313 1882.43780891 710.04162025 1851.53111076 C708.07112867 1845.69226043 706.10053596 1839.85344424 704.12988281 1834.01464844 C703.56851181 1832.35136928 703.00714096 1830.68809006 702.44577026 1829.02481079 C701.60391608 1826.53049005 700.76206079 1824.03616968 699.92020035 1821.54185104 C696.79352242 1812.27788831 693.66715448 1803.01382114 690.54150391 1793.74951172 C684.48122284 1775.78732006 678.41899921 1757.82579002 672.34849548 1739.86705017 C671.84984098 1738.39183633 671.35118881 1736.9166217 670.85253906 1735.44140625 C670.48993783 1734.36868894 670.48993783 1734.36868894 670.12001133 1733.27430058 C668.54419019 1728.61180377 666.97030697 1723.94865754 665.39746094 1719.28515625 C663.50131209 1713.66329675 661.60136698 1708.04273771 659.69784546 1702.42337036 C659.03868601 1700.47535878 658.38092566 1698.52687305 657.72476196 1696.57785034 C656.84517726 1693.9659155 655.96037993 1691.35580339 655.07421875 1688.74609375 C654.71195694 1687.6641272 654.71195694 1687.6641272 654.34237671 1686.56030273 C652.94338959 1682.46131265 651.3701095 1678.48401367 649.66308594 1674.50292969 C646.45187659 1666.87802755 643.9017313 1659.06002778 641.31640625 1651.20703125 C640.77461501 1649.57347428 640.23236229 1647.94007031 639.68968201 1646.30680847 C638.26258554 1642.00849798 636.84061385 1637.70851145 635.42010498 1633.40802002 C632.912305 1625.81822612 630.39609797 1618.23121453 627.87890625 1610.64453125 C627.59773201 1609.7966655 627.31655777 1608.94879974 627.0268631 1608.07524109 C622.52585481 1594.5089549 617.93894997 1580.97360704 613.30680656 1567.45159721 C608.50992057 1553.44755706 603.75905735 1539.42858103 599.0390625 1525.3984375 C598.53157534 1523.89003044 598.53157534 1523.89003044 598.01383591 1522.35115051 C596.27095545 1517.17004489 594.52884277 1511.98868153 592.78720093 1506.80715942 C589.04678159 1495.67920943 585.30255398 1484.55254031 581.55859375 1473.42578125 C581.18660418 1472.32017035 580.8146146 1471.21455944 580.43135262 1470.07544518 C573.86688722 1450.56543015 567.28438319 1431.06157462 560.6875 1411.5625 C558.7823955 1405.93104254 556.87741396 1400.29954351 554.97265625 1394.66796875 C554.7355254 1393.96688869 554.49839455 1393.26580864 554.25407791 1392.54348373 C547.69780491 1373.15845936 541.1621405 1353.76648263 534.625 1334.375 C532.16154791 1327.06767813 529.69802437 1319.76038036 527.234375 1312.453125 C526.77889565 1311.10215571 526.77889565 1311.10215571 526.31421471 1309.72389412 C519.8402325 1290.52231868 513.3587231 1271.32328812 506.875 1252.125 C506.34051508 1250.54237876 505.80603021 1248.95975751 505.27154541 1247.37713623 C504.73718263 1245.79488118 504.20281984 1244.21262613 503.66845703 1242.63037109 C502.86662974 1240.25614618 502.06480395 1237.88192076 501.26298141 1235.50769424 C500.72850162 1233.92507977 500.1940193 1232.34246614 499.65953445 1230.75985336 C495.53470069 1218.5460846 491.41140101 1206.33179866 487.2890625 1194.1171875 C486.7235109 1192.44150284 486.15795914 1190.76581823 485.59240723 1189.09013367 C483.05719342 1181.57832146 480.52227163 1174.06641105 477.98840332 1166.55414486 C476.59400166 1162.4201537 475.19940093 1158.28622973 473.8046875 1154.15234375 C473.52833969 1153.33324839 473.25199188 1152.51415302 472.9672699 1151.67023659 C468.85735791 1139.48980197 464.73616349 1127.31322109 460.60933685 1115.13850784 C458.81215845 1109.83539669 457.01673263 1104.53169187 455.22134018 1099.22797585 C453.52376331 1094.21394283 451.82327445 1089.20091049 450.12048531 1084.18864536 C449.06690308 1081.08501017 448.0161798 1077.98041236 446.96618271 1074.87556267 C446.48605905 1073.45771988 446.00479476 1072.04026263 445.52219009 1070.62326241 C443.03983863 1063.33284925 440.68193427 1056.02875913 438.54321289 1048.62963867 C435.97238719 1039.74399264 433.05625614 1030.9918714 430.08203125 1022.234375 C429.51041353 1020.5430169 428.93909766 1018.85155676 428.36805725 1017.16000366 C426.83847545 1012.63164794 425.30487796 1008.10466187 423.7705307 1003.57791901 C422.14351383 998.77528383 420.52041911 993.97132348 418.89697266 989.16748047 C416.22591175 981.26501835 413.55287636 973.36322696 410.87841797 965.46191406 C407.33203526 954.98406732 403.79147143 944.50426416 400.25390625 934.0234375 C399.98743349 933.23398239 399.72096073 932.44452728 399.44641304 931.63114929 C398.38103312 928.47482805 397.31567098 925.3185008 396.25036335 922.16215515 C393.5893413 914.27811656 390.92677872 906.39459846 388.26417732 898.51109314 C381.62310477 878.84780722 374.98612961 859.18313929 368.34983063 839.51824188 C359.50481379 813.30844061 350.65769866 787.09934937 341.80751419 760.89129257 C329.89716875 725.62117482 317.99175371 690.3493946 306.08816528 655.07699585 C302.14094849 643.38071027 298.19357998 631.6844759 294.24609375 619.98828125 C293.82858101 618.75121178 293.82858101 618.75121178 293.40263367 617.489151 C291.43509425 611.65943227 289.46754801 605.82971583 287.5 600 C285.25129729 593.3372412 283.00259823 586.67448117 280.75390625 580.01171875 C280.33642372 578.77473991 280.33642372 578.77473991 279.9105072 577.51277161 C275.9612809 565.81140533 272.01221979 554.1099833 268.06325912 542.40852737 C265.52137654 534.87650572 262.97945201 527.34449822 260.4375 519.8125 C260.15820648 518.98493195 259.87891296 518.15736389 259.59115601 517.30471802 C251.06314317 492.03567735 242.53251296 466.76752146 234 441.5 C225.18522236 415.39660181 216.37261665 389.2924717 207.5625 363.1875 C207.28335377 362.3603738 207.00420753 361.5332476 206.71660233 360.68105698 C202.1946382 347.28220596 197.67283283 333.88330137 193.15104675 320.48439026 C188.91327328 307.92706804 184.6754425 295.36976517 180.4375 282.8125 C180.1582732 281.9851321 179.8790464 281.15776421 179.59135818 280.30532455 C173.49005889 262.2268087 167.38822576 244.14847335 161.28403282 226.0709343 C160.47232508 223.66698795 159.66069328 221.26301597 158.84907532 218.85903931 C156.43614485 211.71235529 154.02263904 204.56586811 151.60619831 197.4203701 C150.2709085 193.47179195 148.93610507 189.52304951 147.6015625 185.57421875 C147.2035547 184.39657518 147.2035547 184.39657518 146.79750633 183.19514084 C143.01497521 172.00005888 139.25557096 160.79739756 135.51043701 149.5897522 C133.36278985 143.16302225 131.20938832 136.73822442 129.0547905 130.31382179 C127.58294799 125.92370495 126.11438217 121.53255188 124.65380859 117.13867188 C110.4181849 74.32539007 93.54700008 36.97669104 51.48901367 15.07519531 C35.17278639 6.94210372 18.02460893 2.94427888 0 1 C0 0.67 0 0.34 0 0 Z " fill="#32AFE9" transform="translate(1059,204)"/>
<path d="M0 0 C1.35095707 -0.00148126 2.70191341 -0.00384054 4.05286762 -0.006993 C7.76192749 -0.01311216 11.47087716 -0.00679662 15.17992879 0.00156327 C19.21621817 0.00844649 23.25249666 0.00368726 27.28878826 0.00040829 C34.36161782 -0.00373588 41.4344137 -0.00045727 48.50723934 0.00768471 C59.02425693 0.01975787 69.5412533 0.02035602 80.05827656 0.01860073 C97.74981817 0.01597313 115.44134485 0.02265498 133.13288212 0.03463554 C150.65067843 0.04646806 168.16846852 0.05416713 185.68626881 0.05634117 C187.31984367 0.05654739 187.31984367 0.05654739 188.98642006 0.05675778 C194.51711472 0.05743444 200.0478094 0.05803721 205.57850408 0.05861153 C244.75624063 0.06281277 283.93396904 0.07628867 323.11170101 0.09521675 C361.17322401 0.11358434 399.23474478 0.12775219 437.29627132 0.13623238 C438.46941554 0.13649543 439.64255975 0.13675848 440.85125378 0.1370295 C452.63240953 0.13966654 464.41356529 0.14221817 476.19472107 0.14470722 C500.19446788 0.1497797 524.19421454 0.15542221 548.19396114 0.16140938 C549.29743983 0.16168396 550.40091851 0.16195854 551.53783594 0.16224144 C625.23099942 0.18064394 698.9241584 0.21233448 772.61731625 0.24609566 C773.26125008 1.84810598 773.90441289 3.45042624 774.54724884 5.05287743 C775.08461445 6.39126572 775.08461445 6.39126572 775.63283592 7.75669217 C776.708294 10.47614631 777.69618533 13.2124366 778.63074398 15.98340034 C778.97847363 17.009907 779.32620327 18.03641365 779.68447018 19.09402657 C780.23710789 20.73937889 780.23710789 20.73937889 780.80091 22.41797066 C781.20418011 23.61114906 781.60745022 24.80432747 782.02294064 26.0336628 C783.13536289 29.32531118 784.24430653 32.61812216 785.35266018 35.91114235 C786.55226366 39.47319553 787.75516836 43.03413381 788.95764828 46.59521675 C791.33518161 53.63791478 793.70967025 60.68163574 796.0830946 67.72571945 C798.97887714 76.31987213 801.87720485 84.91316587 804.77558994 93.50644112 C808.76208445 105.32592392 812.74795331 117.14561739 816.73230648 128.96582222 C824.3495555 151.56300404 831.97742422 174.15655977 839.61731625 196.74609566 C848.46526059 222.90784333 857.29520198 249.0756268 866.11731625 275.24609566 C874.98156656 301.54140365 883.85305314 327.83423225 892.74231625 354.12109566 C894.69291328 359.88929906 896.64349145 365.65750883 898.59387875 371.42578316 C898.95783623 372.50218685 898.95783623 372.50218685 899.32914639 373.60033607 C905.59967391 392.14628814 911.85824814 410.69627379 918.11731625 429.24609566 C926.85398917 455.1385441 935.59760963 481.02862682 944.35085964 506.91547585 C952.08045311 529.77502612 959.80071169 552.63771136 967.51523495 575.50235176 C975.67186791 599.67723171 983.83068507 623.85135946 992.01071262 648.01833534 C993.3613686 652.00885056 994.71117171 655.99965281 996.06022739 659.9907093 C1000.30599351 672.55052373 1004.56324669 685.10611617 1008.86495113 697.64689827 C1010.49488698 702.39867848 1012.11980703 707.15216973 1013.74374962 711.90600109 C1014.83443851 715.09734629 1015.92907487 718.28720636 1017.0293951 721.47525215 C1031.10136387 762.24897555 1035.97358051 801.3564339 1016.6680975 841.38281441 C1010.64196682 853.34284665 1002.79869333 863.54182607 993.61731625 873.24609566 C992.85805843 874.06980659 992.09880062 874.89351753 991.316535 875.74218941 C984.75023034 882.63089855 977.50061749 887.99454175 969.61731625 893.24609566 C968.78587093 893.81199409 967.95442562 894.37789253 967.097785 894.96093941 C962.15606657 898.13475175 956.95213797 900.53082121 951.55481625 902.80859566 C950.92535091 903.07760689 950.29588558 903.34661812 949.64734554 903.6237812 C941.7821144 906.81954073 933.86258699 908.82101603 925.61731625 911.24609566 C1261.22731625 911.74109566 1261.22731625 911.74109566 1603.61731625 912.24609566 C1603.61731625 912.57609566 1603.61731625 912.90609566 1603.61731625 913.24609566 C1533.14550455 913.29752655 1462.6736906 913.3452233 1392.2018652 913.37312508 C1390.63676194 913.37374633 1390.63676194 913.37374633 1389.04004043 913.37438014 C1366.36279817 913.38335936 1343.68555571 913.39166984 1321.00831295 913.39929165 C1309.88701388 913.40303358 1298.76571485 913.40692325 1287.64441586 913.41089058 C1285.98438257 913.41147899 1285.98438257 913.41147899 1284.29081326 913.4120793 C1248.43526888 913.42485788 1212.5797387 913.44738775 1176.72420292 913.47498732 C1139.87064108 913.50330352 1103.0170871 913.52175627 1066.16351457 913.52784063 C1060.955354 913.52870506 1055.74719347 913.52968197 1050.53903294 913.53072739 C1049.51401632 913.53092966 1048.4889997 913.53113192 1047.43292197 913.53134032 C1030.94886185 913.53488218 1014.46482607 913.54878746 997.98077587 913.56659176 C981.39913137 913.58427945 964.81751093 913.59099309 948.23585733 913.58659979 C938.39064496 913.58432222 928.54552084 913.59036397 918.70032444 913.60848829 C912.1135366 913.61978292 905.52680619 913.62005517 898.9400143 913.6115911 C895.19347365 913.60708562 891.44709925 913.60715719 887.7005768 913.6207452 C844.28888447 913.76876687 808.80087485 903.53962599 777.1837225 872.88672066 C775.90615991 871.60168695 774.63580339 870.30942004 773.37512875 869.00781441 C770.88820304 866.5153622 768.21961878 864.25509258 765.55091 861.96093941 C763.05300069 859.74562186 760.73706636 857.37711395 758.39856625 854.99609566 C756.5334195 853.16367079 754.59803879 851.45256431 752.61731625 849.74609566 C749.38775257 846.96370234 746.38408972 844.03590137 743.39856625 840.99609566 C741.5334195 839.16367079 739.59803879 837.45256431 737.61731625 835.74609566 C734.38775257 832.96370234 731.38408972 830.03590137 728.39856625 826.99609566 C726.5334195 825.16367079 724.59803879 823.45256431 722.61731625 821.74609566 C719.38775257 818.96370234 716.38408972 816.03590137 713.39856625 812.99609566 C711.5334195 811.16367079 709.59803879 809.45256431 707.61731625 807.74609566 C704.38775257 804.96370234 701.38408972 802.03590137 698.39856625 798.99609566 C696.5334195 797.16367079 694.59803879 795.45256431 692.61731625 793.74609566 C689.38775257 790.96370234 686.38408972 788.03590137 683.39856625 784.99609566 C681.5334195 783.16367079 679.59803879 781.45256431 677.61731625 779.74609566 C674.38775257 776.96370234 671.38408972 774.03590137 668.39856625 770.99609566 C666.5334195 769.16367079 664.59803879 767.45256431 662.61731625 765.74609566 C660.01084016 763.50051626 657.52797104 761.20058054 655.11731625 758.74609566 C652.72678458 756.31219834 650.26685362 754.03254007 647.67981625 751.80859566 C644.15096862 748.76929914 640.88726598 745.53592718 637.6212225 742.21875191 C635.03485473 739.67271736 632.30196345 737.32588009 629.55091 734.96093941 C627.05300069 732.74562186 624.73706636 730.37711395 622.39856625 727.99609566 C620.5334195 726.16367079 618.59803879 724.45256431 616.61731625 722.74609566 C613.38775257 719.96370234 610.38408972 717.03590137 607.39856625 713.99609566 C605.5334195 712.16367079 603.59803879 710.45256431 601.61731625 708.74609566 C598.38775257 705.96370234 595.38408972 703.03590137 592.39856625 699.99609566 C590.5334195 698.16367079 588.59803879 696.45256431 586.61731625 694.74609566 C583.38775257 691.96370234 580.38408972 689.03590137 577.39856625 685.99609566 C575.5334195 684.16367079 573.59803879 682.45256431 571.61731625 680.74609566 C568.38775257 677.96370234 565.38408972 675.03590137 562.39856625 671.99609566 C560.5334195 670.16367079 558.59803879 668.45256431 556.61731625 666.74609566 C553.38775257 663.96370234 550.38408972 661.03590137 547.39856625 657.99609566 C545.5334195 656.16367079 543.59803879 654.45256431 541.61731625 652.74609566 C538.38775257 649.96370234 535.38408972 647.03590137 532.39856625 643.99609566 C530.5334195 642.16367079 528.59803879 640.45256431 526.61731625 638.74609566 C523.38775257 635.96370234 520.38408972 633.03590137 517.39856625 629.99609566 C515.5334195 628.16367079 513.59803879 626.45256431 511.61731625 624.74609566 C508.38775257 621.96370234 505.38408972 619.03590137 502.39856625 615.99609566 C500.5334195 614.16367079 498.59803879 612.45256431 496.61731625 610.74609566 C493.38775257 607.96370234 490.38408972 605.03590137 487.39856625 601.99609566 C485.5334195 600.16367079 483.59803879 598.45256431 481.61731625 596.74609566 C478.38775257 593.96370234 475.38408972 591.03590137 472.39856625 587.99609566 C470.5334195 586.16367079 468.59803879 584.45256431 466.61731625 582.74609566 C463.38775257 579.96370234 460.38408972 577.03590137 457.39856625 573.99609566 C455.5334195 572.16367079 453.59803879 570.45256431 451.61731625 568.74609566 C448.38775257 565.96370234 445.38408972 563.03590137 442.39856625 559.99609566 C440.5334195 558.16367079 438.59803879 556.45256431 436.61731625 554.74609566 C433.38775257 551.96370234 430.38408972 549.03590137 427.39856625 545.99609566 C425.5334195 544.16367079 423.59803879 542.45256431 421.61731625 540.74609566 C418.38775257 537.96370234 415.38408972 535.03590137 412.39856625 531.99609566 C410.5334195 530.16367079 408.59803879 528.45256431 406.61731625 526.74609566 C403.38775257 523.96370234 400.38408972 521.03590137 397.39856625 517.99609566 C395.5334195 516.16367079 393.59803879 514.45256431 391.61731625 512.74609566 C388.38775257 509.96370234 385.38408972 507.03590137 382.39856625 503.99609566 C380.5334195 502.16367079 378.59803879 500.45256431 376.61731625 498.74609566 C373.38775257 495.96370234 370.38408972 493.03590137 367.39856625 489.99609566 C365.5334195 488.16367079 363.59803879 486.45256431 361.61731625 484.74609566 C358.38775257 481.96370234 355.38408972 479.03590137 352.39856625 475.99609566 C350.5334195 474.16367079 348.59803879 472.45256431 346.61731625 470.74609566 C343.38775257 467.96370234 340.38408972 465.03590137 337.39856625 461.99609566 C335.5334195 460.16367079 333.59803879 458.45256431 331.61731625 456.74609566 C328.38775257 453.96370234 325.38408972 451.03590137 322.39856625 447.99609566 C320.5334195 446.16367079 318.59803879 444.45256431 316.61731625 442.74609566 C313.38775257 439.96370234 310.38408972 437.03590137 307.39856625 433.99609566 C305.5334195 432.16367079 303.59803879 430.45256431 301.61731625 428.74609566 C298.38775257 425.96370234 295.38408972 423.03590137 292.39856625 419.99609566 C290.5334195 418.16367079 288.59803879 416.45256431 286.61731625 414.74609566 C283.38775257 411.96370234 280.38408972 409.03590137 277.39856625 405.99609566 C275.5334195 404.16367079 273.59803879 402.45256431 271.61731625 400.74609566 C268.38775257 397.96370234 265.38408972 395.03590137 262.39856625 391.99609566 C260.5334195 390.16367079 258.59803879 388.45256431 256.61731625 386.74609566 C253.42035043 383.99178665 250.44253981 381.0983646 247.49036312 378.08593941 C245.6958815 376.3232682 243.84442328 374.68897237 241.92981625 373.05859566 C236.67542619 368.49061166 231.84839865 363.52692455 226.972785 358.56250191 C222.92275714 354.46804961 218.79582945 350.55480897 214.410285 346.82031441 C212.5640535 345.1993312 210.83657911 343.50044552 209.11731625 341.74609566 C206.70666145 339.29161078 204.22379233 336.99167505 201.61731625 334.74609566 C198.38775257 331.96370234 195.38408972 329.03590137 192.39856625 325.99609566 C190.5334195 324.16367079 188.59803879 322.45256431 186.61731625 320.74609566 C183.38775257 317.96370234 180.38408972 315.03590137 177.39856625 311.99609566 C175.5334195 310.16367079 173.59803879 308.45256431 171.61731625 306.74609566 C168.38775257 303.96370234 165.38408972 301.03590137 162.39856625 297.99609566 C160.5334195 296.16367079 158.59803879 294.45256431 156.61731625 292.74609566 C154.01084016 290.50051626 151.52797104 288.20058054 149.11731625 285.74609566 C146.72678458 283.31219834 144.26685362 281.03254007 141.67981625 278.80859566 C138.15096862 275.76929914 134.88726598 272.53592718 131.6212225 269.21875191 C129.03485473 266.67271736 126.30196345 264.32588009 123.55091 261.96093941 C121.05300069 259.74562186 118.73706636 257.37711395 116.39856625 254.99609566 C114.5334195 253.16367079 112.59803879 251.45256431 110.61731625 249.74609566 C107.38775257 246.96370234 104.38408972 244.03590137 101.39856625 240.99609566 C99.5334195 239.16367079 97.59803879 237.45256431 95.61731625 235.74609566 C92.38775257 232.96370234 89.38408972 230.03590137 86.39856625 226.99609566 C84.5334195 225.16367079 82.59803879 223.45256431 80.61731625 221.74609566 C77.38775257 218.96370234 74.38408972 216.03590137 71.39856625 212.99609566 C69.5334195 211.16367079 67.59803879 209.45256431 65.61731625 207.74609566 C62.38775257 204.96370234 59.38408972 202.03590137 56.39856625 198.99609566 C54.5334195 197.16367079 52.59803879 195.45256431 50.61731625 193.74609566 C47.38775257 190.96370234 44.38408972 188.03590137 41.39856625 184.99609566 C39.5334195 183.16367079 37.59803879 181.45256431 35.61731625 179.74609566 C32.38775257 176.96370234 29.38408972 174.03590137 26.39856625 170.99609566 C24.5334195 169.16367079 22.59803879 167.45256431 20.61731625 165.74609566 C17.38775257 162.96370234 14.38408972 160.03590137 11.39856625 156.99609566 C9.5334195 155.16367079 7.59803879 153.45256431 5.61731625 151.74609566 C2.38775257 148.96370234 -0.61591028 146.03590137 -3.60143375 142.99609566 C-5.4665805 141.16367079 -7.40196121 139.45256431 -9.38268375 137.74609566 C-12.61224743 134.96370234 -15.61591028 132.03590137 -18.60143375 128.99609566 C-20.4665805 127.16367079 -22.40196121 125.45256431 -24.38268375 123.74609566 C-26.98915984 121.50051626 -29.47202896 119.20058054 -31.88268375 116.74609566 C-34.27321542 114.31219834 -36.73314638 112.03254007 -39.32018375 109.80859566 C-51.75528466 98.98189583 -61.94450194 86.13921248 -64.38268375 69.24609566 C-65.49761753 52.11787 -63.03283807 37.32624032 -52.17174625 23.41406441 C-49.98832197 20.92883574 -47.73411326 18.57201237 -45.38268375 16.24609566 C-44.60731266 15.42045113 -44.60731266 15.42045113 -43.8162775 14.57812691 C-39.93707036 10.80020454 -35.28542 8.44522897 -30.50768375 5.99609566 C-29.84760319 5.65433296 -29.18752262 5.31257027 -28.50743961 4.96045113 C-19.19126636 0.37715422 -10.27117454 -0.0436126 0 0 Z " fill="#0074CD" transform="translate(938.3826837539673,1882.7539043426514)"/>
<path d="M0 0 C0 0.33 0 0.66 0 1 C335.61 1.495 335.61 1.495 678 2 C678 2.33 678 2.66 678 3 C446.34 3 214.68 3 -24 3 C-24 2.67 -24 2.34 -24 2 C-23.04738281 1.93941406 -22.09476563 1.87882812 -21.11328125 1.81640625 C-19.23189453 1.69072266 -19.23189453 1.69072266 -17.3125 1.5625 C-16.07113281 1.48128906 -14.82976562 1.40007813 -13.55078125 1.31640625 C-8.93275052 0.90489856 -4.65548684 -0.13301391 0 0 Z " fill="#1B80CB" transform="translate(1864,2793)"/>
<path d="M0 0 C0 0.33 0 0.66 0 1 C39.6 1.33 79.2 1.66 120 2 C120 2.33 120 2.66 120 3 C72.48 3 24.96 3 -24 3 C-24 2.67 -24 2.34 -24 2 C-23.04738281 1.93941406 -22.09476563 1.87882812 -21.11328125 1.81640625 C-19.23189453 1.69072266 -19.23189453 1.69072266 -17.3125 1.5625 C-16.07113281 1.48128906 -14.82976562 1.40007813 -13.55078125 1.31640625 C-8.93275052 0.90489856 -4.65548684 -0.13301391 0 0 Z " fill="#1C8AD7" transform="translate(1864,2793)"/>
</svg>
