<?xml version="1.0" encoding="UTF-8"?>
<svg version="1.1" xmlns="http://www.w3.org/2000/svg" width="512" height="512">
<path d="M0 0 C24.22487623 20.39989578 42.44408973 50.70666766 45.3359375 82.71875 C45.5894703 86.14486888 45.81217481 89.56971892 46 93 C47.7634375 93.0928125 47.7634375 93.0928125 49.5625 93.1875 C76.01930636 96.24656824 100.41846832 114.25965576 116.78515625 134.33984375 C126.61415104 147.03082149 133.59588122 162.33752604 137 178 C137.26055176 179.16789062 137.26055176 179.16789062 137.52636719 180.359375 C143.68567579 210.39835601 137.41599939 240.46055293 121 266 C118.49420158 269.48826988 115.81305847 272.75664578 113 276 C112.33613281 276.80824219 111.67226563 277.61648438 110.98828125 278.44921875 C92.74801066 299.92621018 66.09085029 312.37751683 38.33984375 315.3984375 C31.22544226 315.97130552 24.13475841 316.13104658 17 316 C17 313.36 17 310.72 17 308 C13.04 308 9.08 308 5 308 C5.02094727 309.63469238 5.04189453 311.26938477 5.06347656 312.95361328 C5.13594092 319.02530133 5.18182398 325.09695122 5.21972656 331.16894531 C5.23982715 333.79563833 5.26711204 336.42228669 5.30175781 339.04882812 C5.35034164 342.82693512 5.37298509 346.60444984 5.390625 350.3828125 C5.42159271 352.14094772 5.42159271 352.14094772 5.45318604 353.93460083 C5.45492275 360.26172685 5.32148338 364.22042317 1 369 C-0.91547259 370.64308887 -2.81118513 371.70660939 -5 373 C-4.36191406 373.54269531 -3.72382813 374.08539063 -3.06640625 374.64453125 C-2.24011719 375.35996094 -1.41382813 376.07539063 -0.5625 376.8125 C0.26121094 377.52019531 1.08492188 378.22789062 1.93359375 378.95703125 C5.60183379 382.58366554 5.13991945 386.20445107 5.17700195 391.13012695 C5.18357315 391.85244507 5.19014435 392.57476318 5.19691467 393.31896973 C5.21662073 395.70874133 5.22830404 398.09845017 5.23828125 400.48828125 C5.24235678 401.3054833 5.2464323 402.12268536 5.25063133 402.96465111 C5.27148031 407.28982667 5.28578724 411.61497062 5.29516602 415.94018555 C5.30622981 420.40244573 5.34063237 424.86420717 5.38033772 429.32629108 C5.4065084 432.76217055 5.41485822 436.19793122 5.41844749 439.6339016 C5.42331208 441.27850908 5.4349225 442.92311131 5.45348549 444.56762123 C5.47788831 446.8727106 5.47691056 449.1765099 5.4699707 451.48168945 C5.47877007 453.44668144 5.47877007 453.44668144 5.48774719 455.45137024 C4.80471893 460.42077748 2.71694768 463.57711518 -1.12109375 466.7578125 C-28.20111545 482.7409619 -67.47578829 483.0997135 -98.14453125 483.203125 C-99.5558729 483.21010459 -100.96721424 483.21714554 -102.3785553 483.22424316 C-106.85654091 483.24349446 -111.3344775 483.24841707 -115.8125 483.25 C-116.95391323 483.25088371 -116.95391323 483.25088371 -118.11838531 483.25178528 C-148.089417 483.26817805 -177.60071546 482.57324223 -207 476 C-207.71655762 475.84418457 -208.43311523 475.68836914 -209.17138672 475.52783203 C-219.83549524 473.15607808 -231.40014284 470.28151469 -238 461 C-239.49218405 458.0156319 -239.14381778 455.29675333 -239.16113281 451.9675293 C-239.16609772 451.24375092 -239.17106262 450.51997253 -239.17617798 449.77426147 C-239.19081043 447.37423763 -239.19760388 444.97427992 -239.203125 442.57421875 C-239.20887619 440.9075368 -239.21463393 439.24085488 -239.22039795 437.57417297 C-239.23091145 434.0762196 -239.23675162 430.57828922 -239.24023438 427.08032227 C-239.24571552 422.60121142 -239.2697338 418.12240511 -239.29820633 413.6433897 C-239.3168452 410.19897072 -239.322039 406.75462484 -239.32357025 403.31015968 C-239.32659522 401.65916087 -239.33461851 400.00816329 -239.34775543 398.35721397 C-239.36484008 396.04479313 -239.36292995 393.73311292 -239.35644531 391.4206543 C-239.36009094 390.10542282 -239.36373657 388.79019135 -239.36749268 387.43510437 C-238.90511383 383.1130602 -237.54397513 380.48636412 -234.4296875 377.48828125 C-233.91664063 377.10027344 -233.40359375 376.71226562 -232.875 376.3125 C-229.98461218 374.31643663 -229.98461218 374.31643663 -229 372 C-230.11375 371.6596875 -230.11375 371.6596875 -231.25 371.3125 C-235.09146563 369.47907322 -237.11488412 366.77023176 -239 363 C-239.09072287 361.2433077 -239.11754144 359.4831499 -239.11352539 357.72412109 C-239.11344986 356.6231308 -239.11337433 355.5221405 -239.11329651 354.38778687 C-239.10813522 353.19505157 -239.10297394 352.00231628 -239.09765625 350.7734375 C-239.09553383 348.94650864 -239.09553383 348.94650864 -239.09336853 347.08267212 C-239.08775639 343.1800901 -239.07520179 339.27756477 -239.0625 335.375 C-239.05748657 332.73437583 -239.05292339 330.09375076 -239.04882812 327.453125 C-239.037783 320.96872805 -239.02051018 314.48437365 -239 308 C-242.96 308 -246.92 308 -251 308 C-251 310.64 -251 313.28 -251 316 C-284.66925788 317.39001523 -314.70213962 307.05465905 -339.56738281 284.34228516 C-358.43889334 266.66069605 -371.6199872 240.62364655 -373.20458984 214.64599609 C-373.30344928 211.01128097 -373.3289084 207.38600613 -373.3125 203.75 C-373.30758545 202.46528809 -373.3026709 201.18057617 -373.29760742 199.85693359 C-373.18622466 190.8514941 -372.57435915 182.67152555 -370 174 C-369.67128906 172.80375 -369.34257812 171.6075 -369.00390625 170.375 C-364.92359234 156.82101608 -358.41637556 143.64459846 -349 133 C-347.98679687 131.80890625 -347.98679687 131.80890625 -346.953125 130.59375 C-327.41494972 108.14563373 -304.56264826 97.55346041 -276 91 C-275.86464844 90.28457031 -275.72929687 89.56914063 -275.58984375 88.83203125 C-272.22773342 73.26968821 -264.16619459 60.7858909 -251.125 51.625 C-241.37759621 45.46284818 -231.79135725 42.80297645 -220.375 42.8125 C-219.18318115 42.8115332 -219.18318115 42.8115332 -217.96728516 42.81054688 C-211.82047385 42.86546255 -205.98125853 43.52444724 -200 45 C-199.45472656 43.98421875 -198.90945312 42.9684375 -198.34765625 41.921875 C-181.39842512 10.7951284 -156.00402099 -12.96594666 -121.9375 -23.8125 C-119.30322886 -24.58897035 -116.65602146 -25.30218581 -114 -26 C-112.8553125 -26.3196875 -111.710625 -26.639375 -110.53125 -26.96875 C-71.94869325 -36.02726332 -30.22354898 -25.00124868 0 0 Z " fill="#030303" transform="translate(373,29)"/>
<path d="M0 0 C24.22487623 20.39989578 42.44408973 50.70666766 45.3359375 82.71875 C45.5894703 86.14486888 45.81217481 89.56971892 46 93 C47.7634375 93.0928125 47.7634375 93.0928125 49.5625 93.1875 C76.01930636 96.24656824 100.41846832 114.25965576 116.78515625 134.33984375 C126.61415104 147.03082149 133.59588122 162.33752604 137 178 C137.26055176 179.16789062 137.26055176 179.16789062 137.52636719 180.359375 C143.68567579 210.39835601 137.41599939 240.46055293 121 266 C118.49420158 269.48826988 115.81305847 272.75664578 113 276 C112.33613281 276.80824219 111.67226563 277.61648438 110.98828125 278.44921875 C92.74801066 299.92621018 66.09085029 312.37751683 38.33984375 315.3984375 C31.21828523 315.97188182 24.14163534 316.09650859 17 316 C17 310.72 17 305.44 17 300 C18.27230469 299.98582031 19.54460937 299.97164063 20.85546875 299.95703125 C49.68932514 299.30429359 76.22241053 290.65994348 97 270 C115.75375693 250.0934725 123.7915981 223.77294083 123.30859375 196.83203125 C122.28386131 170.66096014 108.91325377 148.04167225 90.25 130.375 C74.91768121 116.94142038 53.36952829 108.01422647 32.87109375 107.140625 C31 107 31 107 30 106 C29.89058456 104.50415344 29.84412325 103.00361705 29.82421875 101.50390625 C29.18220581 72.40180824 21.19864279 47.39168022 2 25 C1.52175781 24.38898437 1.04351562 23.77796875 0.55078125 23.1484375 C-13.39986748 5.64017348 -35.04968545 -4.06888467 -56 -10 C-57.08667969 -10.32355469 -58.17335938 -10.64710937 -59.29296875 -10.98046875 C-72.57895949 -14.4273823 -88.52211419 -14.61647445 -102 -12 C-103.73221123 -10.6638448 -103.73221123 -10.6638448 -105 -9 C-106.58017971 -8.10223418 -108.18842946 -7.2531876 -109.8125 -6.4375 C-130.50135454 4.70892623 -145.98162822 20.96938036 -158 41 C-146.12 41.33 -134.24 41.66 -122 42 C-122 44.64 -122 47.28 -122 50 C-118.7 50 -115.4 50 -112 50 C-112 47.69 -112 45.38 -112 43 C-107.91113171 44.57646907 -105.47130626 47.52505599 -102.64355469 50.72753906 C-96.50887368 57.5195248 -90.11164371 64.00678469 -83.61948395 70.45568085 C-81.65014671 72.41200317 -79.68417199 74.37165344 -77.71893311 76.33209229 C-73.56547982 80.47426858 -69.40801813 84.61240672 -65.25 88.75 C-60.38539357 93.59097294 -55.52246041 98.43360413 -50.66365814 103.28040314 C-48.72451737 105.21305422 -46.78240023 107.14268023 -44.84014893 109.07220459 C-43.66574807 110.24297745 -42.49148484 111.41388839 -41.31738281 112.58496094 C-40.77519104 113.12198639 -40.23299927 113.65901184 -39.67437744 114.21231079 C-38.43046635 115.456042 -37.21211139 116.72525763 -36 118 C-36 118.33 -36 118.66 -36 119 C-47.88 119 -59.76 119 -72 119 C-72 146.72 -72 174.44 -72 203 C-85.2 203 -98.4 203 -112 203 C-112 193.76 -112 184.52 -112 175 C-115.3 175 -118.6 175 -122 175 C-122 184.24 -122 193.48 -122 203 C-122.66 203 -123.32 203 -124 203 C-125.19921875 201.77734375 -125.19921875 201.77734375 -126.6875 199.9375 C-127.31527344 199.22464844 -127.94304687 198.51179687 -128.58984375 197.77734375 C-129.91198463 196.2537746 -131.2245084 194.72085557 -132.48876953 193.14892578 C-140.12288102 183.38642033 -140.12288102 183.38642033 -151.19921875 179.03515625 C-155.86619439 178.90719916 -160.38470631 179.32931685 -165 180 C-165 181.65 -165 183.3 -165 185 C-165.33 185 -165.66 185 -166 185 C-166 180.05 -166 175.1 -166 170 C-203.60003229 172.22252057 -203.60003229 172.22252057 -235.625 188.6875 C-238.04903918 192.76429317 -238.13493797 195.99112417 -238.16113281 200.65527344 C-238.16609772 201.32721741 -238.17106262 201.99916138 -238.17617798 202.69146729 C-238.19077981 204.91411364 -238.19759922 207.13668856 -238.203125 209.359375 C-238.20887927 210.9077352 -238.21463697 212.45609539 -238.22039795 214.00445557 C-238.23090313 217.25264823 -238.23674856 220.50081618 -238.24023438 223.74902344 C-238.24570989 227.89946548 -238.26971952 232.04957794 -238.29820633 236.19991684 C-238.31688698 239.39993219 -238.32204124 242.59986913 -238.32357025 245.79993439 C-238.32658644 247.3292648 -238.33457991 248.85859416 -238.34775543 250.38787079 C-238.36492589 252.53454677 -238.36290922 254.68043052 -238.35644531 256.82714844 C-238.36009094 258.04609802 -238.36373657 259.26504761 -238.36749268 260.52093506 C-237.85106101 265.41001016 -236.55955906 269.47622433 -232.95703125 272.99609375 C-232.24933594 273.47175781 -231.54164063 273.94742187 -230.8125 274.4375 C-230.09707031 274.93121094 -229.38164062 275.42492187 -228.64453125 275.93359375 C-228.10183594 276.28550781 -227.55914062 276.63742187 -227 277 C-227.721875 277.53625 -228.44375 278.0725 -229.1875 278.625 C-232.95753177 281.80858239 -237.66721716 285.80512644 -238.20532227 290.97119141 C-238.26030884 292.1494751 -238.26030884 292.1494751 -238.31640625 293.3515625 C-238.35830078 294.20234375 -238.40019531 295.053125 -238.44335938 295.9296875 C-238.48267578 296.81914062 -238.52199219 297.70859375 -238.5625 298.625 C-238.60568359 299.5221875 -238.64886719 300.419375 -238.69335938 301.34375 C-238.79956715 303.56231239 -238.90029959 305.78113565 -239 308 C-242.96 308 -246.92 308 -251 308 C-251 310.64 -251 313.28 -251 316 C-284.66925788 317.39001523 -314.70213962 307.05465905 -339.56738281 284.34228516 C-358.43889334 266.66069605 -371.6199872 240.62364655 -373.20458984 214.64599609 C-373.30344928 211.01128097 -373.3289084 207.38600613 -373.3125 203.75 C-373.30758545 202.46528809 -373.3026709 201.18057617 -373.29760742 199.85693359 C-373.18622466 190.8514941 -372.57435915 182.67152555 -370 174 C-369.67128906 172.80375 -369.34257812 171.6075 -369.00390625 170.375 C-364.92359234 156.82101608 -358.41637556 143.64459846 -349 133 C-347.98679687 131.80890625 -347.98679687 131.80890625 -346.953125 130.59375 C-327.41494972 108.14563373 -304.56264826 97.55346041 -276 91 C-275.86464844 90.28457031 -275.72929687 89.56914063 -275.58984375 88.83203125 C-272.22773342 73.26968821 -264.16619459 60.7858909 -251.125 51.625 C-241.37759621 45.46284818 -231.79135725 42.80297645 -220.375 42.8125 C-219.18318115 42.8115332 -219.18318115 42.8115332 -217.96728516 42.81054688 C-211.82047385 42.86546255 -205.98125853 43.52444724 -200 45 C-199.45472656 43.98421875 -198.90945312 42.9684375 -198.34765625 41.921875 C-181.39842512 10.7951284 -156.00402099 -12.96594666 -121.9375 -23.8125 C-119.30322886 -24.58897035 -116.65602146 -25.30218581 -114 -26 C-112.8553125 -26.3196875 -111.710625 -26.639375 -110.53125 -26.96875 C-71.94869325 -36.02726332 -30.22354898 -25.00124868 0 0 Z " fill="#B2D7F3" transform="translate(373,29)"/>
<path d="M0 0 C0.7120459 0.20898926 1.4240918 0.41797852 2.15771484 0.63330078 C17.42674681 5.22743143 30.9702512 12.49300421 43 23 C44.02287109 23.82564453 44.02287109 23.82564453 45.06640625 24.66796875 C50.86699824 29.44693006 55.42486296 35.06311619 60 41 C60.59683594 41.74636719 61.19367188 42.49273437 61.80859375 43.26171875 C75.15254094 60.92010614 81.95653752 83.23285365 82.625 105.125 C82.66367187 106.176875 82.70234375 107.22875 82.7421875 108.3125 C82.83536341 110.87483756 82.92117382 113.43718779 83 116 C83.91136719 116.06316406 84.82273437 116.12632812 85.76171875 116.19140625 C107.54337146 118.25036845 127.62931777 126.34283524 144 141 C144.89332031 141.79921875 145.78664063 142.5984375 146.70703125 143.421875 C164.81921952 160.54612573 175.59000206 184.39607722 176.52148438 209.31958008 C176.91215103 237.23131719 166.81728875 262.12464228 147.71484375 282.375 C134.07458725 295.56385233 118.38765051 303.65344554 100 308 C98.83936035 308.28254639 98.83936035 308.28254639 97.65527344 308.57080078 C91.33536762 309.98784802 85.33539053 310.24295657 78.875 310.125 C77.91851562 310.11597656 76.96203125 310.10695313 75.9765625 310.09765625 C73.65076475 310.07439827 71.32552706 310.04172213 69 310 C69 312.64 69 315.28 69 318 C65.04 318 61.08 318 57 318 C56.94392578 316.28103516 56.94392578 316.28103516 56.88671875 314.52734375 C56.82101416 312.99736554 56.75456841 311.46741903 56.6875 309.9375 C56.66494141 309.18533203 56.64238281 308.43316406 56.61914062 307.65820312 C56.37095853 302.44637914 55.42830731 298.63906651 53 294 C50.58119071 291.73122465 50.58119071 291.73122465 48 290 C46.98575042 289.01445559 45.98271275 288.01699343 45 287 C45.81404297 286.47212891 45.81404297 286.47212891 46.64453125 285.93359375 C47.71767578 285.19302734 47.71767578 285.19302734 48.8125 284.4375 C49.52019531 283.96183594 50.22789062 283.48617188 50.95703125 282.99609375 C54.52981154 279.5052893 55.839932 275.43457243 56.38095093 270.58581543 C56.38333771 269.39669556 56.38572449 268.20757568 56.38818359 266.98242188 C56.39344055 266.31964737 56.39869751 265.65687286 56.40411377 264.97401428 C56.41720783 262.80534582 56.40861424 260.63742459 56.3984375 258.46875 C56.4004613 256.9485256 56.40337528 255.42830215 56.40713501 253.90808105 C56.411544 250.7307811 56.40517362 247.55373514 56.39111328 244.37646484 C56.374022 240.31799854 56.38387089 236.26012755 56.40183067 232.20168304 C56.41270729 229.06512015 56.40920448 225.92869677 56.4014473 222.79212952 C56.39945599 221.2963097 56.40186673 219.80047692 56.40888596 218.30467224 C56.41656494 216.20863626 56.40480826 214.11354437 56.38818359 212.01757812 C56.38460342 210.23389832 56.38460342 210.23389832 56.38095093 208.41418457 C55.81378862 203.33112359 54.40374773 199.36853667 50.6640625 195.72265625 C42.92718739 190.71977953 33.90245109 188.1011242 25 186 C24.36956787 185.8453125 23.73913574 185.690625 23.08959961 185.53125 C16.75611627 184.03615133 10.39135931 183.17307976 3.9375 182.375 C2.88111328 182.2409375 1.82472656 182.106875 0.73632812 181.96875 C-1.84197604 181.64208703 -4.42092433 181.32051479 -7 181 C-7.33 185.95 -7.66 190.9 -8 196 C-6.79214844 195.95359375 -5.58429688 195.9071875 -4.33984375 195.859375 C2.04855268 195.86437277 8.17822306 197.06796095 14.4375 198.25 C15.60087891 198.45496094 16.76425781 198.65992188 17.96289062 198.87109375 C25.03472992 200.18437848 31.44859758 202.01928487 38 205 C38 205.66 38 206.32 38 207 C35.67039124 207.78376465 33.33710402 208.55163311 31 209.3125 C30.3709375 209.52583984 29.741875 209.73917969 29.09375 209.95898438 C16.26220834 214.09222135 2.86908561 215.51642093 -10.5 216.625 C-11.88157001 216.74672136 -13.26308078 216.86911697 -14.64453125 216.9921875 C-18.76109877 217.35411026 -22.87992304 217.68091121 -27 218 C-28.22662354 218.09861328 -29.45324707 218.19722656 -30.71704102 218.29882812 C-43.11310266 219.19490955 -55.51336982 219.24138829 -67.9375 219.25 C-69.0821875 219.25133942 -70.226875 219.25267883 -71.40625 219.25405884 C-90.45501009 219.24924217 -109.09830621 218.38113719 -128 216 C-128.97646484 215.88785156 -129.95292969 215.77570313 -130.95898438 215.66015625 C-144.06035992 214.14953501 -156.42353944 210.92966725 -169 207 C-169 206.34 -169 205.68 -169 205 C-159.29134444 201.42999717 -149.91719379 198.96256717 -139.69091797 197.48657227 C-137.60250253 197.18424316 -135.5182716 196.86022572 -133.43359375 196.53320312 C-126.57576023 195.48440456 -119.94344198 194.73057598 -113 195 C-113 193.35 -113 191.7 -113 190 C-106.9453125 189.21875 -106.9453125 189.21875 -104 189 C-103.29278809 188.86352051 -102.58557617 188.72704102 -101.85693359 188.58642578 C-97.36893007 188.04185632 -94.88283096 188.37436703 -91.13232422 191.03222656 C-88.07180574 193.87125005 -85.21231924 196.81732473 -82.375 199.875 C-81.36291504 200.92014057 -80.34860745 201.96313364 -79.33203125 203.00390625 C-72 210.60599334 -72 210.60599334 -72 213 C-71.34 213 -70.68 213 -70 213 C-70 203.76 -70 194.52 -70 185 C-66.7 185 -63.4 185 -60 185 C-60 194.24 -60 203.48 -60 213 C-46.8 213 -33.6 213 -20 213 C-20 185.28 -20 157.56 -20 129 C-2.675 128.505 -2.675 128.505 15 128 C12.96626221 125.97149902 10.93252441 123.94299805 8.8371582 121.85302734 C2.10939112 115.14184846 -4.61559952 108.42789267 -11.33923626 101.71257591 C-15.41485169 97.64217352 -19.49138983 93.57270434 -23.57006836 89.50537109 C-27.50799474 85.57832971 -31.44345571 81.64883303 -35.37723732 77.71763992 C-36.87661461 76.22010677 -38.37687011 74.72345237 -39.87802696 73.22770309 C-41.98442907 71.12858588 -44.08765443 69.02633337 -46.19018555 66.92333984 C-46.80805939 66.30906128 -47.42593323 65.69478271 -48.06253052 65.06188965 C-50.77582086 62.3421578 -53.3728089 59.60918762 -55.8006134 56.62979126 C-57.7280309 53.96965221 -57.7280309 53.96965221 -60 53 C-60 55.31 -60 57.62 -60 60 C-63.3 60 -66.6 60 -70 60 C-70 57.36 -70 54.72 -70 52 C-82.21 52 -94.42 52 -107 52 C-97.06850509 34.97458015 -84.19995992 18.34527001 -67 8 C-66.42121094 7.65179199 -65.84242188 7.30358398 -65.24609375 6.94482422 C-53.61866137 0 -53.61866137 0 -51 0 C-50.67 -0.99 -50.34 -1.98 -50 -3 C-33.1697318 -5.45857837 -16.30089316 -4.91172144 0 0 Z " fill="#B2D7F3" transform="translate(321,19)"/>
<path d="M0 0 C24.22487623 20.39989578 42.44408973 50.70666766 45.3359375 82.71875 C45.5894703 86.14486888 45.81217481 89.56971892 46 93 C47.7634375 93.0928125 47.7634375 93.0928125 49.5625 93.1875 C76.01930636 96.24656824 100.41846832 114.25965576 116.78515625 134.33984375 C126.61415104 147.03082149 133.59588122 162.33752604 137 178 C137.26055176 179.16789062 137.26055176 179.16789062 137.52636719 180.359375 C143.68567579 210.39835601 137.41599939 240.46055293 121 266 C118.49420158 269.48826988 115.81305847 272.75664578 113 276 C112.33613281 276.80824219 111.67226563 277.61648438 110.98828125 278.44921875 C92.74801066 299.92621018 66.09085029 312.37751683 38.33984375 315.3984375 C31.21828523 315.97188182 24.14163534 316.09650859 17 316 C17 310.72 17 305.44 17 300 C18.27230469 299.98582031 19.54460937 299.97164063 20.85546875 299.95703125 C49.68932514 299.30429359 76.22241053 290.65994348 97 270 C115.75375693 250.0934725 123.7915981 223.77294083 123.30859375 196.83203125 C122.28386131 170.66096014 108.91325377 148.04167225 90.25 130.375 C74.91768121 116.94142038 53.36952829 108.01422647 32.87109375 107.140625 C31 107 31 107 30 106 C29.89058456 104.50415344 29.84412325 103.00361705 29.82421875 101.50390625 C29.18220581 72.40180824 21.19864279 47.39168022 2 25 C1.52175781 24.38898437 1.04351562 23.77796875 0.55078125 23.1484375 C-13.39986748 5.64017348 -35.04968545 -4.06888467 -56 -10 C-57.08667969 -10.32355469 -58.17335938 -10.64710937 -59.29296875 -10.98046875 C-86.15032265 -17.94833279 -115.76957962 -11.65372524 -139.50390625 1.87109375 C-145.00866514 5.14733998 -150.05914481 8.93025978 -155 13 C-156.40378906 14.15628906 -156.40378906 14.15628906 -157.8359375 15.3359375 C-174.18873028 29.49003545 -184.13527263 47.75578437 -191 68 C-194.52582996 66.62530818 -197.95050404 65.10921873 -201.375 63.5 C-213.27696276 58.11313034 -223.62078087 57.50573569 -236 62 C-246.56294741 67.14212084 -253.6616742 75.10753682 -258 86 C-259.13603985 90.0434154 -259.3375034 94.0746532 -259.5625 98.25 C-259.62727539 99.36761719 -259.62727539 99.36761719 -259.69335938 100.5078125 C-259.79896725 102.338349 -259.89994201 104.16915176 -260 106 C-260.82854492 106.09704224 -260.82854492 106.09704224 -261.67382812 106.19604492 C-291.0596807 109.74145899 -317.91163181 119.36647821 -336.89453125 143.3984375 C-352.45062064 164.88549778 -360.28412283 190.26875229 -356.61767578 216.76269531 C-351.77541753 243.64908027 -338.49327489 267.0329243 -315.78417969 282.81835938 C-306.4808478 288.97984355 -296.84210279 293.28618083 -286 296 C-284.94941406 296.28617187 -283.89882813 296.57234375 -282.81640625 296.8671875 C-272.31545555 299.4645958 -261.77133345 299.70250603 -251 300 C-251 305.28 -251 310.56 -251 316 C-285.60009968 317.01764999 -315.6747055 306.72843714 -341 283 C-360.00309254 264.50968933 -372.5769549 237.72193452 -373.30078125 211.109375 C-373.32010312 208.65632298 -373.32357025 206.20310313 -373.3125 203.75 C-373.30758545 202.46528809 -373.3026709 201.18057617 -373.29760742 199.85693359 C-373.18622466 190.8514941 -372.57435915 182.67152555 -370 174 C-369.67128906 172.80375 -369.34257812 171.6075 -369.00390625 170.375 C-364.92359234 156.82101608 -358.41637556 143.64459846 -349 133 C-347.98679687 131.80890625 -347.98679687 131.80890625 -346.953125 130.59375 C-327.41494972 108.14563373 -304.56264826 97.55346041 -276 91 C-275.86464844 90.28457031 -275.72929687 89.56914063 -275.58984375 88.83203125 C-272.22773342 73.26968821 -264.16619459 60.7858909 -251.125 51.625 C-241.37759621 45.46284818 -231.79135725 42.80297645 -220.375 42.8125 C-219.18318115 42.8115332 -219.18318115 42.8115332 -217.96728516 42.81054688 C-211.82047385 42.86546255 -205.98125853 43.52444724 -200 45 C-199.45472656 43.98421875 -198.90945312 42.9684375 -198.34765625 41.921875 C-181.39842512 10.7951284 -156.00402099 -12.96594666 -121.9375 -23.8125 C-119.30322886 -24.58897035 -116.65602146 -25.30218581 -114 -26 C-112.8553125 -26.3196875 -111.710625 -26.639375 -110.53125 -26.96875 C-71.94869325 -36.02726332 -30.22354898 -25.00124868 0 0 Z " fill="#010101" transform="translate(373,29)"/>
<path d="M0 0 C1.50626953 0.38091797 1.50626953 0.38091797 3.04296875 0.76953125 C6.65089147 1.67938852 10.26139471 2.57852783 13.87329102 3.47247314 C15.74399127 3.93649743 17.61331979 4.40604445 19.48242188 4.87646484 C27.11987813 6.7341292 34.68447213 7.83355414 42.5 8.625 C43.62019531 8.74617188 44.74039063 8.86734375 45.89453125 8.9921875 C49.26203816 9.34952387 52.62747366 9.69288745 56 10 C56.89211182 10.08480118 57.78422363 10.16960236 58.70336914 10.25697327 C67.93203075 11.06190824 77.12049837 11.16366384 86.375 11.16796875 C88.03247097 11.17119479 89.68994168 11.17455978 91.34741211 11.17805481 C94.80664732 11.18400327 98.26585771 11.18589929 101.72509766 11.18530273 C105.22742908 11.18522169 108.7296291 11.19213511 112.23193359 11.20581055 C139.67683346 11.33802189 139.67683346 11.33802189 167 9 C168.29744141 8.84861572 169.59488281 8.69723145 170.93164062 8.54125977 C174.3779718 8.12938904 177.81339924 7.67344296 181.25 7.1875 C183.01706299 6.9385498 183.01706299 6.9385498 184.81982422 6.68457031 C193.1535303 5.43971083 201.08125244 3.61509988 209.0703125 0.953125 C212 0 212 0 214 0 C214 17.16 214 34.32 214 52 C202.20037333 55.93320889 192.10418684 59.09195694 180.0625 60.75 C178.79599609 60.94464844 177.52949219 61.13929688 176.22460938 61.33984375 C154.67919513 64.55225041 132.94423093 65.32083631 111.19091797 65.20581055 C107.60507116 65.18739767 104.01948333 65.18530324 100.43359375 65.18554688 C80.34663647 65.15782505 60.6083243 64.6125937 40.72265625 61.63574219 C38.10639079 61.2472366 35.48734205 60.88467025 32.8671875 60.5234375 C9.19357316 57.12904877 9.19357316 57.12904877 0 51 C-0.36076355 48.82333374 -0.36076355 48.82333374 -0.34057617 46.09130859 C-0.34034958 45.07040131 -0.34012299 44.04949402 -0.33988953 42.99765015 C-0.32440567 41.89240997 -0.30892181 40.7871698 -0.29296875 39.6484375 C-0.28872391 38.5192691 -0.28447906 37.39010071 -0.28010559 36.22671509 C-0.26327132 32.60923727 -0.22560975 28.99231031 -0.1875 25.375 C-0.17245934 22.92709136 -0.15876986 20.47917402 -0.14648438 18.03125 C-0.11335227 12.0206444 -0.06310579 6.01036154 0 0 Z " fill="#C4C3C8" transform="translate(149,336)"/>
<path d="M0 0 C17 4 17 4 23.55078125 5.61328125 C31.03565453 7.31590836 38.56360214 8.36850071 46.1875 9.1875 C46.98451324 9.2743808 47.78152649 9.3612616 48.60269165 9.45077515 C68.73886271 11.54005056 88.9685109 11.35084688 109.1875 11.3125 C110.02883358 11.31131039 110.87016716 11.31012077 111.7369957 11.30889511 C117.40160796 11.29970839 123.06596816 11.2742405 128.73046875 11.23828125 C129.84646957 11.23289022 129.84646957 11.23289022 130.98501587 11.22739029 C133.08148293 11.21586614 135.17777461 11.19759147 137.27416992 11.17700195 C138.45702072 11.16715775 139.63987152 11.15731354 140.85856628 11.14717102 C143.69740468 11.01417609 146.23398404 10.61438126 149 10 C151.38167958 9.77922584 153.76636491 9.58993396 156.15234375 9.421875 C157.5730842 9.31551635 158.99373583 9.20796617 160.41430664 9.09936523 C161.15327179 9.04287811 161.89223694 8.98639099 162.65359497 8.92819214 C176.23737557 7.86837446 189.31302724 6.2426258 202.49829102 2.63842773 C206.30962444 1.66578824 210.1601846 0.85329231 214 0 C214 16.83 214 33.66 214 51 C159.7406567 71.86897819 90.98822527 69.10673488 34.1875 60.6875 C32.89352295 60.49905518 31.5995459 60.31061035 30.26635742 60.11645508 C19.74104416 58.43520139 9.57105315 55.78552657 0 51 C0 34.17 0 17.34 0 0 Z " fill="#C4C3C8" transform="translate(149,432)"/>
<path d="M0 0 C5.445 1.485 5.445 1.485 11 3 C70.15718331 18.08036913 151.37792176 20.21303386 209.6640625 0.734375 C212 0 212 0 214 0 C214 16.83 214 33.66 214 51 C207.40704653 54.29647674 202.16626533 56.33601565 195.1875 58.0625 C194.15286621 58.31926514 193.11823242 58.57603027 192.05224609 58.84057617 C179.85124228 61.71166876 167.4826359 63.05284347 155 64 C153.78183594 64.0935376 152.56367188 64.1870752 151.30859375 64.28344727 C135.81749452 65.35527614 120.27111488 65.29156835 104.75 65.3125 C103.63712994 65.31422588 103.63712994 65.31422588 102.50177765 65.31598663 C25.19851675 65.39915243 25.19851675 65.39915243 0 51 C0 34.17 0 17.34 0 0 Z " fill="#C4C3C8" transform="translate(149,240)"/>
<path d="M0 0 C4.13734182 2.06867091 5.84657007 3.80627736 8.86254883 7.23364258 C14.77335423 13.84015591 20.98701726 20.10391502 27.274786 26.34995079 C29.24822995 28.3104074 31.21833581 30.27416771 33.18769836 32.23872375 C37.35144892 36.39118169 41.5191969 40.53961269 45.6875 44.6875 C50.55995605 49.53633101 55.43074783 54.38681122 60.29740334 59.24146461 C62.24097471 61.178544 64.18752217 63.11259881 66.13420105 65.04655457 C67.31186231 66.22058762 68.48938582 67.39475887 69.66674805 68.5690918 C70.21051086 69.10768829 70.75427368 69.64628479 71.31451416 70.20120239 C72.56212762 71.44863598 73.78418484 72.72155431 75 74 C75 74.33 75 74.66 75 75 C63.12 75 51.24 75 39 75 C39 102.72 39 130.44 39 159 C26.13 159 13.26 159 0 159 C0 106.53 0 54.06 0 0 Z " fill="#030403" transform="translate(262,73)"/>
<path d="M0 0 C12.54 0 25.08 0 38 0 C38 52.47 38 104.94 38 159 C30.12469966 152.24974257 30.12469966 152.24974257 27.57667542 149.70365906 C26.70399773 148.83521111 26.70399773 148.83521111 25.81369019 147.94921875 C24.89766525 147.03015747 24.89766525 147.03015747 23.96313477 146.0925293 C23.29886978 145.43001663 22.6346048 144.76750397 21.95021057 144.08491516 C19.77810453 141.91717393 17.6096332 139.74583941 15.44140625 137.57421875 C13.92698021 136.06046681 12.41240579 134.54686331 10.89768982 133.03340149 C7.73656233 129.87374326 4.57723848 126.71229559 1.41918945 123.54956055 C-2.63855021 119.48609467 -6.70080205 115.42717381 -10.76438808 111.36955547 C-13.88614643 108.2513986 -17.00553409 105.13087892 -20.12419319 102.00962257 C-21.62225913 100.51088773 -23.12107326 99.01290038 -24.62063408 97.51566124 C-26.70580957 95.43300864 -28.7877811 93.34720666 -30.86889648 91.26049805 C-31.80617584 90.32625504 -31.80617584 90.32625504 -32.76239014 89.37313843 C-37 85.11426819 -37 85.11426819 -37 84 C-24.79 84 -12.58 84 0 84 C0 56.28 0 28.56 0 0 Z " fill="#000000" transform="translate(212,72)"/>
<path d="M0 0 C0 0.66 0 1.32 0 2 C-2.20546223 3.3879465 -4.41326486 4.67149348 -6.6875 5.9375 C-31.39062612 20.24008367 -47.64249331 43.31360653 -55.2734375 70.5859375 C-59.38217756 89.89259778 -58.88564276 111.46600251 -52 130 C-51.73767578 130.71075684 -51.47535156 131.42151367 -51.20507812 132.15380859 C-45.94382718 145.9724779 -38.21748058 157.30982459 -28 168 C-27.39929688 168.67546875 -26.79859375 169.3509375 -26.1796875 170.046875 C-18.73404883 178.1049255 -8.86781598 184.30899209 1 189 C1 189.33 1 189.66 1 190 C-17.34473743 189.17179515 -33.37986342 180.89329784 -47 169 C-47.66 168.48308594 -48.32 167.96617187 -49 167.43359375 C-67.43816792 152.60127721 -77.52213826 128.93052871 -81 106 C-81.27666845 102.61871627 -81.33454385 99.2665588 -81.3125 95.875 C-81.30758545 94.96556641 -81.3026709 94.05613281 -81.29760742 93.11914062 C-81.07253634 79.96113869 -78.3415434 68.07862517 -73 56 C-72.64292969 55.16339844 -72.28585938 54.32679688 -71.91796875 53.46484375 C-61.27783119 30.34228333 -41.23225206 13.60613197 -18 4 C-12.10915527 1.855143 -6.29719815 0 0 0 Z " fill="#77B7E8" transform="translate(96,137)"/>
<path d="M0 0 C3.3 0 6.6 0 10 0 C10 9.24 10 18.48 10 28 C23.2 28 36.4 28 50 28 C50 19.42 50 10.84 50 2 C59 2 59 2 62 3 C62 5.64 62 8.28 62 11 C63.20785156 10.95359375 64.41570312 10.9071875 65.66015625 10.859375 C72.04855268 10.86437277 78.17822306 12.06796095 84.4375 13.25 C85.60087891 13.45496094 86.76425781 13.65992188 87.96289062 13.87109375 C95.03472992 15.18437848 101.44859758 17.01928487 108 20 C108 20.66 108 21.32 108 22 C105.67039124 22.78376465 103.33710402 23.55163311 101 24.3125 C100.05640625 24.63250977 100.05640625 24.63250977 99.09375 24.95898438 C86.26220834 29.09222135 72.86908561 30.51642093 59.5 31.625 C58.11842999 31.74672136 56.73691922 31.86911697 55.35546875 31.9921875 C51.23890123 32.35411026 47.12007696 32.68091121 43 33 C41.77337646 33.09861328 40.54675293 33.19722656 39.28295898 33.29882812 C26.88689734 34.19490955 14.48663018 34.24138829 2.0625 34.25 C0.9178125 34.25133942 -0.226875 34.25267883 -1.40625 34.25405884 C-20.45501009 34.24924217 -39.09830621 33.38113719 -58 31 C-58.97646484 30.88785156 -59.95292969 30.77570313 -60.95898438 30.66015625 C-74.06035992 29.14953501 -86.42353944 25.92966725 -99 22 C-99 21.34 -99 20.68 -99 20 C-89.29134444 16.42999717 -79.91719379 13.96256717 -69.69091797 12.48657227 C-67.60250253 12.18424316 -65.5182716 11.86022572 -63.43359375 11.53320312 C-56.57576023 10.48440456 -49.94344198 9.73057598 -43 10 C-43 8.35 -43 6.7 -43 5 C-36.9453125 4.21875 -36.9453125 4.21875 -34 4 C-33.29278809 3.86352051 -32.58557617 3.72704102 -31.85693359 3.58642578 C-27.36893007 3.04185632 -24.88283096 3.37436703 -21.13232422 6.03222656 C-18.07180574 8.87125005 -15.21231924 11.81732473 -12.375 14.875 C-11.36291504 15.92014057 -10.34860745 16.96313364 -9.33203125 18.00390625 C-2 25.60599334 -2 25.60599334 -2 28 C-1.34 28 -0.68 28 0 28 C0 18.76 0 9.52 0 0 Z " fill="#F9F9FA" transform="translate(251,204)"/>
<path d="M0 0 C0 0.66 0 1.32 0 2 C-0.77601563 2.38929687 -1.55203125 2.77859375 -2.3515625 3.1796875 C-24.91481223 14.86518915 -41.92239481 31.20399136 -55 53 C-43.12 53.33 -31.24 53.66 -19 54 C-19 56.64 -19 59.28 -19 62 C-15.7 62 -12.4 62 -9 62 C-9 59.69 -9 57.38 -9 55 C-8.34 55.33 -7.68 55.66 -7 56 C-7.33 108.47 -7.66 160.94 -8 215 C-8.33 215 -8.66 215 -9 215 C-9 205.76 -9 196.52 -9 187 C-12.3 187 -15.6 187 -19 187 C-19 196.24 -19 205.48 -19 215 C-19.66 214.67 -20.32 214.34 -21 214 C-20.505 135.295 -20.505 135.295 -20 55 C-32.54 55 -45.08 55 -58 55 C-58 82.72 -58 110.44 -58 139 C-58.33 139 -58.66 139 -59 139 C-59.33 114.25 -59.66 89.5 -60 64 C-60.66 65.65 -61.32 67.3 -62 69 C-62.52207031 68.81824219 -63.04414063 68.63648437 -63.58203125 68.44921875 C-69.65749813 66.37440957 -75.79305783 64.63584831 -82 63 C-69.3023593 34.91580645 -46.40146741 15.83840106 -18.33984375 4.25390625 C-12.28889957 1.98214826 -6.4938001 0 0 0 Z " fill="#6BA1CA" transform="translate(270,17)"/>
<path d="M0 0 C1.80198785 0.27016891 3.60407001 0.53970954 5.40625 0.80859375 C6.19322266 0.92904053 6.98019531 1.0494873 7.79101562 1.17358398 C14.4721141 2.13275755 21.06427262 2.79887133 27.8046875 3.109375 C29.15661697 3.17182404 29.15661697 3.17182404 30.53585815 3.23553467 C42.56120239 3.74427033 54.59046275 3.80373835 66.625 3.8125 C67.8490152 3.81417175 69.0730304 3.81584351 70.33413696 3.81756592 C92.68820922 3.81938647 114.57828384 2.58198151 136.75390625 -0.22265625 C147.88100339 -1.57740091 159.12105811 -2.48877567 168.90234375 4.20703125 C169.42957031 4.65433594 169.95679688 5.10164063 170.5 5.5625 C161.12728909 9.36662274 151.63086385 11.49458549 141.6875 13.25 C140.58253174 13.45197998 139.47756348 13.65395996 138.33911133 13.86206055 C115.97598471 17.63130293 93.35092566 17.87105165 70.734375 17.75811768 C67.99552999 17.74725572 65.25673371 17.74770079 62.5178709 17.74810886 C42.20114172 17.74749367 21.9485338 17.70798879 1.8125 14.75 C0.58644043 14.57476807 -0.63961914 14.39953613 -1.90283203 14.21899414 C-8.93743194 13.18171697 -15.92726409 12.01747516 -22.875 10.5 C-23.56295654 10.35006592 -24.25091309 10.20013184 -24.9597168 10.0456543 C-29.40619388 9.00024783 -33.36244993 7.44952219 -37.5 5.5625 C-36.5 3.5625 -36.5 3.5625 -34.49609375 2.78125 C-31.83287117 2.03310808 -29.16974245 1.28708903 -26.5 0.5625 C-25.78714844 0.35238281 -25.07429687 0.14226562 -24.33984375 -0.07421875 C-16.05817362 -2.39572071 -8.33769667 -1.28594317 0 0 Z " fill="#FAFAFA" transform="translate(189.5,411.4375)"/>
<path d="M0 0 C22.54826484 4.16878697 45.51444831 4.57944372 68.37084961 4.47631836 C72.17836998 4.45927385 75.9852584 4.46938767 79.79275703 4.48664474 C95.83043623 4.54803677 111.73314402 4.1140764 127.71240234 2.68676758 C128.41775431 2.62425182 129.12310627 2.56173607 129.84983253 2.4973259 C137.27025937 1.82405269 144.57077506 0.96588043 151.86836243 -0.55458069 C158.34566162 -1.58250985 164.54627876 0.63399209 170.63818359 2.64770508 C171.36521484 2.88166992 172.09224609 3.11563477 172.84130859 3.35668945 C174.6089862 3.92653289 176.37389329 4.50495912 178.13818359 5.08520508 C177.13818359 7.08520508 177.13818359 7.08520508 175.31005859 7.83129883 C172.59176788 8.60732698 169.87142416 9.36328477 167.13818359 10.08520508 C166.20876953 10.33399414 165.27935547 10.5827832 164.32177734 10.83911133 C154.06487243 13.39330799 143.61297699 14.76838026 133.13818359 16.08520508 C131.85151291 16.25054245 130.56484222 16.41587982 129.23918152 16.58622742 C118.67706292 17.88790655 108.30429206 18.38324369 97.66943359 18.35083008 C96.0535069 18.35218533 94.43758061 18.35413289 92.82165527 18.35662842 C89.46032774 18.35954616 86.09910779 18.35539645 82.73779297 18.34594727 C78.5136859 18.33462692 74.28983295 18.34127249 70.06573486 18.35283184 C-7.7763979 18.53335006 -7.7763979 18.53335006 -29.86181641 6.08520508 C-26.51752252 3.18902997 -23.28158006 2.09447736 -19.04931641 0.89770508 C-17.86724609 0.55352539 -16.68517578 0.2093457 -15.46728516 -0.14526367 C-10.03038365 -1.30568577 -5.40799894 -1.06934129 0 0 Z " fill="#F9F9F9" transform="translate(181.86181640625,314.914794921875)"/>
<path d="M0 0 C1.09119141 0.27424805 2.18238281 0.54849609 3.30664062 0.83105469 C4.75650246 1.19469317 6.2063727 1.55829817 7.65625 1.921875 C8.37329102 2.10218262 9.09033203 2.28249023 9.82910156 2.46826172 C14.86922818 3.73117674 19.91901588 4.91121769 25 6 C24.01 6.495 24.01 6.495 23 7 C23.016286 13.60250489 23.07110528 20.2038882 23.15258789 26.8059082 C23.17576945 29.05127693 23.19016395 31.29675442 23.19555664 33.54223633 C23.2048447 36.77233673 23.24583423 40.00072609 23.29296875 43.23046875 C23.2890361 44.23272995 23.28510345 45.23499115 23.28105164 46.2676239 C23.33530372 52.3069165 23.33530372 52.3069165 26.54418945 57.1730957 C27.35460693 57.77597412 28.16502441 58.37885254 29 59 C22.30468053 58.84688459 16.3145102 57.68985657 10 55.5625 C9.35345459 55.34505127 8.70690918 55.12760254 8.04077148 54.90356445 C5.04511297 53.85344625 2.65862995 52.77241997 0 51 C-0.36076355 48.82333374 -0.36076355 48.82333374 -0.34057617 46.09130859 C-0.34034958 45.07040131 -0.34012299 44.04949402 -0.33988953 42.99765015 C-0.32440567 41.89240997 -0.30892181 40.7871698 -0.29296875 39.6484375 C-0.28872391 38.5192691 -0.28447906 37.39010071 -0.28010559 36.22671509 C-0.26327132 32.60923727 -0.22560975 28.99231031 -0.1875 25.375 C-0.17245934 22.92709136 -0.15876986 20.47917402 -0.14648438 18.03125 C-0.11335227 12.0206444 -0.06310579 6.01036154 0 0 Z " fill="#85848C" transform="translate(149,336)"/>
<path d="M0 0 C0.7460701 0.20555008 1.4921402 0.41110016 2.26081848 0.62287903 C3.7362336 1.02768745 3.7362336 1.02768745 5.24145508 1.44067383 C6.21440018 1.70809891 7.18734528 1.97552399 8.18977356 2.25105286 C11.67285528 3.17932115 15.15830473 3.95370692 18.6875 4.6875 C19.88761719 4.93886719 21.08773437 5.19023437 22.32421875 5.44921875 C23.20722656 5.63097656 24.09023437 5.81273437 25 6 C24.01 6.495 24.01 6.495 23 7 C23.04166405 13.60242799 23.11398504 20.20401267 23.20751953 26.8059082 C23.23572642 29.05127344 23.25694232 31.29673791 23.27099609 33.54223633 C23.29242892 36.77216389 23.33908271 40.00089856 23.390625 43.23046875 C23.39185364 44.23272995 23.39308228 45.23499115 23.39434814 46.2676239 C23.48914033 50.78930331 23.54698511 53.29470119 26.03808594 57.1730957 C26.68551758 57.77597412 27.33294922 58.37885254 28 59 C22.23219134 58.5952415 16.78180904 57.57369026 11.1875 56.125 C9.92292969 55.79757812 8.65835938 55.47015625 7.35546875 55.1328125 C4.16448394 54.05553008 2.40098128 53.30120563 0 51 C-0.48101807 48.70307922 -0.48101807 48.70307922 -0.45410156 45.9777832 C-0.45379944 44.95695145 -0.45349731 43.93611969 -0.45318604 42.88435364 C-0.43254089 41.78427475 -0.41189575 40.68419586 -0.390625 39.55078125 C-0.38496521 38.4230278 -0.37930542 37.29527435 -0.37347412 36.13334656 C-0.35105631 32.52596865 -0.30084784 28.91957847 -0.25 25.3125 C-0.22994209 22.86915495 -0.21169009 20.42579436 -0.1953125 17.98242188 C-0.15117379 11.98794338 -0.08420731 5.99404224 0 0 Z " fill="#85848C" transform="translate(149,240)"/>
<path d="M0 0 C17 4 17 4 23 6 C23.00364563 6.5902446 23.00729126 7.1804892 23.01104736 7.78862 C23.05288825 13.93719728 23.1222449 20.08502919 23.20751953 26.2331543 C23.23572882 28.52702374 23.25694353 30.82099038 23.27099609 33.11499023 C23.29242551 36.41440593 23.33907783 39.71265302 23.390625 43.01171875 C23.39185364 44.03585373 23.39308228 45.05998871 23.39434814 46.11515808 C23.50888687 51.97498525 23.50888687 51.97498525 26.03808594 57.18676758 C26.68551758 57.78513428 27.33294922 58.38350098 28 59 C18.22984953 58.48578155 8.72653893 55.36326947 0 51 C0 34.17 0 17.34 0 0 Z " fill="#85848C" transform="translate(149,432)"/>
<path d="M0 0 C0 0.66 0 1.32 0 2 C-0.77601563 2.38929687 -1.55203125 2.77859375 -2.3515625 3.1796875 C-24.26472046 14.52850678 -41.17916115 30.31716578 -54.08203125 51.40234375 C-54.71496094 52.25957031 -55.34789062 53.11679688 -56 54 C-56.99 54 -57.98 54 -59 54 C-58.9071875 55.485 -58.9071875 55.485 -58.8125 57 C-58.78508355 61.46888211 -60.2791773 64.91304608 -62 69 C-62.52207031 68.81824219 -63.04414063 68.63648437 -63.58203125 68.44921875 C-69.65749813 66.37440957 -75.79305783 64.63584831 -82 63 C-69.3023593 34.91580645 -46.40146741 15.83840106 -18.33984375 4.25390625 C-12.28889957 1.98214826 -6.4938001 0 0 0 Z " fill="#76B6E7" transform="translate(270,17)"/>
<path d="M0 0 C3.3 0 6.6 0 10 0 C10 36.3 10 72.6 10 110 C2.11138867 103.23833314 2.11138867 103.23833314 -1.62109375 99.51171875 C-2.41064453 98.72345703 -3.20019531 97.93519531 -4.01367188 97.12304688 C-4.81353516 96.31931641 -5.61339844 95.51558594 -6.4375 94.6875 C-7.26443359 93.86443359 -8.09136719 93.04136719 -8.94335938 92.19335938 C-10.11415039 91.02063477 -10.11415039 91.02063477 -11.30859375 89.82421875 C-12.01814209 89.11354248 -12.72769043 88.40286621 -13.45874023 87.6706543 C-15 86 -15 86 -15 85 C-10.05 85 -5.1 85 0 85 C0 56.95 0 28.9 0 0 Z " fill="#5096EA" transform="translate(226,86)"/>
<path d="M0 0 C5.08938811 1.59043379 8.87456643 4.7446951 13 8 C2.42170588 26.51201471 -17.35592337 36.51128531 -37.21484375 42.01953125 C-44.07808089 43.79731507 -49.9037223 44.08549732 -57 44 C-57 39.05 -57 34.1 -57 29 C-54.03 28.6596875 -54.03 28.6596875 -51 28.3125 C-30.40191296 25.31641461 -12.94122864 16.82359724 0 0 Z " fill="#FDFEFE" transform="translate(457,275)"/>
<path d="M0 0 C7.88862073 6.76167491 7.88862073 6.76167491 11.40234375 10.26953125 C12.51899414 11.38424805 12.51899414 11.38424805 13.65820312 12.52148438 C14.41037109 13.27751953 15.16253906 14.03355469 15.9375 14.8125 C16.71673828 15.58787109 17.49597656 16.36324219 18.29882812 17.16210938 C19.03423828 17.89880859 19.76964844 18.63550781 20.52734375 19.39453125 C21.19499756 20.06331299 21.86265137 20.73209473 22.55053711 21.42114258 C24 23 24 23 24 24 C19.05 24 14.1 24 9 24 C9 51.72 9 79.44 9 108 C6.03 108 3.06 108 0 108 C0 72.36 0 36.72 0 0 Z " fill="#D0F47A" transform="translate(277,109)"/>
<path d="M0 0 C-0.99 0.66 -1.98 1.32 -3 2 C-8.57117145 6.39516724 -13.11216195 11.0579908 -17 17 C-17.38027344 17.556875 -17.76054687 18.11375 -18.15234375 18.6875 C-22.25940291 25.63075474 -22.82324402 34.15496014 -24 42 C-24.75023437 42.04898438 -25.50046875 42.09796875 -26.2734375 42.1484375 C-32.98603585 42.63877844 -39.43761499 43.50458926 -46 45 C-46.58482662 30.79087911 -46.58482662 30.79087911 -43 24 C-42.58621094 23.18789062 -42.17242187 22.37578125 -41.74609375 21.5390625 C-36.06452472 11.22864023 -27.891503 4.91823688 -16.71484375 1.25 C-11.15321932 -0.16247604 -5.71048251 -0.21459016 0 0 Z " fill="#76B6E7" transform="translate(159,87)"/>
<path d="M0 0 C3.96 0 7.92 0 12 0 C12.16757731 7.75947557 12.3281415 15.51905238 12.48217773 23.27880859 C12.53558187 25.91914791 12.59090998 28.55944903 12.64819336 31.19970703 C12.73014809 34.99242925 12.80520677 38.78523451 12.87890625 42.578125 C12.90594131 43.76053772 12.93297638 44.94295044 12.96083069 46.16119385 C12.98092697 47.26203308 13.00102325 48.36287231 13.02172852 49.49707031 C13.04171402 50.46525696 13.06169952 51.4334436 13.08229065 52.43096924 C13 55 13 55 12 59 C8.04 58.67 4.08 58.34 0 58 C0 38.86 0 19.72 0 0 Z " fill="#78B8EA" transform="translate(301,148)"/>
<path d="M0 0 C0.50961846 1.39235043 1.00724909 2.78909118 1.5 4.1875 C1.7784375 4.96480469 2.056875 5.74210937 2.34375 6.54296875 C3.03687348 9.13805606 3.04671827 11.32732563 3 14 C-5.90905325 16.45799132 -14.78118242 17.98383063 -23.9375 19.1875 C-25.22462891 19.36474609 -26.51175781 19.54199219 -27.83789062 19.72460938 C-32.96460168 20.41582133 -37.81642827 21 -43 21 C-43 16.05 -43 11.1 -43 6 C-35.97125045 4.48611548 -28.96330305 3.41818762 -21.83203125 2.5078125 C-17.14031664 1.88607662 -12.47370978 1.13941765 -7.8046875 0.3671875 C-5.16342365 0.0213953 -2.65967962 -0.06819691 0 0 Z " fill="#FDFDFD" transform="translate(349,464)"/>
<path d="M0 0 C0.50692692 1.5811292 1.00526443 3.16501383 1.5 4.75 C1.7784375 5.63171875 2.056875 6.5134375 2.34375 7.421875 C3 10 3 10 3 14 C-6.10586203 16.87476734 -15.08857485 18.58445411 -24.5625 19.75 C-25.59697266 19.87737549 -26.63144531 20.00475098 -27.69726562 20.13598633 C-32.48719301 20.69332703 -37.1684818 21.16518011 -42 21 C-42.33776684 19.2508503 -42.67003671 17.50063855 -43 15.75 C-43.185625 14.77546875 -43.37125 13.8009375 -43.5625 12.796875 C-44 10 -44 10 -44 6 C-43.04299194 5.88724731 -43.04299194 5.88724731 -42.06665039 5.7722168 C-30.6915971 4.42093768 -19.35035496 3.05155286 -8.09204102 0.91479492 C-5.33390576 0.39298555 -2.81680549 0 0 0 Z " fill="#FDFDFD" transform="translate(349,272)"/>
<path d="M0 0 C0.53293835 1.74635165 1.05090663 3.49727652 1.5625 5.25 C1.85253906 6.22453125 2.14257812 7.1990625 2.44140625 8.203125 C3.00631944 11.03164137 2.78911648 12.30742365 2 15 C-33.43231441 21 -33.43231441 21 -43 21 C-43 16.05 -43 11.1 -43 6 C-35.59148013 4.70350902 -28.20233514 3.63648488 -20.73681641 2.75488281 C-17.05983686 2.30558273 -13.47727088 1.73760112 -9.875 0.875 C-6.4158223 0.09389536 -3.52448804 -0.18074298 0 0 Z " fill="#FDFDFD" transform="translate(349,368)"/>
<path d="M0 0 C0.33 0.66 0.66 1.32 1 2 C2.85646148 2.39494817 2.85646148 2.39494817 5.0625 2.5 C14.42566148 3.37133522 22.73079253 6.36539626 31.125 10.5625 C34.21358461 14.57766 33.37862556 19.11993718 33 24 C29.7 24 26.4 24 23 24 C23 26.64 23 29.28 23 32 C19.04 32 15.08 32 11 32 C10.96261719 30.85402344 10.92523438 29.70804687 10.88671875 28.52734375 C10.82101416 26.99736554 10.75456841 25.46741903 10.6875 23.9375 C10.66494141 23.18533203 10.64238281 22.43316406 10.61914062 21.65820312 C10.37095853 16.44637914 9.42830731 12.63906651 7 8 C4.58119071 5.73122465 4.58119071 5.73122465 2 4 C0.9826127 3.01769502 -0.02596117 2.02530403 -1 1 C-0.67 0.67 -0.34 0.34 0 0 Z " fill="#78B8E9" transform="translate(367,305)"/>
<path d="M0 0 C6.16250171 5.05955396 11.77695405 10.62418363 17.39746094 16.26708984 C18.99303722 17.86801389 20.5938734 19.46353684 22.1953125 21.05859375 C27.12941916 25.98982508 31.95407292 30.96421132 36.48876953 36.27050781 C39.29682702 39.4841232 42.37548604 42.41632301 45.43164062 45.39257812 C46.63761563 46.57848143 47.82119358 47.78708707 49 49 C49 49.33 49 49.66 49 50 C45.86946964 50.97247322 44.18766194 51.41782416 41 51 C37.17349275 48.59381941 34.15425227 45.43881052 30.99609375 42.2265625 C30.07280777 41.31425873 29.14952179 40.40195496 28.19825745 39.46200562 C26.24945329 37.53094918 24.31804187 35.58436485 22.3972168 33.62548828 C19.94054662 31.12315661 17.44362181 28.66609775 14.93173122 26.21935463 C12.53317266 23.87058943 10.17306919 21.48463885 7.80859375 19.1015625 C6.90983017 18.22617828 6.01106659 17.35079407 5.08506775 16.44888306 C-0.84133709 10.31676611 -0.84133709 10.31676611 -1.31686401 6.37030029 C-1.07817676 4.12827571 -0.70053579 2.13917182 0 0 Z " fill="#77B6E6" transform="translate(289,90)"/>
<path d="M0 0 C9 0 9 0 12 1 C12 3.64 12 6.28 12 9 C12.59167969 8.98839844 13.18335938 8.97679687 13.79296875 8.96484375 C18.00231785 8.91677614 21.8922333 8.93993117 26 10 C25.01 10.66 24.02 11.32 23 12 C22.67 14.31 22.34 16.62 22 19 C14.74 19 7.48 19 0 19 C0 12.73 0 6.46 0 0 Z " fill="#D6D5D8" transform="translate(301,206)"/>
<path d="M0 0 C4.95 0 9.9 0 15 0 C15.08441199 5.48677955 14.92037377 10.59280411 14 16 C11.87465341 15.85930804 9.74972471 15.71229079 7.625 15.5625 C6.44164062 15.48128906 5.25828125 15.40007812 4.0390625 15.31640625 C1 15 1 15 -1 14 C-0.67 9.38 -0.34 4.76 0 0 Z " fill="#FBFDFE" transform="translate(472,232)"/>
<path d="M0 0 C2.041875 0.0309375 2.041875 0.0309375 4.125 0.0625 C4.125 5.0125 4.125 9.9625 4.125 15.0625 C-0.825 15.3925 -5.775 15.7225 -10.875 16.0625 C-10.875 11.1125 -10.875 6.1625 -10.875 1.0625 C-6.91591662 0.40265277 -3.87795662 -0.05875692 0 0 Z " fill="#FCFCFD" transform="translate(291.875,278.9375)"/>
<path d="M0 0 C4.95 0 9.9 0 15 0 C15 4.95 15 9.9 15 15 C10.05 15 5.1 15 0 15 C0 10.05 0 5.1 0 0 Z " fill="#FDFDFD" transform="translate(281,471)"/>
<path d="M0 0 C4.95 0 9.9 0 15 0 C15 4.95 15 9.9 15 15 C10.05 15 5.1 15 0 15 C0 10.05 0 5.1 0 0 Z " fill="#FEFEFE" transform="translate(256,472)"/>
<path d="M0 0 C4.95 0 9.9 0 15 0 C15 4.95 15 9.9 15 15 C10.05 15 5.1 15 0 15 C0 10.05 0 5.1 0 0 Z " fill="#FEFEFE" transform="translate(256,376)"/>
<path d="M0 0 C4.95 0 9.9 0 15 0 C15 4.95 15 9.9 15 15 C10.05 15 5.1 15 0 15 C0 10.05 0 5.1 0 0 Z " fill="#FCFCFD" transform="translate(281,375)"/>
<path d="M0 0 C4.95 0 9.9 0 15 0 C15 4.95 15 9.9 15 15 C10.05 15 5.1 15 0 15 C0 10.05 0 5.1 0 0 Z " fill="#FDFDFD" transform="translate(256,280)"/>
<path d="M0 0 C9.57142857 2 9.57142857 2 14 4 C13.43174347 9.54050113 11.37113483 14.03715966 9 19 C3.63283891 17.5240307 -0.38468216 15.02382893 -5 12 C-3.35 8.04 -1.7 4.08 0 0 Z " fill="#FCFDFE" transform="translate(468,255)"/>
<path d="M0 0 C-0.680625 0.721875 -1.36125 1.44375 -2.0625 2.1875 C-4.24228661 4.78249487 -4.24228661 4.78249487 -4 7.5625 C-2.8239412 10.42914332 -1.32031952 11.97907654 1 14 C-4.0252295 13.36940846 -8.78396094 12.37639065 -13.6875 11.0625 C-14.33783203 10.89298828 -14.98816406 10.72347656 -15.65820312 10.54882812 C-18.9696833 9.66104088 -22.00843248 8.68891027 -25 7 C-21.65570611 4.1038249 -18.41976365 3.00927228 -14.1875 1.8125 C-13.00542969 1.46832031 -11.82335937 1.12414062 -10.60546875 0.76953125 C-6.95835526 -0.00888842 -3.71693137 -0.13801666 0 0 Z " fill="#CBCACD" transform="translate(177,314)"/>
<path d="M0 0 C-0.680625 0.556875 -1.36125 1.11375 -2.0625 1.6875 C-4.28024162 3.81682712 -4.28024162 3.81682712 -3.9375 6.5 C-2.96351395 9.09729612 -1.79200849 10.89633786 0 13 C-5.04099458 12.37314057 -9.85085474 11.35487384 -14.75 10 C-15.40871094 9.82210937 -16.06742188 9.64421875 -16.74609375 9.4609375 C-19.52456433 8.70573454 -22.26790455 7.91069848 -25 7 C-25 6.34 -25 5.68 -25 5 C-22.62683882 4.18177267 -20.2517058 3.37031293 -17.875 2.5625 C-17.20984375 2.33240234 -16.5446875 2.10230469 -15.859375 1.86523438 C-5.11253874 -1.76972495 -5.11253874 -1.76972495 0 0 Z " fill="#CECDD0" transform="translate(177,219)"/>
<path d="M0 0 C-0.61875 0.28875 -1.2375 0.5775 -1.875 0.875 C-4.13325765 1.93720042 -4.13325765 1.93720042 -6 4 C-5.73138708 8.20826906 -5.09547238 10.2048969 -2 13 C-20.58993548 11.45083871 -20.58993548 11.45083871 -27 6 C-18.99933972 1.19960383 -9.23510853 -0.54324168 0 0 Z " fill="#CDCCCF" transform="translate(179,410)"/>
<path d="M0 0 C0.48919922 0.75216797 0.48919922 0.75216797 0.98828125 1.51953125 C-5.07868574 2.28993976 -10.89686848 2.61659237 -17.01171875 2.51953125 C-17.01171875 4.16953125 -17.01171875 5.81953125 -17.01171875 7.51953125 C-17.34171875 7.51953125 -17.67171875 7.51953125 -18.01171875 7.51953125 C-18.01171875 4.87953125 -18.01171875 2.23953125 -18.01171875 -0.48046875 C-15.40807466 -0.72914822 -12.80581981 -0.95504777 -10.19921875 -1.16796875 C-9.09223633 -1.2772168 -9.09223633 -1.2772168 -7.96289062 -1.38867188 C-2.46197113 -1.81181953 -2.46197113 -1.81181953 0 0 Z " fill="#CCCBCE" transform="translate(225.01171875,206.48046875)"/>
</svg>
