<?xml version="1.0" encoding="UTF-8"?>
<svg version="1.1" xmlns="http://www.w3.org/2000/svg" width="1280" height="1408">
<path d="M0 0 C0.90186035 0.17692383 1.8037207 0.35384766 2.73291016 0.53613281 C9.20599895 1.83501287 15.60888488 3.34657126 22 5 C22.82000488 5.20963379 23.64000977 5.41926758 24.48486328 5.63525391 C53.76086258 13.29169101 80.087102 27.60393816 105.546875 43.59765625 C111.33763541 47.22898946 117.19489091 50.7446094 123.0625 54.25 C131.99812237 59.59408313 140.91509391 64.96761461 149.8125 70.375 C150.3953476 70.72913971 150.97819519 71.08327942 151.57870483 71.44815063 C156.88045774 74.6696781 162.18093505 77.89330159 167.48095703 81.11767578 C170.94515295 83.22508224 174.40982421 85.33170512 177.875 87.4375 C178.44900543 87.7863324 179.02301086 88.13516479 179.6144104 88.49456787 C188.72374695 94.02854361 197.85655308 99.52259946 207 105 C216.72551328 110.82608858 226.43667848 116.6747501 236.125 122.5625 C236.69795807 122.91068787 237.27091614 123.25887573 237.86123657 123.61761475 C241.32619202 125.72363139 244.79049142 127.83072537 248.25457764 129.93817139 C253.56466842 133.16856791 258.87555321 136.39765631 264.1875 139.625 C264.77001526 139.97893829 265.35253052 140.33287659 265.95269775 140.69754028 C274.11925932 145.65826943 282.30246044 150.59059187 290.5 155.5 C299.28824491 160.76317447 308.05811916 166.05575599 316.8125 171.375 C317.68523056 171.90525787 317.68523056 171.90525787 318.57559204 172.44622803 C323.3114847 175.32406195 328.04632542 178.20362496 332.78112793 181.08325195 C336.9160974 183.59797113 341.0514765 186.11201475 345.1875 188.625 C345.76956207 188.97866638 346.35162415 189.33233276 346.95132446 189.69671631 C355.11834459 194.65771873 363.3020025 199.59031762 371.5 204.5 C380.28824491 209.76317447 389.05811916 215.05575599 397.8125 220.375 C398.39432037 220.72850525 398.97614075 221.0820105 399.57559204 221.44622803 C404.3114847 224.32406195 409.04632542 227.20362496 413.78112793 230.08325195 C417.32935449 232.24113811 420.87786155 234.39856152 424.42687988 236.55514526 C425.59873071 237.26722968 426.77052452 237.97940793 427.94226074 238.69168091 C435.24032661 243.12716312 442.5542024 247.53510333 449.88623047 251.91430664 C483.36559273 271.92214996 516.1192392 293.46617659 540 325 C540.76860352 325.99459229 540.76860352 325.99459229 541.55273438 327.00927734 C560.28408445 351.2991609 575.05824648 378.58467469 584 408 C584.26506348 408.86657227 584.53012695 409.73314453 584.80322266 410.62597656 C588.98020969 424.51905338 592.08580053 438.61259071 594 453 C594.08298143 453.59344485 594.16596286 454.1868897 594.25145888 454.79831773 C595.34603075 463.87433872 595.14527527 472.99284471 595.14044189 482.11857605 C595.14302825 484.07422024 595.14604216 486.0298639 595.1494453 487.98550683 C595.15748713 493.345661 595.1593033 498.70580176 595.16004276 504.06596124 C595.16189829 509.85292249 595.16944823 515.63987686 595.17617798 521.42683411 C595.18974284 534.07614222 595.19578343 546.72544716 595.20018864 559.37476134 C595.20295476 567.2804488 595.20719285 575.18613504 595.21169281 583.09182167 C595.22388416 605.00045159 595.23421836 626.9090805 595.2375679 648.81771374 C595.23778953 650.23331557 595.23801131 651.64891741 595.23823325 653.06451925 C595.23845389 654.483427 595.23867437 655.90233476 595.2388947 657.32124251 C595.23933724 660.16753082 595.23978436 663.01381912 595.24023438 665.86010742 C595.24034377 666.56581622 595.24045316 667.27152502 595.24056586 667.99861894 C595.24419283 690.85789945 595.26010009 713.71714818 595.28342474 736.57641653 C595.3080742 760.77860654 595.32174316 784.9807784 595.32293582 809.18298131 C595.32378462 822.3622053 595.32954806 835.54138945 595.34775543 848.72060204 C595.36321148 859.94755694 595.36824462 871.17445738 595.36001733 882.40142091 C595.35612996 888.12170851 595.35694605 893.84188661 595.37107468 899.56216049 C595.47425506 943.86163113 595.47425506 943.86163113 592 962 C591.65280851 963.92702397 591.65280851 963.92702397 591.29860306 965.89297771 C590.73516032 968.89065871 590.08552324 971.84651964 589.375 974.8125 C589.11976562 975.88395264 588.86453125 976.95540527 588.6015625 978.05932617 C581.53979648 1006.59993654 569.7673376 1034.73969343 553 1059 C552.59861816 1059.59232422 552.19723633 1060.18464844 551.78369141 1060.79492188 C545.74414551 1069.68321992 539.08855106 1077.93160026 532 1086 C531.23816406 1086.87398437 530.47632813 1087.74796875 529.69140625 1088.6484375 C520.84811014 1098.64246555 511.51743608 1107.78160146 501 1116 C499.75516978 1116.99734772 498.51038069 1117.99474677 497.265625 1118.9921875 C486.38936106 1127.606 474.8993415 1134.89110021 463 1142 C461.40076907 1142.96178647 459.80180305 1143.92401357 458.203125 1144.88671875 C454.9599582 1146.83695863 451.71321243 1148.78109535 448.46484375 1150.72265625 C442.12652974 1154.51672572 435.81287397 1158.35132067 429.5 1162.1875 C428.90895477 1162.54662476 428.31790955 1162.90574951 427.70895386 1163.27575684 C424.68208524 1165.11500971 421.65543904 1166.95462816 418.62890625 1168.79443359 C415.07620657 1170.95392939 411.52263723 1173.11199047 407.96875 1175.26953125 C407.39308792 1175.61901321 406.81742584 1175.96849518 406.22431946 1176.3285675 C403.90131861 1177.73880323 401.57827881 1179.14897476 399.25521851 1180.55911255 C393.39345867 1184.11733954 387.53196038 1187.67598845 381.67300415 1191.23883057 C368.94672524 1198.97762756 356.20456625 1206.68805167 343.42626953 1214.34082031 C335.66418 1218.99292952 327.92118571 1223.67589408 320.1875 1228.375 C319.60734131 1228.72750824 319.02718262 1229.08001648 318.42944336 1229.44320679 C314.8849839 1231.59714092 311.34106614 1233.75196517 307.79730225 1235.90704346 C302.36562056 1239.21010061 296.933221 1242.51197549 291.5 1245.8125 C290.90988129 1246.17100037 290.31976257 1246.52950073 289.71176147 1246.89886475 C281.70233881 1251.76364322 273.67746368 1256.601733 265.63671875 1261.41455078 C258.5749899 1265.64559874 251.53564144 1269.91326852 244.5 1274.1875 C243.910979 1274.54532562 243.32195801 1274.90315125 242.71508789 1275.27182007 C238.47627017 1277.84713148 234.23807026 1280.42345875 230 1283 C225.16708024 1285.93818091 220.33390522 1288.8759406 215.5 1291.8125 C214.61550171 1292.34984268 214.61550171 1292.34984268 213.71313477 1292.89804077 C205.70325362 1297.76309264 197.67792168 1302.60145886 189.63671875 1307.41455078 C182.5749899 1311.64559874 175.53564144 1315.91326852 168.5 1320.1875 C167.910979 1320.54532562 167.32195801 1320.90315125 166.71508789 1321.27182007 C162.47627017 1323.84713148 158.23807026 1326.42345875 154 1329 C124.77810157 1346.76549752 124.77810157 1346.76549752 111.0625 1354.96484375 C107.30362556 1357.21340244 103.5564319 1359.48055864 99.8125 1361.75390625 C66.67819717 1381.84249926 32.70696672 1397.31450699 -6 1403 C-7.80694336 1403.26598999 -7.80694336 1403.26598999 -9.65039062 1403.53735352 C-21.3076731 1405.13632494 -32.87186066 1405.35840972 -44.625 1405.3125 C-45.59455627 1405.31067719 -46.56411255 1405.30885437 -47.56304932 1405.30697632 C-61.89479259 1405.26162737 -75.90895512 1404.84295422 -90 1402 C-90.90186035 1401.82307617 -91.8037207 1401.64615234 -92.73291016 1401.46386719 C-99.20599895 1400.16498713 -105.60888488 1398.65342874 -112 1397 C-113.23000732 1396.68554932 -113.23000732 1396.68554932 -114.48486328 1396.36474609 C-143.63342982 1388.74163598 -169.86213748 1374.52276366 -195.21484375 1358.6015625 C-201.94080641 1354.39001152 -208.75151401 1350.32176864 -215.5625 1346.25 C-218.14484385 1344.70494894 -220.72684026 1343.15931857 -223.30859375 1341.61328125 C-224.27170471 1341.03654915 -224.27170471 1341.03654915 -225.25427246 1340.44816589 C-231.89311222 1336.46972662 -238.51139565 1332.45771234 -245.125 1328.4375 C-245.69566193 1328.09067169 -246.26632385 1327.74384338 -246.85427856 1327.38650513 C-250.31613003 1325.28229762 -253.7773431 1323.17704183 -257.23840332 1321.0715332 C-262.65783055 1317.77503731 -268.07859099 1314.48073545 -273.5 1311.1875 C-274.0905719 1310.82872772 -274.6811438 1310.46995544 -275.28961182 1310.10031128 C-282.51383012 1305.71244714 -289.74751226 1301.34100351 -297 1297 C-304.85139943 1292.30051567 -312.67966279 1287.56344301 -320.5 1282.8125 C-321.089021 1282.45467438 -321.67804199 1282.09684875 -322.28491211 1281.72817993 C-327.13484021 1278.78158585 -331.98393496 1275.83362132 -336.83300781 1272.88562012 C-341.05495902 1270.31895524 -345.27722201 1267.75280442 -349.5 1265.1875 C-350.08966553 1264.82927155 -350.67933105 1264.47104309 -351.28686523 1264.10195923 C-358.51200006 1259.71354759 -365.74659626 1255.34155178 -373 1251 C-380.85139943 1246.30051567 -388.67966279 1241.56344301 -396.5 1236.8125 C-397.089021 1236.45467438 -397.67804199 1236.09684875 -398.28491211 1235.72817993 C-403.13484021 1232.78158585 -407.98393496 1229.83362132 -412.83300781 1226.88562012 C-417.05495902 1224.31895524 -421.27722201 1221.75280442 -425.5 1219.1875 C-426.08966553 1218.82927155 -426.67933105 1218.47104309 -427.28686523 1218.10195923 C-434.51200006 1213.71354759 -441.74659626 1209.34155178 -449 1205 C-456.85139943 1200.30051567 -464.67966279 1195.56344301 -472.5 1190.8125 C-473.089021 1190.45467438 -473.67804199 1190.09684875 -474.28491211 1189.72817993 C-479.13484021 1186.78158585 -483.98393496 1183.83362132 -488.83300781 1180.88562012 C-493.05495902 1178.31895524 -497.27722201 1175.75280442 -501.5 1173.1875 C-502.08966553 1172.82927155 -502.67933105 1172.47104309 -503.28686523 1172.10195923 C-510.51200282 1167.71354591 -517.74685327 1163.34198408 -525 1159 C-602.20043143 1112.73463635 -602.20043143 1112.73463635 -629 1078 C-630.17755859 1076.53046875 -630.17755859 1076.53046875 -631.37890625 1075.03125 C-649.16163981 1052.70026059 -662.98438753 1027.07362177 -672 1000 C-672.27247559 999.19079102 -672.54495117 998.38158203 -672.82568359 997.54785156 C-676.06719326 987.77063097 -678.60334585 977.88489249 -680.75 967.8125 C-680.94875732 966.88783936 -681.14751465 965.96317871 -681.35229492 965.01049805 C-684.46470699 949.69124054 -685.29520894 934.62468586 -685.26069641 919.03964233 C-685.26372379 917.07795588 -685.26761618 915.11627061 -685.27228898 913.15458739 C-685.28250241 907.81023066 -685.28040426 902.46594151 -685.27610838 897.12157941 C-685.27362895 891.33950927 -685.28267043 885.55745489 -685.29014587 879.77539062 C-685.30286171 868.46484581 -685.30469042 857.15432477 -685.30234561 845.84377401 C-685.30055861 836.6438592 -685.30232027 827.44395158 -685.30657005 818.24403763 C-685.30716524 816.93190963 -685.30776043 815.61978164 -685.30837366 814.26789219 C-685.30928165 812.27024318 -685.31018966 810.27259417 -685.31110601 808.27494516 C-685.3195267 789.71908531 -685.32387741 771.16322806 -685.31969929 752.60736656 C-685.31954291 751.90892737 -685.31938654 751.21048819 -685.31922542 750.49088417 C-685.31841973 746.9515539 -685.31757396 743.41222364 -685.31671212 739.87289338 C-685.31654103 739.17007141 -685.31636994 738.46724945 -685.31619367 737.74312985 C-685.31584701 736.32185507 -685.31549848 734.90058029 -685.31514808 733.47930551 C-685.30979382 711.3763246 -685.31771655 689.27338362 -685.33618164 667.17041016 C-685.35694222 642.29104369 -685.36761655 617.41170195 -685.36360615 592.53232634 C-685.36169838 579.37668363 -685.36414018 566.22107727 -685.37832069 553.06544113 C-685.39027295 541.86427037 -685.39159652 530.66315833 -685.37953053 519.46198671 C-685.37366844 513.7558302 -685.37246787 508.04978091 -685.38453293 502.34363174 C-685.47192085 458.01510289 -685.47192085 458.01510289 -682 440 C-681.8756513 439.32530316 -681.7513026 438.65060632 -681.62318575 437.95546412 C-680.93376953 434.23318491 -680.14209595 430.5538981 -679.25 426.875 C-678.99395996 425.79863281 -678.73791992 424.72226562 -678.47412109 423.61328125 C-670.95471232 392.90109691 -657.68800294 362.59411066 -639 337 C-638.60103516 336.45230957 -638.20207031 335.90461914 -637.79101562 335.34033203 C-634.95419861 331.48367702 -632.01399341 327.71949113 -629 324 C-628.55462891 323.45021484 -628.10925781 322.90042969 -627.65039062 322.33398438 C-616.43397759 308.61800397 -604.05742931 295.81498576 -590 285 C-588.56720703 283.84177734 -588.56720703 283.84177734 -587.10546875 282.66015625 C-577.88703017 275.32019195 -568.0441026 269.14157336 -558 263 C-556.94796387 262.35611328 -555.89592773 261.71222656 -554.81201172 261.04882812 C-541.393148 252.84895014 -527.91970923 244.74056189 -514.4284668 236.66040039 C-506.6655522 232.00803787 -498.92192166 227.32450724 -491.1875 222.625 C-490.60567963 222.27149475 -490.02385925 221.9179895 -489.42440796 221.55377197 C-485.28236132 219.0367972 -481.14109321 216.51854301 -477 214 C-472.27136534 211.12412419 -467.54239057 208.24880989 -462.8125 205.375 C-462.23043793 205.02133362 -461.64837585 204.66766724 -461.04867554 204.30328369 C-451.8609154 198.72223949 -442.64886177 193.18247957 -433.42626953 187.65917969 C-425.6641797 183.0070703 -417.9212062 178.32407252 -410.1875 173.625 C-409.60567963 173.27149475 -409.02385925 172.9179895 -408.42440796 172.55377197 C-404.28236132 170.0367972 -400.14109321 167.51854301 -396 165 C-391.27136534 162.12412419 -386.54239057 159.24880989 -381.8125 156.375 C-381.23043793 156.02133362 -380.64837585 155.66766724 -380.04867554 155.30328369 C-370.8609154 149.72223949 -361.64886177 144.18247957 -352.42626953 138.65917969 C-344.6641797 134.0070703 -336.9212062 129.32407252 -329.1875 124.625 C-328.60567963 124.27149475 -328.02385925 123.9179895 -327.42440796 123.55377197 C-323.28236132 121.0367972 -319.14109321 118.51854301 -315 116 C-310.27136534 113.12412419 -305.54239057 110.24880989 -300.8125 107.375 C-300.23043793 107.02133362 -299.64837585 106.66766724 -299.04867554 106.30328369 C-289.8609154 100.72223949 -280.64886177 95.18247957 -271.42626953 89.65917969 C-263.6641797 85.0070703 -255.9212062 80.32407252 -248.1875 75.625 C-247.60567963 75.27149475 -247.02385925 74.9179895 -246.42440796 74.55377197 C-242.28236132 72.0367972 -238.14109321 69.51854301 -234 67 C-197.93213433 45.06413269 -197.93213433 45.06413269 -183.89599609 36.72265625 C-182.01121155 35.60150976 -180.12860146 34.47669696 -178.24853516 33.34765625 C-150.63729725 16.80417146 -121.5226895 6.2669166 -90 0 C-89.113125 -0.18079102 -88.22625 -0.36158203 -87.3125 -0.54785156 C-59.8313694 -5.88080245 -27.40889968 -5.52991264 0 0 Z M-89 449 C-89.89992676 449.16097168 -90.79985352 449.32194336 -91.72705078 449.48779297 C-131.43413548 456.6752517 -165.63245585 474.5343056 -199.55175781 495.5715332 C-208.51028456 501.11913041 -217.55368158 506.51419662 -226.625 511.875 C-235.20340545 516.94623341 -243.76991205 522.02179619 -252.18652344 527.35913086 C-259.16265408 531.76927359 -266.25844525 535.98116832 -273.34545898 540.20996094 C-275.33766471 541.39985212 -277.31400842 542.61671502 -279.27334595 543.85998535 C-281.94579396 545.48606231 -284.61281629 546.67447499 -287.5252533 547.80999756 C-292.75584719 550.05938294 -297.3999403 552.48137137 -301 557 C-304.05990875 565.18785137 -303.17889179 574.44912769 -302.85802245 583.0358336 C-302.74800726 586.49624899 -302.74148185 589.95697336 -302.72297668 593.41886902 C-302.67232303 599.98577972 -302.52936201 606.54727638 -302.35288459 613.1118781 C-302.15893976 620.49952084 -302.07101922 627.88718908 -301.99105108 635.27680171 C-302.10685396 676.37083126 -302.10685396 676.37083126 -298.8125 717.25 C-298.68649414 718.17925293 -298.56048828 719.10850586 -298.43066406 720.06591797 C-294.57583729 746.6395236 -286.73540803 771.89320653 -275 796 C-274.58234375 796.86125488 -274.1646875 797.72250977 -273.734375 798.60986328 C-265.37375054 815.65533823 -255.30390234 831.50977097 -243 846 C-242.11294387 847.07133533 -241.2262526 848.14297281 -240.33984375 849.21484375 C-229.96997611 861.64476564 -218.820308 873.08051592 -206 883 C-204.75856818 883.99280673 -203.51772343 884.98634783 -202.27734375 885.98046875 C-191.39731493 894.60422823 -179.90540427 901.88492383 -168 909 C-166.0297004 910.1844842 -164.05965371 911.3693892 -162.08984375 912.5546875 C-157.92220256 915.05961177 -153.75101374 917.55851649 -149.578125 920.0546875 C-142.76500683 924.13480231 -135.97381557 928.25054448 -129.1875 932.375 C-128.60797577 932.72714569 -128.02845154 933.07929138 -127.43136597 933.44210815 C-123.886269 935.59641408 -120.34169659 937.75158178 -116.79730225 939.90704346 C-111.36562048 943.21010066 -105.93312762 946.51182165 -100.5 949.8125 C-99.91220764 950.16967102 -99.32441528 950.52684204 -98.71881104 950.89483643 C-90.56475009 955.84884925 -82.40147588 960.78707845 -74.19506836 965.65405273 C-69.83332432 968.25225911 -65.53861831 970.92887914 -61.28125 973.6953125 C-60.32661865 974.30858398 -59.3719873 974.92185547 -58.38842773 975.55371094 C-56.54457273 976.74206155 -54.71016806 977.94524343 -52.88696289 979.16503906 C-52.0593042 979.69581055 -51.23164551 980.22658203 -50.37890625 980.7734375 C-49.6526001 981.25216309 -48.92629395 981.73088867 -48.17797852 982.22412109 C-45.98154717 983.23868751 -45.98154717 983.23868751 -43.59570312 982.35742188 C-40.68930207 980.83752065 -37.88619358 979.22296599 -35.08984375 977.5078125 C-34.53011368 977.1661203 -33.97038361 976.8244281 -33.39369202 976.47238159 C-31.5728684 975.359969 -29.75524224 974.24243914 -27.9375 973.125 C-26.02356431 971.95437609 -24.10879206 970.78512865 -22.19400024 969.61590576 C-20.91669021 968.83579179 -19.63965129 968.05523374 -18.36288452 967.27423096 C-13.25951691 964.15319893 -8.1355101 961.06786146 -3 958 C4.85183894 953.30125534 12.67966746 948.56344017 20.5 943.8125 C21.089021 943.45467438 21.67804199 943.09684875 22.28491211 942.72817993 C26.52372983 940.15286852 30.76192974 937.57654125 35 935 C39.23887512 932.42296944 43.47792209 929.84622259 47.71755981 927.27044678 C48.9043628 926.54938782 50.09111018 925.82823733 51.27780151 925.10699463 C57.87025855 921.10078374 64.4720789 917.11125302 71.09716797 913.15917969 C94.37477365 899.27429012 94.37477365 899.27429012 116 883 C116.6079541 882.49355957 117.2159082 881.98711914 117.84228516 881.46533203 C130.75057543 870.6646534 142.61205917 859.27549781 153 846 C153.86809712 844.93221387 154.7379688 843.86586861 155.609375 842.80078125 C189.08656294 801.5852378 208.31490649 749.1753057 210.49487305 696.20825195 C210.53507159 695.27064435 210.57527014 694.33303675 210.61668682 693.36701679 C210.74835759 690.24482637 210.87448619 687.12244363 211 684 C211.04534 682.90399349 211.09068001 681.80798698 211.13739395 680.67876816 C211.78417225 664.9206779 212.25391378 649.16608003 212.5328722 633.39768505 C212.66648669 626.03850782 212.85463039 618.68815128 213.16723633 611.33422852 C216.20266315 580.66191346 216.20266315 580.66191346 208.35955811 552.74005127 C202.45073178 546.34148281 194.8154327 543.52328326 186.60319519 541.18005371 C180.67330219 539.23800176 175.70755477 535.86893979 170.5 532.5 C168.44817067 531.26131161 166.39263468 530.02872429 164.33203125 528.8046875 C157.60347073 524.76734102 150.89359271 520.69949981 144.1875 516.625 C143.60667664 516.27215942 143.02585327 515.91931885 142.4274292 515.55578613 C136.47716912 511.94073569 130.52891159 508.32240657 124.58258057 504.70089722 C102.39948841 491.16877048 102.39948841 491.16877048 80 478 C79.2790918 477.58314941 78.55818359 477.16629883 77.81542969 476.73681641 C40.64836204 455.47473273 -2.03402775 445.51224037 -44.625 445.6875 C-45.54753571 445.68932281 -46.47007141 445.69114563 -47.42056274 445.69302368 C-61.4859967 445.73973854 -75.15711857 446.33209921 -89 449 Z " fill="#4597D7" transform="translate(685,3)"/>
<path d="M0 0 C1.92361061 0.95116542 3.84601147 1.90477767 5.76789856 2.85942078 C6.83856473 3.39020076 7.9092309 3.92098074 9.0123415 4.46784496 C12.46179511 6.23682148 15.60398876 8.17585967 18.82421875 10.33203125 C23.60829375 13.48481867 28.44262663 16.50421581 33.39453125 19.38671875 C34.00585907 19.7426712 34.61718689 20.09862366 35.24703979 20.46536255 C37.10085496 21.54173884 38.9563666 22.6151269 40.8125 23.6875 C47.9800194 27.83077308 55.10622188 31.96618901 61.95336914 36.62963867 C65.4887176 38.9967997 69.1529835 41.14436573 72.8125 43.3125 C81.33841128 48.39523903 89.83156976 53.53023081 98.3125 58.6875 C107.14397351 64.05547615 115.98194325 69.41138437 124.85205078 74.71533203 C129.77807419 77.66153971 134.70162339 80.61187221 139.625 83.5625 C141.16353638 84.48313232 141.16353638 84.48313232 142.7331543 85.42236328 C149.09325372 89.23425637 155.42056083 93.09574674 161.73144531 96.98852539 C167.16021965 100.32940317 172.61179555 103.63256577 178.0625 106.9375 C179.26979903 107.66988291 180.47707385 108.40230572 181.68432617 109.13476562 C183.55873756 110.271995 185.43316757 111.40919354 187.30769348 112.54623413 C191.71155159 115.21762864 196.11395677 117.89140525 200.515625 120.56640625 C214.48863755 129.06494975 214.48863755 129.06494975 228.5 137.5 C230.24121306 138.54432149 231.9823907 139.58870228 233.72314453 140.63378906 C235.507396 141.70441647 237.29237755 142.7738272 239.07763672 143.84277344 C268.13354065 161.25291716 268.13354065 161.25291716 280 170 C280.58313965 170.42909668 281.1662793 170.85819336 281.76708984 171.30029297 C291.47886107 178.52337275 300.29875354 186.60210902 309 195 C309.94101563 195.89976562 310.88203125 196.79953125 311.8515625 197.7265625 C317.72633706 203.45583181 322.95760852 209.53098069 328 216 C328.67651611 216.85392334 328.67651611 216.85392334 329.36669922 217.72509766 C337.93570193 228.57491179 345.13877383 240.00935974 352 252 C352.37608398 252.64227539 352.75216797 253.28455078 353.13964844 253.94628906 C383.68345381 306.22925356 391.13780844 369.66329302 375.90527344 427.71484375 C368.70376733 453.84846462 357.45054078 479.64493893 342 502 C341.59861816 502.59232422 341.19723633 503.18464844 340.78369141 503.79492188 C334.74414551 512.68321992 328.08855106 520.93160026 321 529 C320.23816406 529.87398437 319.47632813 530.74796875 318.69140625 531.6484375 C309.84811014 541.64246555 300.51743608 550.78160146 290 559 C288.75516978 559.99734772 287.51038069 560.99474677 286.265625 561.9921875 C275.38936106 570.606 263.8993415 577.89110021 252 585 C250.40076907 585.96178647 248.80180305 586.92401357 247.203125 587.88671875 C243.9599582 589.83695863 240.71321243 591.78109535 237.46484375 593.72265625 C231.12652974 597.51672572 224.81287397 601.35132067 218.5 605.1875 C217.61343216 605.72618713 217.61343216 605.72618713 216.70895386 606.27575684 C213.68208524 608.11500971 210.65543904 609.95462816 207.62890625 611.79443359 C204.07620657 613.95392939 200.52263723 616.11199047 196.96875 618.26953125 C196.39308792 618.61901321 195.81742584 618.96849518 195.22431946 619.3285675 C192.90131861 620.73880323 190.57827881 622.14897476 188.25521851 623.55911255 C182.39345867 627.11733954 176.53196038 630.67598845 170.67300415 634.23883057 C157.94672524 641.97762756 145.20456625 649.68805167 132.42626953 657.34082031 C124.66418 661.99292952 116.92118571 666.67589408 109.1875 671.375 C108.60734131 671.72750824 108.02718262 672.08001648 107.42944336 672.44320679 C103.8849839 674.59714092 100.34106614 676.75196517 96.79730225 678.90704346 C91.36562056 682.21010061 85.933221 685.51197549 80.5 688.8125 C79.90988129 689.17100037 79.31976257 689.52950073 78.71176147 689.89886475 C70.70233881 694.76364322 62.67746368 699.601733 54.63671875 704.41455078 C47.5749899 708.64559874 40.53564144 712.91326852 33.5 717.1875 C32.910979 717.54532562 32.32195801 717.90315125 31.71508789 718.27182007 C27.47627017 720.84713148 23.23807026 723.42345875 19 726 C14.16708024 728.93818091 9.33390522 731.8759406 4.5 734.8125 C3.61550171 735.34984268 3.61550171 735.34984268 2.71313477 735.89804077 C-5.29674638 740.76309264 -13.32207832 745.60145886 -21.36328125 750.41455078 C-28.4250101 754.64559874 -35.46435856 758.91326852 -42.5 763.1875 C-43.089021 763.54532562 -43.67804199 763.90315125 -44.28491211 764.27182007 C-48.52372983 766.84713148 -52.76192974 769.42345875 -57 772 C-86.22189843 789.76549752 -86.22189843 789.76549752 -99.9375 797.96484375 C-103.69637444 800.21340244 -107.4435681 802.48055864 -111.1875 804.75390625 C-144.32180283 824.84249926 -178.29303328 840.31450699 -217 846 C-218.80694336 846.26598999 -218.80694336 846.26598999 -220.65039062 846.53735352 C-232.3076731 848.13632494 -243.87186066 848.35840972 -255.625 848.3125 C-256.59455627 848.31067719 -257.56411255 848.30885437 -258.56304932 848.30697632 C-272.89479259 848.26162737 -286.90895512 847.84295422 -301 845 C-301.90186035 844.82307617 -302.8037207 844.64615234 -303.73291016 844.46386719 C-310.20599895 843.16498713 -316.60888488 841.65342874 -323 840 C-323.82000488 839.79036621 -324.64000977 839.58073242 -325.48486328 839.36474609 C-354.63342982 831.74163598 -380.86213748 817.52276366 -406.21484375 801.6015625 C-412.94080641 797.39001152 -419.75151401 793.32176864 -426.5625 789.25 C-429.14484385 787.70494894 -431.72684026 786.15931857 -434.30859375 784.61328125 C-434.95066772 784.22879318 -435.5927417 783.84430511 -436.25427246 783.44816589 C-442.89311222 779.46972662 -449.51139565 775.45771234 -456.125 771.4375 C-456.69566193 771.09067169 -457.26632385 770.74384338 -457.85427856 770.38650513 C-461.31613003 768.28229762 -464.7773431 766.17704183 -468.23840332 764.0715332 C-473.65783055 760.77503731 -479.07859099 757.48073545 -484.5 754.1875 C-485.0905719 753.82872772 -485.6811438 753.46995544 -486.28961182 753.10031128 C-493.51383012 748.71244714 -500.74751226 744.34100351 -508 740 C-515.85139943 735.30051567 -523.67966279 730.56344301 -531.5 725.8125 C-532.38353149 725.27576157 -532.38353149 725.27576157 -533.28491211 724.72817993 C-538.13484021 721.78158585 -542.98393496 718.83362132 -547.83300781 715.88562012 C-552.05495902 713.31895524 -556.27722201 710.75280442 -560.5 708.1875 C-561.08966553 707.82927155 -561.67933105 707.47104309 -562.28686523 707.10195923 C-569.51200006 702.71354759 -576.74659626 698.34155178 -584 694 C-591.85139943 689.30051567 -599.67966279 684.56344301 -607.5 679.8125 C-608.38353149 679.27576157 -608.38353149 679.27576157 -609.28491211 678.72817993 C-614.13484021 675.78158585 -618.98393496 672.83362132 -623.83300781 669.88562012 C-628.05495902 667.31895524 -632.27722201 664.75280442 -636.5 662.1875 C-637.08966553 661.82927155 -637.67933105 661.47104309 -638.28686523 661.10195923 C-645.51200006 656.71354759 -652.74659626 652.34155178 -660 648 C-667.85139919 643.30051581 -675.67968294 638.56347594 -683.5 633.8125 C-684.08735931 633.45567139 -684.67471863 633.09884277 -685.27987671 632.73120117 C-688.90384302 630.52935405 -692.52738059 628.32680204 -696.15081787 626.12408447 C-701.70408314 622.74835465 -707.25800271 619.37370221 -712.8125 616 C-713.40091675 615.64258728 -713.9893335 615.28517456 -714.59558105 614.91693115 C-723.37968168 609.58213428 -732.17548892 604.26769284 -741 599 C-740.34 598.01 -739.68 597.02 -739 596 C-738.34741211 596.24645264 -737.69482422 596.49290527 -737.02246094 596.74682617 C-725.72829324 600.98461151 -714.46990641 605.15246275 -702.75 608.0625 C-701.9362793 608.26576904 -701.12255859 608.46903809 -700.28417969 608.6784668 C-696.45273007 609.58508051 -692.96690306 610.24594799 -689 610 C-689 610.66 -689 611.32 -689 612 C-682.73 612.33 -676.46 612.66 -670 613 C-670 613.66 -670 614.32 -670 615 C-653.5 615.33 -637 615.66 -620 616 C-620 615.34 -620 614.68 -620 614 C-619.03900391 614.01740234 -619.03900391 614.01740234 -618.05859375 614.03515625 C-611.84332663 614.0999951 -605.9559057 613.9853019 -600 612 C-597.8125 612.4375 -597.8125 612.4375 -596 613 C-596 612.34 -596 611.68 -596 611 C-594.35 611.33 -592.7 611.66 -591 612 C-591 611.34 -591 610.68 -591 610 C-589.35 610.33 -587.7 610.66 -586 611 C-586 610.34 -586 609.68 -586 609 C-580.375 607.875 -580.375 607.875 -577 609 C-576.67 608.34 -576.34 607.68 -576 607 C-574.0625 606.3125 -574.0625 606.3125 -572 606 C-571.34 606.33 -570.68 606.66 -570 607 C-570 606.34 -570 605.68 -570 605 C-568.68 605.33 -567.36 605.66 -566 606 C-565.67 605.34 -565.34 604.68 -565 604 C-564.34 604.33 -563.68 604.66 -563 605 C-562.67 604.34 -562.34 603.68 -562 603 C-561.34 603.33 -560.68 603.66 -560 604 C-559.67 603.34 -559.34 602.68 -559 602 C-558.34 602.33 -557.68 602.66 -557 603 C-556.67 602.34 -556.34 601.68 -556 601 C-555.34 601.33 -554.68 601.66 -554 602 C-553.67 601.34 -553.34 600.68 -553 600 C-550.5625 598.8125 -550.5625 598.8125 -548 598 C-547.34 598.33 -546.68 598.66 -546 599 C-545.67 598.34 -545.34 597.68 -545 597 C-543.07421875 595.96484375 -543.07421875 595.96484375 -540.6875 594.9375 C-539.90761719 594.59589844 -539.12773438 594.25429687 -538.32421875 593.90234375 C-535.52168062 592.81429954 -533.01612815 592 -530 592 C-529.67 591.34 -529.34 590.68 -529 590 C-527.3984375 589.03515625 -527.3984375 589.03515625 -525.375 588.0625 C-524.65828125 587.71574219 -523.9415625 587.36898437 -523.203125 587.01171875 C-521.19244285 586.08837358 -519.16914326 585.22100047 -517.125 584.375 C-513.97087485 583.21250569 -513.97087485 583.21250569 -512 581 C-509.98872941 579.92732235 -507.93725695 578.97047386 -505.875 578 C-503.83448849 577.02859623 -503.83448849 577.02859623 -502 575 C-501.01 574.67 -500.02 574.34 -499 574 C-498.34 573.34 -497.68 572.68 -497 572 C-496.01 571.67 -495.02 571.34 -494 571 C-493.34 570.34 -492.68 569.68 -492 569 C-491.01 568.67 -490.02 568.34 -489 568 C-488.34 567.34 -487.68 566.68 -487 566 C-486.01 565.67 -485.02 565.34 -484 565 C-483.34 564.01 -482.68 563.02 -482 562 C-481.01 562 -480.02 562 -479 562 C-478.34 561.34 -477.68 560.68 -477 560 C-476.01 559.67 -475.02 559.34 -474 559 C-473.34 558.01 -472.68 557.02 -472 556 C-470.67203709 555.64587656 -469.33783393 555.31478446 -468 555 C-466.65210653 554.01971384 -465.31787285 553.02028865 -464 552 C-463.01 551.67 -462.02 551.34 -461 551 C-460.34 550.34 -459.68 549.68 -459 549 C-458.01 548.67 -457.02 548.34 -456 548 C-455.34 547.34 -454.68 546.68 -454 546 C-453.01 545.67 -452.02 545.34 -451 545 C-450.34 544.34 -449.68 543.68 -449 543 C-448.01 542.67 -447.02 542.34 -446 542 C-445.39285156 541.38511719 -444.78570312 540.77023437 -444.16015625 540.13671875 C-441.7588192 537.76143599 -439.41682046 536.38931042 -436.4375 534.8125 C-435.01244141 534.04873047 -435.01244141 534.04873047 -433.55859375 533.26953125 C-431 532 -431 532 -428 531 C-427.34 530.34 -426.68 529.68 -426 529 C-425.01 528.67 -424.02 528.34 -423 528 C-422.34 527.34 -421.68 526.68 -421 526 C-420.01 525.67 -419.02 525.34 -418 525 C-417.34 524.34 -416.68 523.68 -416 523 C-415.01 522.67 -414.02 522.34 -413 522 C-412.34 521.01 -411.68 520.02 -411 519 C-410.01 519 -409.02 519 -408 519 C-407.34 518.01 -406.68 517.02 -406 516 C-405.01 516 -404.02 516 -403 516 C-402.1646875 515.13375 -402.1646875 515.13375 -401.3125 514.25 C-398.2458524 511.26623477 -394.84453225 509.78710679 -391 508 C-388.76819384 506.92725339 -386.91735885 505.93739307 -384.9375 504.4375 C-383 503 -383 503 -380 502 C-379.34 501.34 -378.68 500.68 -378 500 C-377.01 499.67 -376.02 499.34 -375 499 C-374.34 498.34 -373.68 497.68 -373 497 C-372.01 496.67 -371.02 496.34 -370 496 C-369.34 495.34 -368.68 494.68 -368 494 C-366.34928604 492.97388051 -364.68029994 491.97691857 -363 491 C-362.175 490.505 -361.35 490.01 -360.5 489.5 C-359.675 489.005 -358.85 488.51 -358 488 C-357.154375 487.484375 -356.30875 486.96875 -355.4375 486.4375 C-353 485 -353 485 -350.875 484 C-348.92674736 483.0856117 -348.92674736 483.0856117 -347.5 481.4375 C-345.70820936 479.72036731 -344.38204704 479.53788159 -342 479 C-341.34 478.34 -340.68 477.68 -340 477 C-339.01 476.67 -338.02 476.34 -337 476 C-336.34 475.34 -335.68 474.68 -335 474 C-334.01 473.67 -333.02 473.34 -332 473 C-331.34 472.34 -330.68 471.68 -330 471 C-329.01 471 -328.02 471 -327 471 C-326.67 470.01 -326.34 469.02 -326 468 C-324.68 468 -323.36 468 -322 468 C-321.63068359 467.08541016 -321.63068359 467.08541016 -321.25390625 466.15234375 C-319.75887297 463.58610283 -318.56159907 462.90000376 -315.9375 461.5625 C-315.13957031 461.14742187 -314.34164063 460.73234375 -313.51953125 460.3046875 C-312.68808594 459.87414062 -311.85664062 459.44359375 -311 459 C-308.64421621 457.64644134 -306.29307209 456.28539145 -303.9453125 454.91796875 C-302 454 -302 454 -299 454 C-298.67 453.01 -298.34 452.02 -298 451 C-297.34 451 -296.68 451 -296 451 C-295.505 450.505 -295.01 450.01 -294.5 449.5 C-294.005 449.005 -293.51 448.51 -293 448 C-292.34 448 -291.68 448 -291 448 C-290.505 447.505 -290.01 447.01 -289.5 446.5 C-289.005 446.005 -288.51 445.51 -288 445 C-287.34 445 -286.68 445 -286 445 C-285.505 444.505 -285.01 444.01 -284.5 443.5 C-284.005 443.005 -283.51 442.51 -283 442 C-282.34 442 -281.68 442 -281 442 C-280.47664063 441.44828125 -279.95328125 440.8965625 -279.4140625 440.328125 C-276.1002163 437.13224743 -272.34667988 435.04237899 -268.375 432.75 C-267.59898437 432.29109375 -266.82296875 431.8321875 -266.0234375 431.359375 C-260.26450893 428 -260.26450893 428 -258 428 C-258.66 426.68 -259.32 425.36 -260 424 C-259.25806396 424.20858643 -258.51612793 424.41717285 -257.75170898 424.63208008 C-254.51143218 425.06532443 -253.65536572 424.64898979 -250.97265625 422.88671875 C-250.19656006 422.39010742 -249.42046387 421.89349609 -248.62084961 421.38183594 C-247.77659424 420.82270508 -246.93233887 420.26357422 -246.0625 419.6875 C-244.17086434 418.47537416 -242.27753458 417.26588939 -240.3828125 416.05859375 C-239.35833008 415.4022998 -238.33384766 414.74600586 -237.27832031 414.06982422 C-232.02069943 410.75033436 -226.68193719 407.56923273 -221.34146118 404.38537598 C-218.12219646 402.46565415 -214.9068327 400.53942287 -211.69140625 398.61328125 C-211.04924667 398.22872772 -210.4070871 397.84417419 -209.74546814 397.44796753 C-203.1066565 393.46969223 -196.48851147 389.45765588 -189.875 385.4375 C-189.30433807 385.09067169 -188.73367615 384.74384338 -188.14572144 384.38650513 C-184.68386997 382.28229762 -181.2226569 380.17704183 -177.76159668 378.0715332 C-172.9394737 375.13836187 -168.11629824 372.20692267 -163.29251099 369.27648926 C-162.10142742 368.55288019 -160.9104073 367.82916668 -159.7194519 367.10534668 C-153.12791106 363.09968378 -146.52700433 359.11070614 -139.90283203 355.15917969 C-116.62401712 341.27601746 -116.62401712 341.27601746 -95 325 C-94.38672852 324.48824219 -93.77345703 323.97648437 -93.14160156 323.44921875 C-80.58626911 312.92348364 -69.1392539 301.91402391 -59 289 C-58.13041001 287.93106658 -57.25925032 286.86340867 -56.38671875 285.796875 C-12.09903229 231.25916545 -1.11282763 167.25896767 -0.69667697 99.12433863 C-0.67437956 95.6237125 -0.64721093 92.12312375 -0.62062073 88.62252808 C-0.57127117 82.03236994 -0.52612538 75.44219042 -0.48259836 68.85199153 C-0.43272308 61.33285721 -0.37799625 53.81376045 -0.32291877 46.29466271 C-0.20998847 30.86314342 -0.10296588 15.43158921 0 0 Z " fill="#8661B4" transform="translate(896,560)"/>
<path d="M0 0 C0.66 0.33 1.32 0.66 2 1 C1.00033203 1.70962891 1.00033203 1.70962891 -0.01953125 2.43359375 C-24.16242288 19.75569641 -46.97172887 40.5396675 -64 65 C-64.44875488 65.63599121 -64.89750977 66.27198242 -65.35986328 66.92724609 C-101.21951271 118.01442542 -112.08603522 174.7325491 -112.20060861 236.0123564 C-112.20871343 239.77965681 -112.2223754 243.54693792 -112.23532104 247.31422424 C-112.25694289 253.82206164 -112.27513857 260.32990113 -112.29092598 266.8377552 C-112.31375627 276.24671623 -112.34187987 285.65565575 -112.37124526 295.06459837 C-112.41876118 310.33447856 -112.46206805 325.6043676 -112.50268555 340.87426758 C-112.54212235 355.69686572 -112.58356781 370.51945603 -112.62768555 385.34204102 C-112.63177196 386.71533352 -112.63177196 386.71533352 -112.63594092 388.11636931 C-112.64962174 392.70986257 -112.66334175 397.30335571 -112.67708123 401.8968488 C-112.79079426 439.93121617 -112.89765854 477.96560043 -113 516 C-112.01 516.33 -111.02 516.66 -110 517 C-110.99 517.33 -111.98 517.66 -113 518 C-112.89204824 534.17882683 -112.77917028 550.357611 -112.66066074 566.5363636 C-112.60572748 574.0509212 -112.55231802 581.56548349 -112.50268555 589.08007812 C-112.45934761 595.64103314 -112.41295751 602.20195882 -112.36312145 608.76286781 C-112.33691215 612.2265872 -112.31208179 615.6903023 -112.29092598 619.15405655 C-112.33262769 648.77093272 -112.33262769 648.77093272 -109.8125 678.25 C-109.68649414 679.17925293 -109.56048828 680.10850586 -109.43066406 681.06591797 C-105.57583729 707.6395236 -97.73540803 732.89320653 -86 757 C-85.58234375 757.86125488 -85.1646875 758.72250977 -84.734375 759.60986328 C-76.37419542 776.65443121 -66.30547741 792.51204169 -54 807 C-53.10127571 808.08309543 -52.20286184 809.16644847 -51.3046875 810.25 C-41.21118119 822.32735615 -30.45121017 833.33350779 -18 843 C-16.7574362 843.9943216 -15.51527575 844.98914738 -14.2734375 845.984375 C-3.39398531 854.60577831 8.0961964 861.88588045 20 869 C21.9702996 870.1844842 23.94034629 871.3693892 25.91015625 872.5546875 C30.07779744 875.05961177 34.24898626 877.55851649 38.421875 880.0546875 C45.23499317 884.13480231 52.02618443 888.25054448 58.8125 892.375 C59.39202423 892.72714569 59.97154846 893.07929138 60.56863403 893.44210815 C64.113731 895.59641408 67.65830341 897.75158178 71.20269775 899.90704346 C76.63437947 903.21010063 82.06680666 906.51192991 87.5 909.8125 C88.38019302 910.34725952 88.38019302 910.34725952 89.27816772 910.89282227 C95.89201185 914.91028143 102.51191018 918.91722232 109.15087891 922.89306641 C110.77136557 923.86369538 112.3908707 924.83596539 114.00927734 925.81005859 C118.04212704 928.23685394 122.08788338 930.63706514 126.15625 933.00390625 C127.81260181 933.98159837 129.46885553 934.95945671 131.125 935.9375 C131.89021973 936.37433105 132.65543945 936.81116211 133.44384766 937.26123047 C134.49644775 937.88795654 134.49644775 937.88795654 135.5703125 938.52734375 C136.18664551 938.88562256 136.80297852 939.24390137 137.43798828 939.61303711 C139.51696657 941.45903205 140.12838537 943.39788634 141 946 C137.71262589 948.00712206 134.41942172 950.00447034 131.125 952 C130.18785156 952.57234375 129.25070312 953.1446875 128.28515625 953.734375 C127.38925781 954.27578125 126.49335937 954.8171875 125.5703125 955.375 C124.74289551 955.87773438 123.91547852 956.38046875 123.06298828 956.8984375 C121 958 121 958 119 958 C118.67 958.99 118.34 959.98 118 961 C116.68 961 115.36 961 114 961 C113.67 961.99 113.34 962.98 113 964 C111.68 964 110.36 964 109 964 C108.67 964.99 108.34 965.98 108 967 C106.68 967 105.36 967 104 967 C103.67 967.99 103.34 968.98 103 970 C102.34 970 101.68 970 101 970 C100.319375 970.7115625 100.319375 970.7115625 99.625 971.4375 C97.74479784 973.24538669 96.49588446 973.43641319 94 974 C93.34 974.66 92.68 975.32 92 976 C91.01 976.33 90.02 976.66 89 977 C88.34 977.66 87.68 978.32 87 979 C86.01 979.33 85.02 979.66 84 980 C83.34 980.66 82.68 981.32 82 982 C81.360625 982.309375 80.72125 982.61875 80.0625 982.9375 C77.93293347 983.90197968 77.93293347 983.90197968 76.375 985.625 C75.92125 986.07875 75.4675 986.5325 75 987 C74.34 987 73.68 987 73 987 C72.58363281 987.4228125 72.16726563 987.845625 71.73828125 988.28125 C69.46279178 990.53117218 66.96094282 991.90919506 64.1875 993.5 C63.17042969 994.0878125 62.15335938 994.675625 61.10546875 995.28125 C57.40516846 997.32921494 53.65890577 999.24164308 49.8125 1001 C47.9640548 1001.89760488 47.9640548 1001.89760488 46.73046875 1003.359375 C44.52335713 1005.45189618 42.14962451 1006.75784304 39.5 1008.25 C35.4334668 1010.57652621 31.43647312 1012.95960165 27.5 1015.5 C12.70543906 1024.99246396 12.70543906 1024.99246396 5.875 1027.8125 C2.93088574 1028.81337671 2.93088574 1028.81337671 1 1031 C0.01 1031.33 -0.98 1031.66 -2 1032 C-2.515625 1032.515625 -3.03125 1033.03125 -3.5625 1033.5625 C-4.036875 1034.036875 -4.51125 1034.51125 -5 1035 C-5.66 1035 -6.32 1035 -7 1035 C-7.495 1035.495 -7.99 1035.99 -8.5 1036.5 C-8.995 1036.995 -9.49 1037.49 -10 1038 C-10.66 1038 -11.32 1038 -12 1038 C-12.58136719 1038.58652344 -13.16273438 1039.17304687 -13.76171875 1039.77734375 C-18.73702517 1044.71791854 -25.66791532 1048.14810295 -32.125 1050.8125 C-35.06911426 1051.81337671 -35.06911426 1051.81337671 -37 1054 C-37.99 1054.33 -38.98 1054.66 -40 1055 C-40.66 1055.66 -41.32 1056.32 -42 1057 C-42.99 1057.33 -43.98 1057.66 -45 1058 C-45.60585938 1058.61101562 -46.21171875 1059.22203125 -46.8359375 1059.8515625 C-49.25395278 1062.25211919 -51.65801679 1063.70753978 -54.625 1065.375 C-59.49150478 1068.13626436 -64.2832075 1070.98619494 -69.0390625 1073.93359375 C-71 1075 -71 1075 -73 1075 C-73.61875 1075.61875 -74.2375 1076.2375 -74.875 1076.875 C-76.88846932 1078.88846932 -78.3832303 1079.95329212 -81 1081 C-81.66 1081 -82.32 1081 -83 1081 C-83.88365234 1081.88945312 -83.88365234 1081.88945312 -84.78515625 1082.796875 C-87.18128596 1085.18032678 -89.49201458 1086.60340571 -92.4375 1088.25 C-96.7808642 1090.71316543 -101.03280015 1093.26433098 -105.25 1095.9375 C-112.02056554 1100.13541398 -119.06232992 1103.66835377 -126.22802734 1107.13720703 C-127.91024851 1107.95629901 -129.58241122 1108.79595475 -131.25390625 1109.63671875 C-134.45048657 1111.22364127 -137.72008945 1112.59432405 -141 1114 C-142.03125 1114.53625 -143.0625 1115.0725 -144.125 1115.625 C-146.82893724 1116.91818738 -149.0826652 1117.44807179 -152 1118 C-152.99 1118.66 -153.98 1119.32 -155 1120 C-156.81795123 1120.57221658 -158.65398078 1121.08858915 -160.5 1121.5625 C-163.37321572 1122.30783687 -166.1830113 1123.06100377 -169 1124 C-169.66 1123.67 -170.32 1123.34 -171 1123 C-171 1123.66 -171 1124.32 -171 1125 C-172.299375 1125.185625 -172.299375 1125.185625 -173.625 1125.375 C-177.0060535 1125.90702737 -177.0060535 1125.90702737 -180.125 1127.125 C-183.02929552 1128.00891603 -184.22261639 1128.06822446 -187 1127 C-187 1127.66 -187 1128.32 -187 1129 C-188.65 1128.67 -190.3 1128.34 -192 1128 C-192 1128.66 -192 1129.32 -192 1130 C-193.65 1129.67 -195.3 1129.34 -197 1129 C-197 1129.66 -197 1130.32 -197 1131 C-197.969375 1130.979375 -198.93875 1130.95875 -199.9375 1130.9375 C-202.87465895 1130.64381501 -202.87465895 1130.64381501 -204 1132 C-206.09799164 1132.26334623 -208.20442576 1132.46085629 -210.3125 1132.625 C-211.46363281 1132.72039062 -212.61476563 1132.81578125 -213.80078125 1132.9140625 C-216.52048691 1132.98711931 -218.44681895 1132.8447562 -221 1132 C-221 1132.66 -221 1133.32 -221 1134 C-226.51350585 1134.02490465 -232.02697822 1134.04295608 -237.54052734 1134.05493164 C-239.41227795 1134.05992942 -241.28402471 1134.06672988 -243.15576172 1134.07543945 C-245.86166335 1134.08770621 -248.56751292 1134.093274 -251.2734375 1134.09765625 C-252.09677582 1134.10281754 -252.92011414 1134.10797882 -253.7684021 1134.11329651 C-259.56511673 1134.11384375 -265.24346122 1133.67160412 -271 1133 C-271 1132.34 -271 1131.68 -271 1131 C-271.66 1131.33 -272.32 1131.66 -273 1132 C-279.31936849 1131.87701828 -285.04347997 1131.11787379 -291 1129 C-292.95679688 1128.82017578 -292.95679688 1128.82017578 -294.953125 1128.63671875 C-300.69239606 1128.03867317 -306.0492049 1126.46595858 -311.5625 1124.8125 C-313.13499512 1124.35037109 -313.13499512 1124.35037109 -314.73925781 1123.87890625 C-321.68316076 1121.80190678 -328.49304805 1119.49687169 -335.17797852 1116.69067383 C-338.50635532 1115.23309847 -338.50635532 1115.23309847 -341.99609375 1115.59765625 C-344.9102844 1116.18276665 -346.47665018 1114.79408522 -348.87036133 1113.24511719 C-349.51126709 1112.81360352 -350.15217285 1112.38208984 -350.8125 1111.9375 C-352.24859323 1111.00174374 -353.68618403 1110.06828311 -355.125 1109.13671875 C-355.90488281 1108.62931152 -356.68476563 1108.1219043 -357.48828125 1107.59912109 C-360.13053166 1105.91689518 -362.80624319 1104.30539564 -365.5 1102.70703125 C-382.11688239 1092.84392581 -397.92136905 1082.29798029 -412 1069 C-413.28727918 1067.89072135 -414.57888284 1066.78643909 -415.875 1065.6875 C-425.15627086 1057.56873175 -433.41931206 1048.71779678 -441 1039 C-441.78890625 1038.01644531 -442.5778125 1037.03289062 -443.390625 1036.01953125 C-461.16200356 1013.68389962 -474.98506877 988.07157601 -484 961 C-484.27247559 960.19079102 -484.54495117 959.38158203 -484.82568359 958.54785156 C-488.06719326 948.77063097 -490.60334585 938.88489249 -492.75 928.8125 C-492.94875732 927.88783936 -493.14751465 926.96317871 -493.35229492 926.01049805 C-496.46470699 910.69124054 -497.29520894 895.62468586 -497.26069641 880.03964233 C-497.26372379 878.07795588 -497.26761618 876.11627061 -497.27228898 874.15458739 C-497.28250241 868.81023066 -497.28040426 863.46594151 -497.27610838 858.12157941 C-497.27362895 852.33950927 -497.28267043 846.55745489 -497.29014587 840.77539062 C-497.30286171 829.46484581 -497.30469042 818.15432477 -497.30234561 806.84377401 C-497.30055861 797.6438592 -497.30232027 788.44395158 -497.30657005 779.24403763 C-497.30716524 777.93190963 -497.30776043 776.61978164 -497.30837366 775.26789219 C-497.30928165 773.27024318 -497.31018966 771.27259417 -497.31110601 769.27494516 C-497.3195267 750.71908531 -497.32387741 732.16322806 -497.31969929 713.60736656 C-497.31954291 712.90892737 -497.31938654 712.21048819 -497.31922542 711.49088417 C-497.31841973 707.9515539 -497.31757396 704.41222364 -497.31671212 700.87289338 C-497.31654103 700.17007141 -497.31636994 699.46724945 -497.31619367 698.74312985 C-497.31584701 697.32185507 -497.31549848 695.90058029 -497.31514808 694.47930551 C-497.30979382 672.3763246 -497.31771655 650.27338362 -497.33618164 628.17041016 C-497.35694222 603.29104369 -497.36761655 578.41170195 -497.36360615 553.53232634 C-497.36169838 540.37668363 -497.36414018 527.22107727 -497.37832069 514.06544113 C-497.39027295 502.86427037 -497.39159652 491.66315833 -497.37953053 480.46198671 C-497.37366844 474.7558302 -497.37246787 469.04978091 -497.38453293 463.34363174 C-497.47192085 419.01510289 -497.47192085 419.01510289 -494 401 C-493.8756513 400.32530316 -493.7513026 399.65060632 -493.62318575 398.95546412 C-492.93376953 395.23318491 -492.14209595 391.5538981 -491.25 387.875 C-490.99395996 386.79863281 -490.73791992 385.72226562 -490.47412109 384.61328125 C-482.95471232 353.90109691 -469.68800294 323.59411066 -451 298 C-450.60103516 297.45230957 -450.20207031 296.90461914 -449.79101562 296.34033203 C-446.95419861 292.48367702 -444.01399341 288.71949113 -441 285 C-440.55462891 284.45021484 -440.10925781 283.90042969 -439.65039062 283.33398438 C-428.43397759 269.61800397 -416.05742931 256.81498576 -402 246 C-400.56720703 244.84177734 -400.56720703 244.84177734 -399.10546875 243.66015625 C-389.88703017 236.32019195 -380.0441026 230.14157336 -370 224 C-368.4219458 223.03416992 -368.4219458 223.03416992 -366.81201172 222.04882812 C-353.393148 213.84895014 -339.91970923 205.74056189 -326.4284668 197.66040039 C-318.6655522 193.00803787 -310.92192166 188.32450724 -303.1875 183.625 C-302.60567963 183.27149475 -302.02385925 182.9179895 -301.42440796 182.55377197 C-297.28236132 180.0367972 -293.14109321 177.51854301 -289 175 C-284.27136534 172.12412419 -279.54239057 169.24880989 -274.8125 166.375 C-274.23043793 166.02133362 -273.64837585 165.66766724 -273.04867554 165.30328369 C-263.8609154 159.72223949 -254.64886177 154.18247957 -245.42626953 148.65917969 C-237.6641797 144.0070703 -229.9212062 139.32407252 -222.1875 134.625 C-221.60567963 134.27149475 -221.02385925 133.9179895 -220.42440796 133.55377197 C-216.28236132 131.0367972 -212.14109321 128.51854301 -208 126 C-203.27136534 123.12412419 -198.54239057 120.24880989 -193.8125 117.375 C-193.23043793 117.02133362 -192.64837585 116.66766724 -192.04867554 116.30328369 C-182.8609154 110.72223949 -173.64886177 105.18247957 -164.42626953 99.65917969 C-156.6641797 95.0070703 -148.9212062 90.32407252 -141.1875 85.625 C-140.60567963 85.27149475 -140.02385925 84.9179895 -139.42440796 84.55377197 C-135.28236132 82.0367972 -131.14109321 79.51854301 -127 77 C-122.27136534 74.12412419 -117.54239057 71.24880989 -112.8125 68.375 C-112.23043793 68.02133362 -111.64837585 67.66766724 -111.04867554 67.30328369 C-101.8609154 61.72223949 -92.64886177 56.18247957 -83.42626953 50.65917969 C-72.71456788 44.23925814 -62.04239589 37.75475857 -51.37231445 31.26602173 C-47.12854592 28.68540477 -42.883054 26.10764101 -38.63671875 23.53125 C-38.0314888 23.16392761 -37.42625885 22.79660522 -36.8026886 22.41815186 C-33.82083903 20.60849622 -30.8383992 18.79982861 -27.85473633 16.99316406 C-22.65558797 13.84180487 -17.46643613 10.67799555 -12.3125 7.453125 C-11.46768066 6.92702637 -10.62286133 6.40092773 -9.75244141 5.85888672 C-8.21395233 4.89863445 -6.67947069 3.93191868 -5.14990234 2.95751953 C-3.46959394 1.91096492 -1.73934152 0.94520048 0 0 Z " fill="#5D78D5" transform="translate(497,42)"/>
<path d="M0 0 C5.91969002 1.75990784 11.41634992 4.39694605 17 7 C17 7.99 17 8.98 17 10 C12.90204273 9.35081865 9.69816108 7.16741553 6.25 5 C5.64800781 4.63132812 5.04601562 4.26265625 4.42578125 3.8828125 C2.93030434 2.95364998 1.46232105 1.98051585 0 1 C0 0.67 0 0.34 0 0 Z " fill="#A18FEE" transform="translate(139,1148)"/>
<path d="M0 0 C0.66 0.33 1.32 0.66 2 1 C0.2758698 2.29838176 -1.45453232 3.58843747 -3.1875 4.875 C-4.63189453 5.95394531 -4.63189453 5.95394531 -6.10546875 7.0546875 C-8.71128675 8.80596599 -11.04792144 9.97459794 -14 11 C-10.60169663 5.74807662 -5.60107784 2.59562144 0 0 Z " fill="#8277D8" transform="translate(497,42)"/>
</svg>
