<?xml version="1.0" encoding="UTF-8"?>
<svg version="1.1" xmlns="http://www.w3.org/2000/svg" width="3000" height="2000">
<path d="M0 0 C0.73867434 -0.00165078 1.47734868 -0.00330156 2.2384071 -0.00500236 C4.72008294 -0.00932521 7.20169938 -0.0065267 9.68337673 -0.00377727 C11.48566257 -0.005427 13.28794805 -0.00751331 15.09023294 -0.00999737 C20.06646692 -0.01557255 25.04268371 -0.01489004 30.01891982 -0.01321978 C35.42386163 -0.01248985 40.82879856 -0.01750886 46.2337383 -0.0217948 C56.96438904 -0.0293829 67.69503479 -0.03156827 78.42568793 -0.03212385 C91.27445213 -0.03303669 104.12321173 -0.03970183 116.97197395 -0.04647068 C147.2916434 -0.0621595 177.61131224 -0.06822006 207.93098504 -0.0728777 C223.35574483 -0.07526061 238.78050418 -0.07896403 254.20526363 -0.0829148 C303.67875769 -0.09557948 353.15225172 -0.1063634 402.62574737 -0.10975526 C404.99048274 -0.1099175 407.35521812 -0.11008306 409.71995349 -0.11024964 C414.46249466 -0.11058344 419.20503583 -0.11091392 423.947577 -0.1112442 C429.49998088 -0.1116311 435.05238477 -0.11202071 440.60478865 -0.11241527 C442.19393374 -0.11252769 443.78307883 -0.1126391 445.37222391 -0.11274952 C496.41187537 -0.11629908 547.45151274 -0.1313779 598.49115883 -0.15468726 C635.16462577 -0.17142893 671.83809005 -0.18690395 708.51156086 -0.19142222 C709.26577219 -0.19151571 710.01998352 -0.1916092 710.79704974 -0.19170551 C727.35395398 -0.19372457 743.91085819 -0.19488061 760.46776255 -0.1952341 C766.39220243 -0.19537027 772.31664231 -0.19557927 778.24108218 -0.19582735 C779.71494253 -0.19588891 781.18880288 -0.19594723 782.66266323 -0.1960023 C806.14715087 -0.19692209 829.63162383 -0.20688992 853.11610664 -0.22145979 C877.4293329 -0.23648346 901.74253797 -0.24066429 926.05576784 -0.23236683 C940.0747727 -0.22790437 954.09371732 -0.23179582 968.11271429 -0.24760534 C977.47376841 -0.25733659 986.83478022 -0.25619483 996.19583393 -0.24616911 C1001.53170702 -0.24076373 1006.86746423 -0.24010995 1012.20332784 -0.25267783 C1017.06017052 -0.2640221 1021.91680311 -0.2614864 1026.77363854 -0.24801075 C1028.51718275 -0.24558069 1030.26074318 -0.24814686 1032.00426951 -0.25640723 C1053.47059781 -0.35140057 1070.49541385 4.81411985 1086.39179558 19.92061925 C1101.63149195 35.98223184 1104.11514628 54.93314133 1104.00844139 76.04712987 C1104.01262006 78.1475209 1104.01854959 80.24790904 1104.02605885 82.3482908 C1104.04159871 88.11035587 1104.03233452 93.87215194 1104.01894704 99.63421251 C1104.00878608 105.9066032 1104.02184551 112.17895315 1104.03192037 118.45133805 C1104.04636207 129.44137672 1104.04606726 140.43132292 1104.03573173 151.42136312 C1104.02471344 163.20933378 1104.02241599 174.99725838 1104.03068107 186.78523183 C1104.03119776 187.53072259 1104.03171445 188.27621336 1104.0322468 189.04429475 C1104.03437997 192.08073343 1104.03657481 195.11717206 1104.0388479 198.15361065 C1104.05998888 226.41405989 1104.06144729 254.67447827 1104.0502581 282.93493199 C1104.04992692 283.7717983 1104.04959574 284.60866461 1104.04925452 285.47089051 C1104.0489228 286.30909995 1104.04859108 287.1473094 1104.04824931 288.01091912 C1104.03815441 313.55311903 1104.03555202 339.09530619 1104.04033989 364.63750768 C1104.04064981 366.34829605 1104.04095843 368.05908443 1104.04126577 369.76987281 C1104.04250765 376.64491799 1104.04378232 383.51996317 1104.04510482 390.39500834 C1104.04877275 409.61329759 1104.05105523 428.83158689 1104.05224937 448.04987645 C1104.05230396 448.92501303 1104.05235854 449.80014961 1104.05241478 450.70180548 C1104.05405175 478.58513455 1104.04954503 506.46845918 1104.04085106 534.35178685 C1104.04042956 535.70823186 1104.04042956 535.70823186 1104.03999955 537.0920798 C1104.03541983 551.7770333 1104.03054194 566.4619867 1104.02563886 581.14694009 C1104.00621369 639.38824389 1104.0071153 697.62951092 1104.0265612 755.87081456 C1104.03144601 770.54838105 1104.03629023 785.22594755 1104.04085106 799.90351415 C1104.04113285 800.80728004 1104.04141464 801.71104593 1104.04170497 802.64219866 C1104.05033041 830.49660788 1104.05398668 858.35101404 1104.05224937 886.20542455 C1104.05216787 887.51716401 1104.05216787 887.51716401 1104.05208471 888.85540325 C1104.05083477 908.05238405 1104.04830015 927.24936452 1104.04460736 946.446345 C1104.04329081 953.31522342 1104.04203848 960.18410185 1104.04080452 967.05298029 C1104.04049496 968.76175958 1104.04018004 970.47053886 1104.03985973 972.17931814 C1104.0350864 997.71435431 1104.03914912 1023.24937611 1104.04925452 1048.78441049 C1104.04975129 1050.03970995 1104.04975129 1050.03970995 1104.0502581 1051.32036901 C1104.05075419 1052.57335014 1104.05075419 1052.57335014 1104.05126031 1053.85164403 C1104.06229538 1082.03099421 1104.05823033 1110.21030736 1104.03713512 1138.38965225 C1104.03492574 1141.41645785 1104.03277892 1144.44326349 1104.03068107 1147.47006917 C1104.03016025 1148.21289264 1104.02963942 1148.95571611 1104.02910281 1149.72104939 C1104.02121748 1161.47656993 1104.02670168 1173.23204439 1104.0377571 1184.98756078 C1104.04834599 1196.55046476 1104.04427336 1208.11326653 1104.02570075 1219.6761655 C1104.01617333 1225.85979653 1104.01295774 1232.04325313 1104.02732468 1238.22687876 C1104.04026824 1243.85521862 1104.03472432 1249.48322966 1104.01460204 1255.11154567 C1104.01058223 1257.132087 1104.01321458 1259.1526557 1104.02342579 1261.17317523 C1104.12712702 1283.26516005 1099.43609857 1300.701174 1083.63788933 1317.06124425 C1071.60673475 1328.26868907 1056.33748161 1334.24402352 1039.98795754 1334.258753 C1038.8763385 1334.26178821 1038.8763385 1334.26178821 1037.74226251 1334.26488473 C1035.25238739 1334.27046166 1032.76256758 1334.26893638 1030.27268738 1334.2674582 C1028.46448748 1334.27001808 1026.65628816 1334.27301219 1024.84808964 1334.27640191 C1019.85541738 1334.28447607 1014.8627591 1334.28629949 1009.87008109 1334.28712486 C1004.44727133 1334.28909271 999.02446917 1334.29676764 993.60166389 1334.30369741 C982.83539514 1334.31652358 972.0691288 1334.32389873 961.30285418 1334.32959619 C948.4113111 1334.33665033 935.5197752 1334.34940849 922.62823671 1334.36214539 C889.24579751 1334.39473272 855.86335316 1334.4146489 822.48090341 1334.43262716 C815.11669557 1334.43660434 807.75248786 1334.44079007 800.38828015 1334.44498256 C745.58674026 1334.47614194 690.78519881 1334.50322145 635.98365248 1334.51992934 C623.27897971 1334.52381604 610.57430698 1334.52783616 597.86963428 1334.53191359 C596.27484828 1334.53242445 594.68006228 1334.53293318 593.08527628 1334.53343979 C541.87233673 1334.5497083 490.65944441 1334.58669954 439.4465282 1334.63759358 C402.64896861 1334.67415199 365.85141892 1334.70785482 329.05384201 1334.7201426 C328.29692755 1334.72039669 327.54001309 1334.72065079 326.76016183 1334.72091258 C310.14310278 1334.72642922 293.52604376 1334.73026965 276.90898397 1334.73253805 C270.22273156 1334.73347601 263.53647919 1334.73463214 256.85022682 1334.73585248 C256.11846516 1334.73598 255.38670351 1334.73610753 254.63276725 1334.73623891 C231.07027044 1334.74044561 207.50783688 1334.76321553 183.94536333 1334.79560741 C159.54695921 1334.82904323 135.14863602 1334.84100213 110.75021078 1334.82817196 C96.68510818 1334.82142918 82.62024893 1334.83140438 68.55518431 1334.86529896 C59.1595818 1334.88628981 49.76414425 1334.88547725 40.36853696 1334.86696555 C35.01528688 1334.85703841 29.66250073 1334.85654607 24.30929466 1334.88262837 C19.43307683 1334.90619736 14.55769038 1334.90181367 9.68149264 1334.87573168 C7.93437206 1334.87117726 6.18718795 1334.87654108 4.4401429 1334.89341396 C-15.64722044 1335.0747947 -32.21304811 1328.1519714 -46.72929817 1314.0495255 C-57.91993965 1302.61593929 -63.84406344 1286.47935211 -63.73543221 1270.66170812 C-63.73799548 1269.27938143 -63.73799548 1269.27938143 -63.74061054 1267.86912894 C-63.74389021 1264.79832124 -63.73292687 1261.72773476 -63.72197396 1258.65694737 C-63.72140951 1256.44889892 -63.72172705 1254.2408501 -63.72285897 1252.03280187 C-63.72343219 1246.04996233 -63.71168274 1240.06720317 -63.69771105 1234.0843823 C-63.68519865 1227.82769102 -63.68403279 1221.57099786 -63.68166023 1215.31429601 C-63.67615266 1204.81652079 -63.66366483 1194.3187704 -63.64580208 1183.82100987 C-63.62742741 1173.01111553 -63.61327868 1162.20122919 -63.60478646 1151.39132237 C-63.60426101 1150.72433715 -63.60373556 1150.05735193 -63.60319419 1149.37015504 C-63.600584 1146.0238882 -63.59806113 1142.67762131 -63.59557039 1139.33135438 C-63.57467187 1111.59676593 -63.53949885 1083.86221029 -63.49492317 1056.1276505 C-64.19845693 1056.12916938 -64.90199068 1056.13068826 -65.62684363 1056.13225317 C-107.3548969 1056.22183044 -149.08293897 1056.29042954 -190.81106911 1056.33191182 C-195.82515344 1056.33691444 -200.83923757 1056.34209175 -205.85332161 1056.34737706 C-207.35059702 1056.34895092 -207.35059702 1056.34895092 -208.87812041 1056.35055658 C-225.02530918 1056.36794596 -241.1724408 1056.39947556 -257.31959571 1056.43626168 C-273.89694166 1056.47371195 -290.47425775 1056.49589499 -307.05164427 1056.50400448 C-317.27485506 1056.50948378 -327.49790428 1056.52676879 -337.72106533 1056.55931637 C-344.73832269 1056.58051471 -351.75549692 1056.58683853 -358.77278395 1056.58165601 C-362.81706121 1056.57910249 -366.86105677 1056.58292415 -370.90528351 1056.6044724 C-374.61687934 1056.62410266 -378.32800712 1056.62481539 -382.03962563 1056.61124608 C-383.99970971 1056.60878623 -385.95978922 1056.62588995 -387.9197914 1056.64397573 C-406.18047815 1056.52225648 -421.92226871 1049.71243019 -434.83476692 1036.95186925 C-447.36967288 1023.64388539 -452.99310007 1007.38117139 -452.87523991 989.26057267 C-452.87989983 988.12338687 -452.88455975 986.98620106 -452.88936087 985.81455508 C-452.90127631 982.01814089 -452.89192842 978.22208686 -452.88260323 974.42566991 C-452.88511827 971.67062929 -452.89213426 968.91560412 -452.89892304 966.16057116 C-452.91126753 960.17778522 -452.91251199 954.19507773 -452.90637261 948.21228337 C-452.89726733 939.31538271 -452.905325 930.41855437 -452.91666385 921.52165924 C-452.93631881 905.6292866 -452.93868039 889.7369466 -452.93346865 873.84456471 C-452.92890944 859.93491232 -452.92951318 846.02527283 -452.93530899 832.11562085 C-452.93606586 830.24896976 -452.93682184 828.38231866 -452.93757694 826.51566756 C-452.93872215 823.70270031 -452.93987203 820.88973306 -452.94103618 818.07676582 C-452.95173957 791.92787702 -452.95646811 765.77899251 -452.94856602 739.6301024 C-452.94826885 738.64462221 -452.94797167 737.65914203 -452.94766549 736.6437988 C-452.94521662 728.64128831 -452.942605 720.63877786 -452.93998136 712.63626742 C-452.92987982 681.42430892 -452.93823323 650.21240423 -452.96147591 619.00045323 C-452.98755573 583.92194403 -453.00039448 548.84346721 -452.99328816 513.76494795 C-452.99257211 510.02367445 -452.99189772 506.28240095 -452.99124771 502.54112744 C-452.9910779 501.61995227 -452.9909081 500.6987771 -452.99073314 499.74968753 C-452.98843144 485.85234429 -452.99640099 471.95503116 -453.00953919 458.05769467 C-453.0244569 442.24996987 -453.02528493 426.44231556 -453.00746828 410.63459226 C-452.99791257 401.79270041 -452.99932518 392.95097301 -453.01670296 384.10909218 C-453.02720912 378.19660838 -453.0230687 372.28424957 -453.00722293 366.37177803 C-452.99860938 363.00719074 -452.99834561 359.64318729 -453.01149224 356.27857592 C-453.09687728 332.74900922 -450.62056865 313.29229495 -433.31914192 295.78780675 C-419.47610638 282.74893094 -403.17769796 277.63820039 -384.45422798 277.76688695 C-383.06292446 277.76557618 -381.67162167 277.76294478 -380.28032279 277.75911945 C-376.48555183 277.75245578 -372.69103802 277.76434979 -368.89629978 277.77945364 C-364.79352415 277.79246969 -360.69076176 277.78802062 -356.58797127 277.78574681 C-349.48903234 277.78417758 -342.39017644 277.79355004 -335.29125839 277.81046033 C-325.02756459 277.83489343 -314.76391073 277.84266 -304.500191 277.8464243 C-287.84598719 277.85298203 -271.1918276 277.87292476 -254.53764778 277.90133214 C-238.36447294 277.92889028 -222.19131013 277.95011527 -206.01811653 277.96285558 C-205.02036297 277.96364375 -204.02260941 277.96443192 -202.9946209 277.96524397 C-197.98893408 277.96915923 -192.98324718 277.97295032 -187.97756022 277.97667968 C-146.48331713 278.00775446 -104.98912269 278.06057176 -63.49492317 278.1276505 C-63.49861035 276.98611957 -63.50229752 275.84458863 -63.50609642 274.66846585 C-63.59500273 246.85737548 -63.66067747 219.04630359 -63.70217186 191.23510098 C-63.70625106 188.55459002 -63.71041635 185.8740792 -63.71464974 183.19356847 C-63.71569898 182.52734311 -63.71674822 181.86111774 -63.71782926 181.17470373 C-63.73519776 170.41088287 -63.76671565 159.64714815 -63.80353436 148.88337825 C-63.8410431 137.82501364 -63.86288086 126.76669633 -63.87127715 115.70827138 C-63.87647929 109.50268111 -63.88865536 103.29728568 -63.9178434 97.09175801 C-63.94512968 91.24279371 -63.95334149 85.39410329 -63.9473539 79.54508138 C-63.94844824 77.40624556 -63.95632281 75.26739993 -63.97174507 73.12861943 C-64.11324085 52.48125928 -60.6692085 34.99642761 -46.02910286 19.38082433 C-33.73040074 7.04706554 -17.43699785 0.00684443 0 0 Z " fill="#038387" transform="translate(1174.4949231743813,332.8723495006561)"/>
<path d="M0 0 C256.74 0 513.48 0 778 0 C778.12375 151.0059375 778.12375 151.0059375 778.25 305.0625 C778.28641602 336.87664307 778.32283203 368.69078613 778.36035156 401.46899414 C778.37841797 440.24890137 778.37841797 440.24890137 778.3817749 458.39012146 C778.38575496 471.92605478 778.40300839 485.46190823 778.42669371 498.99781914 C778.45052687 512.80501097 778.45934165 526.61215244 778.4537798 540.41936406 C778.45091325 548.62540334 778.45883279 556.83125501 778.48323038 565.03725952 C778.50003021 571.10003995 778.49584958 577.16261698 778.48360443 583.22541618 C778.48191042 585.67298608 778.48696466 588.12057212 778.49953032 590.56811035 C778.61349946 614.15690505 775.13674848 632.32491527 758.1328125 649.93359375 C746.10165792 661.14103857 730.83240479 667.11637302 714.48288071 667.1311025 C713.74180135 667.13312597 713.00072199 667.13514944 712.23718569 667.13723423 C709.74731057 667.14281116 707.25749075 667.14128588 704.76761055 667.1398077 C702.95941066 667.14236758 701.15121134 667.14536169 699.34301281 667.14875141 C694.35034055 667.15682557 689.35768227 667.15864899 684.36500427 667.15947436 C678.9421945 667.16144221 673.51939234 667.16911714 668.09658706 667.17604691 C657.33031831 667.18887308 646.56405197 667.19624823 635.79777736 667.20194569 C622.90623427 667.20899983 610.01469838 667.22175799 597.12315988 667.23449489 C563.74072068 667.26708222 530.35827634 667.2869984 496.97582658 667.30497666 C489.61161875 667.30895384 482.24741104 667.31313957 474.88320332 667.31733206 C420.08166343 667.34849144 365.28012199 667.37557095 310.47857566 667.39227884 C297.77390289 667.39616554 285.06923016 667.40018566 272.36455745 667.40426309 C270.76977145 667.40477395 269.17498545 667.40528269 267.58019945 667.40578929 C216.36725991 667.4220578 165.15436758 667.45904904 113.94145137 667.50994308 C77.14389178 667.54650149 40.3463421 667.58020432 3.54876518 667.5924921 C2.79185072 667.59274619 2.03493626 667.59300029 1.255085 667.59326208 C-15.36197404 667.59877872 -31.97903306 667.60261915 -48.59609286 667.60488755 C-55.28234527 667.60582551 -61.96859764 667.60698164 -68.65485001 667.60820198 C-69.38661166 667.6083295 -70.11837332 667.60845703 -70.87230957 667.60858841 C-94.43480639 667.61279511 -117.99723994 667.63556503 -141.55971349 667.66795691 C-165.95811761 667.70139274 -190.35644081 667.71335163 -214.75486605 667.70052146 C-228.81996865 667.69377868 -242.88482789 667.70375388 -256.94989252 667.73764846 C-266.34549503 667.75863931 -275.74093257 667.75782675 -285.13653987 667.73931505 C-290.48978994 667.72938791 -295.8425761 667.72889557 -301.19578217 667.75497787 C-306.07199999 667.77854686 -310.94738644 667.77416317 -315.82358418 667.74808118 C-317.57070477 667.74352676 -319.31788888 667.74889058 -321.06493393 667.76576347 C-341.15229727 667.9471442 -357.71812494 661.0243209 -372.234375 646.921875 C-383.42501648 635.48828879 -389.34914026 619.35170161 -389.24050903 603.53405762 C-389.24221788 602.61250649 -389.24392673 601.69095536 -389.24568737 600.74147844 C-389.24896704 597.67067075 -389.23800369 594.60008426 -389.22705078 591.52929688 C-389.22648634 589.32124842 -389.22680387 587.1131996 -389.22793579 584.90515137 C-389.22850901 578.92231183 -389.21675957 572.93955268 -389.20278788 566.9567318 C-389.19027548 560.70004053 -389.18910961 554.44334736 -389.18673706 548.18664551 C-389.18122949 537.68887029 -389.16874165 527.1911199 -389.15087891 516.69335938 C-389.13250423 505.88346503 -389.11835551 495.07357869 -389.10986328 484.26367188 C-389.10933783 483.59668665 -389.10881239 482.92970143 -389.10827102 482.24250454 C-389.10566083 478.8962377 -389.10313796 475.54997081 -389.10064721 472.20370388 C-389.0797487 444.46911543 -389.04457567 416.73455979 -389 389 C-387.95137333 388.99796521 -387.95137333 388.99796521 -386.88156229 388.99588931 C-345.44603751 388.91523522 -304.01054649 388.82427896 -262.57507423 388.71994839 C-257.59961022 388.70742955 -252.624146 388.69499677 -247.64868164 388.68261719 C-246.65815833 388.68015119 -245.66763502 388.6776852 -244.64709585 388.67514448 C-228.60973298 388.63542328 -212.57236306 388.6026731 -196.53497971 388.57250018 C-180.0785445 388.54138365 -163.62213918 388.50277335 -147.16573757 388.45720994 C-137.01168103 388.42933214 -126.85764635 388.40729601 -116.70356183 388.39273749 C-109.74006373 388.38219352 -102.77660793 388.36436904 -95.81314171 388.34083296 C-91.7959112 388.32746955 -87.77873998 388.31730326 -83.76148605 388.31578636 C-80.08046173 388.31432545 -76.39958012 388.30368055 -72.71859967 388.28586559 C-70.76281461 388.27875125 -68.80700159 388.28134584 -66.85120589 388.28433573 C-48.99159937 388.17080543 -32.39935498 382.28772291 -19.25 369.9375 C65.58405594 280.21387312 -0.36969695 123.47878195 0 0 Z " fill="#036C70" transform="translate(1500,1000)"/>
<path d="M0 0 C1.10801151 -0.00247617 1.10801151 -0.00247617 2.2384071 -0.00500236 C4.72008294 -0.00932521 7.20169938 -0.0065267 9.68337673 -0.00377727 C11.48566257 -0.005427 13.28794805 -0.00751331 15.09023294 -0.00999737 C20.06646692 -0.01557255 25.04268371 -0.01489004 30.01891982 -0.01321978 C35.42386163 -0.01248985 40.82879856 -0.01750886 46.2337383 -0.0217948 C56.96438904 -0.0293829 67.69503479 -0.03156827 78.42568793 -0.03212385 C91.27445213 -0.03303669 104.12321173 -0.03970183 116.97197395 -0.04647068 C147.2916434 -0.0621595 177.61131224 -0.06822006 207.93098504 -0.0728777 C223.35574483 -0.07526061 238.78050418 -0.07896403 254.20526363 -0.0829148 C303.67875769 -0.09557948 353.15225172 -0.1063634 402.62574737 -0.10975526 C404.99048274 -0.1099175 407.35521812 -0.11008306 409.71995349 -0.11024964 C414.46249466 -0.11058344 419.20503583 -0.11091392 423.947577 -0.1112442 C429.49998088 -0.1116311 435.05238477 -0.11202071 440.60478865 -0.11241527 C442.19393374 -0.11252769 443.78307883 -0.1126391 445.37222391 -0.11274952 C496.41187537 -0.11629908 547.45151274 -0.1313779 598.49115883 -0.15468726 C635.16462577 -0.17142893 671.83809005 -0.18690395 708.51156086 -0.19142222 C709.26577219 -0.19151571 710.01998352 -0.1916092 710.79704974 -0.19170551 C727.35395398 -0.19372457 743.91085819 -0.19488061 760.46776255 -0.1952341 C766.39220243 -0.19537027 772.31664231 -0.19557927 778.24108218 -0.19582735 C779.71494253 -0.19588891 781.18880288 -0.19594723 782.66266323 -0.1960023 C806.14715087 -0.19692209 829.63162383 -0.20688992 853.11610664 -0.22145979 C877.4293329 -0.23648346 901.74253797 -0.24066429 926.05576784 -0.23236683 C940.0747727 -0.22790437 954.09371732 -0.23179582 968.11271429 -0.24760534 C977.47376841 -0.25733659 986.83478022 -0.25619483 996.19583393 -0.24616911 C1001.53170702 -0.24076373 1006.86746423 -0.24010995 1012.20332784 -0.25267783 C1017.06017052 -0.2640221 1021.91680311 -0.2614864 1026.77363854 -0.24801075 C1028.51718275 -0.24558069 1030.26074318 -0.24814686 1032.00426951 -0.25640723 C1053.47059781 -0.35140057 1070.49541385 4.81411985 1086.39179558 19.92061925 C1102.85519475 37.27193208 1104.10238091 57.51517083 1103.98609489 80.16535497 C1103.9878468 82.69657621 1103.99135852 85.22779673 1103.99647087 87.75901341 C1104.00354617 93.25037996 1103.99826387 98.74151685 1103.98193735 104.23285973 C1103.95742689 112.50412462 1103.95646669 120.77528508 1103.95979854 129.04657978 C1103.96475584 142.91092159 1103.95163904 156.77518737 1103.92737907 170.63950658 C1103.89463438 189.38594836 1103.88696373 208.13226032 1103.88349479 226.87874913 C1103.86250168 271.94089836 1103.80665713 317.0030259 1103.75507683 362.0651505 C1103.67257683 462.7357755 1103.59007683 563.4064005 1103.50507683 667.1276505 C865.24507683 667.1276505 626.98507683 667.1276505 381.50507683 667.1276505 C381.01007683 526.5476505 381.01007683 526.5476505 380.50507683 383.1276505 C375.97267866 366.13115736 370.48173022 351.89302013 354.99726433 342.43624425 C345.06085747 337.21885194 335.55260321 335.1514185 324.50507683 334.1276505 C324.27433464 333.16085362 324.04359245 332.19405675 323.80585808 331.197963 C321.05565407 320.05655229 317.49195018 311.07196394 310.05585808 302.135463 C308.50507683 300.1276505 308.50507683 300.1276505 307.54804558 297.994838 C306.219783 295.61689975 304.96234101 295.21160255 302.50507683 294.1276505 C301.34259601 293.23218964 300.19752842 292.3138242 299.06757683 291.3776505 C286.14222408 281.56972977 271.27814388 278.66794794 255.42005485 278.72892308 C254.03613412 278.72347171 252.65221802 278.71671523 251.2683093 278.70878118 C247.49864215 278.69088563 243.7291733 278.69129683 239.95947379 278.69491065 C235.88190515 278.69553775 231.80440119 278.67888415 227.72686332 278.66439366 C220.67326186 278.64166207 213.61970961 278.62973197 206.56607383 278.62526441 C196.36787734 278.61878936 186.16976959 278.59582821 175.97160897 278.56892111 C159.42336988 278.52570401 142.87513453 278.4957083 126.32685417 278.47408605 C110.2574995 278.45306112 94.18817547 278.42577282 78.11884636 278.39010167 C77.12732951 278.38790285 76.13581267 278.38570402 75.11424986 278.38343856 C70.13980151 278.37236853 65.16535345 278.3611758 60.19090551 278.34992206 C18.96232286 278.25680888 -22.26627649 278.18517761 -63.49492317 278.1276505 C-63.58847807 249.16350002 -63.65895709 220.19937228 -63.70217186 191.23510098 C-63.70625106 188.55459002 -63.71041635 185.8740792 -63.71464974 183.19356847 C-63.71569898 182.52734311 -63.71674822 181.86111774 -63.71782926 181.17470373 C-63.73519776 170.41088287 -63.76671565 159.64714815 -63.80353436 148.88337825 C-63.8410431 137.82501364 -63.86288086 126.76669633 -63.87127715 115.70827138 C-63.87647929 109.50268111 -63.88865536 103.29728568 -63.9178434 97.09175801 C-63.94512968 91.24279371 -63.95334149 85.39410329 -63.9473539 79.54508138 C-63.94844824 77.40624556 -63.95632281 75.26739993 -63.97174507 73.12861943 C-64.11324085 52.48125928 -60.6692085 34.99642761 -46.02910286 19.38082433 C-33.73040074 7.04706554 -17.43699785 0.00684443 0 0 Z " fill="#36C5CF" transform="translate(1174.4949231743813,332.8723495006561)"/>
<path d="M0 0 C1.26876984 0.00273422 1.26876984 0.00273422 2.56317139 0.00552368 C16.14525693 0.05456859 29.38732907 0.7031904 42.75 3.3125 C44.03318115 3.55395752 44.03318115 3.55395752 45.34228516 3.80029297 C89.0187869 12.29090703 127.61279121 35.07596997 158.75 66.3125 C159.50539063 67.03308594 160.26078125 67.75367188 161.0390625 68.49609375 C191.91704108 98.2897286 210.01237074 138.86911464 219 180.25 C219.24508301 181.36689209 219.24508301 181.36689209 219.49511719 182.50634766 C230.54568021 235.79173845 217.4561079 295.87934381 188.25 341.25 C174.84503038 361.56375687 158.90614853 380.24644805 139.75 395.3125 C138.77546875 396.10398437 137.8009375 396.89546875 136.796875 397.7109375 C123.27353106 408.4820431 108.38732878 417.00397483 92.75 424.3125 C91.68394531 424.82167969 90.61789062 425.33085938 89.51953125 425.85546875 C43.5768522 446.72833024 -12.88592856 451.72259551 -61.20361328 435.97460938 C-63.29225938 435.29882696 -65.39143982 434.67083169 -67.49609375 434.046875 C-108.9022303 421.41914203 -147.82386645 394.71633425 -174.25 360.3125 C-174.6816748 359.75191895 -175.11334961 359.19133789 -175.55810547 358.61376953 C-211.44555576 311.71930574 -228.67168819 252.29824656 -220.875 193.44140625 C-219.93295431 187.00359721 -218.7052514 180.65280056 -217.25 174.3125 C-217.00491699 173.1980249 -217.00491699 173.1980249 -216.75488281 172.06103516 C-210.86061689 145.44967748 -200.08802713 119.59044179 -184.25 97.3125 C-183.79512207 96.67119141 -183.34024414 96.02988281 -182.87158203 95.36914062 C-176.92798748 87.06836374 -170.654554 79.28057219 -163.64453125 71.859375 C-161.69879182 69.78984465 -159.86317042 67.6938087 -158.0625 65.5 C-155.48077772 62.45881867 -152.64724547 59.87307155 -149.6015625 57.30078125 C-147.90612106 55.86726016 -146.23719816 54.40216638 -144.5859375 52.91796875 C-104.80735768 17.50331171 -52.73220057 -0.23847421 0 0 Z " fill="#1A9BA1" transform="translate(1944.25,444.6875)"/>
<path d="M0 0 C109.89 0 219.78 0 333 0 C333 109.89 333 219.78 333 333 C223.11 333 113.22 333 0 333 C0 223.11 0 113.22 0 0 Z " fill="#1A9BA1" transform="translate(1778,1167)"/>
<path d="M0 0 C100.98 0 201.96 0 306 0 C306 26.07 306 52.14 306 79 C236.37 79 166.74 79 95 79 C95 122.89 95 166.78 95 212 C159.68 212 224.36 212 291 212 C291 237.74 291 263.48 291 290 C226.32 290 161.64 290 95 290 C95 354.68 95 419.36 95 486 C63.65 486 32.3 486 0 486 C0 325.62 0 165.24 0 0 Z " fill="#FEFEFE" transform="translate(963,757)"/>
<path d="M0 0 C18.48 0 36.96 0 56 0 C56.09048737 48.90175468 56.16207187 97.80348921 56.20426132 146.70531106 C56.20926395 152.48290283 56.21444126 158.26049442 56.21972656 164.03808594 C56.2207758 165.18826627 56.22182505 166.33844661 56.22290608 167.52348089 C56.2402958 186.12982784 56.27182559 204.73612519 56.30861118 223.34244275 C56.34606049 242.44424654 56.36824429 261.5460244 56.37635398 280.64786339 C56.38183347 292.42802896 56.39911959 304.20805431 56.43166587 315.9881767 C56.45286301 324.07397239 56.45918829 332.15969594 56.45400551 340.24551737 C56.45145182 344.90570881 56.45527584 349.56565577 56.4768219 354.22580338 C56.49644935 358.50248006 56.49716639 362.77875051 56.48359558 367.05544686 C56.48192116 368.59274173 56.48685742 370.13006314 56.49953273 371.66730666 C56.65573708 391.80219678 51.33662688 411.13140181 37 426 C21.95804784 439.48320064 5.00515373 444.31987012 -14.76794434 444.24050903 C-16.38352161 444.24138177 -17.9990986 444.24313401 -19.61467409 444.24568737 C-24.04324952 444.25015144 -28.4717279 444.24217013 -32.90029097 444.23213124 C-37.6800177 444.22348551 -42.45973908 444.2264177 -47.23947144 444.22793579 C-55.51707758 444.22898393 -63.79465216 444.22271474 -72.07225037 444.21146011 C-84.04022923 444.19519847 -96.00819285 444.18999642 -107.97618157 444.18748413 C-127.39396042 444.18310807 -146.81172246 444.16980138 -166.22949219 444.15087891 C-185.09081946 444.1325178 -203.95214216 444.11836242 -222.81347656 444.10986328 C-223.97630305 444.10933783 -225.13912954 444.10881239 -226.33719319 444.10827102 C-232.17081588 444.10566092 -238.00443859 444.10313351 -243.83806133 444.10064721 C-292.22538646 444.07991749 -340.61269104 444.04414352 -389 444 C-389 425.85 -389 407.7 -389 389 C-384.86066422 388.99191315 -380.72132843 388.98382629 -376.45655823 388.97549438 C-338.49603762 388.900416 -300.53554895 388.81552925 -262.57507423 388.71994839 C-257.59961022 388.70742955 -252.624146 388.69499677 -247.64868164 388.68261719 C-246.65815833 388.68015119 -245.66763502 388.6776852 -244.64709585 388.67514448 C-228.60973298 388.63542328 -212.57236306 388.6026731 -196.53497971 388.57250018 C-180.0785445 388.54138365 -163.62213918 388.50277335 -147.16573757 388.45720994 C-137.01168103 388.42933214 -126.85764635 388.40729601 -116.70356183 388.39273749 C-109.74006373 388.38219352 -102.77660793 388.36436904 -95.81314171 388.34083296 C-91.7959112 388.32746955 -87.77873998 388.31730326 -83.76148605 388.31578636 C-80.08046173 388.31432545 -76.39958012 388.30368055 -72.71859967 388.28586559 C-70.76281461 388.27875125 -68.80700159 388.28134584 -66.85120589 388.28433573 C-48.99159937 388.17080543 -32.39935498 382.28772291 -19.25 369.9375 C-1.17134756 350.8168503 -0.24465569 328.75941292 -0.3351289 303.90559149 C-0.34447478 299.81852988 -0.32479063 295.73158858 -0.30880737 291.64456177 C-0.28507354 284.58062137 -0.27933175 277.51685534 -0.28615379 270.45288086 C-0.29599049 260.23986639 -0.27815892 250.02704402 -0.25378648 239.81406069 C-0.2149764 223.24029396 -0.19823866 206.66658252 -0.19555664 190.09277344 C-0.19290516 174.00224983 -0.17974967 157.91179076 -0.15258789 141.82128906 C-0.15091451 140.82783612 -0.14924113 139.83438317 -0.14751705 138.81082559 C-0.13905698 133.82647563 -0.13039167 128.84212606 -0.12162435 123.85777664 C-0.04926877 82.57185803 -0.01418063 41.28597616 0 0 Z " fill="#013638" transform="translate(1500,1000)"/>
<path d="M0 0 C1.85141602 -0.0309375 1.85141602 -0.0309375 3.74023438 -0.0625 C32.5743091 -0.1832078 59.6219682 12.68247684 79.875 32.75 C85.22503684 38.19065812 89.97907257 43.69812011 93.9375 50.25 C94.80568359 51.61125 94.80568359 51.61125 95.69140625 53 C110.2351198 76.62175506 115.38021179 106.23394528 109.81030273 133.5378418 C108.99875995 136.83854033 108.01327754 140.02266737 106.9375 143.25 C106.72319336 143.91741211 106.50888672 144.58482422 106.28808594 145.27246094 C101.65434822 159.52440823 94.78527602 171.89874672 84.9375 183.25 C84.26203125 184.06984375 83.5865625 184.8896875 82.890625 185.734375 C66.11483092 205.44899432 41.30862636 217.65713897 15.9375 221.25 C14.26107422 221.52263672 14.26107422 221.52263672 12.55078125 221.80078125 C-14.35729598 225.14610977 -41.70403156 217.82781467 -63.875 202.27734375 C-66.34205138 200.33839556 -68.70770489 198.3233297 -71.0625 196.25 C-71.86945313 195.58613281 -72.67640625 194.92226563 -73.5078125 194.23828125 C-94.54288683 176.40132951 -108.4879623 148.62591754 -111.0625 121.25 C-111.80523048 108.88325823 -110.63642783 97.33459115 -108.0625 85.25 C-107.9078125 84.37988281 -107.753125 83.50976562 -107.59375 82.61328125 C-103.07307665 58.40159803 -84.69431743 34.49664883 -65 20.375 C-63.36773836 19.31219298 -61.72142954 18.27068095 -60.0625 17.25 C-59.15242188 16.66863281 -58.24234375 16.08726562 -57.3046875 15.48828125 C-39.46196152 4.52095235 -20.79804375 0.08502011 0 0 Z " fill="#036C70" transform="translate(1944.0625,555.75)"/>
<path d="M0 0 C16.63785855 0 29.45261417 4.69175958 41.5234375 16.29296875 C53.16740195 29.0205198 57.33152782 44.00895455 57.24050903 60.86402893 C57.24221788 62.03144762 57.24392673 63.19886632 57.24568737 64.40166134 C57.24839926 67.61943506 57.24219761 70.83704525 57.23213124 74.05479968 C57.22345682 77.53320135 57.22641972 81.01159604 57.22793579 84.49000549 C57.22898213 90.50909268 57.22273187 96.52813636 57.21146011 102.5472126 C57.19517391 111.2496726 57.18999392 119.95211165 57.18748413 128.65458523 C57.18311192 142.77535064 57.16981569 156.89609287 57.15087891 171.0168457 C57.13250783 184.73006067 57.11835734 198.44326934 57.10986328 212.15649414 C57.10907511 213.42540749 57.10907511 213.42540749 57.10827102 214.71995545 C57.10566085 218.96399594 57.10313346 223.20803647 57.10064721 227.45207703 C57.07992947 262.6347386 57.04306767 297.8173573 57 333 C38.52 333 20.04 333 1 333 C0.67 223.11 0.34 113.22 0 0 Z " fill="#1B6368" transform="translate(1499,667)"/>
</svg>
