<?xml version="1.0" encoding="UTF-8"?>
<svg version="1.1" xmlns="http://www.w3.org/2000/svg" width="1280" height="820">
<path d="M0 0 C1.23795319 0.00182281 2.47590637 0.00364563 3.75137329 0.00552368 C21.52880276 0.04961859 38.86093499 0.48421523 56.4375 3.3125 C58.13374512 3.56193359 58.13374512 3.56193359 59.86425781 3.81640625 C115.50907471 12.01062526 169.05764273 31.99283537 216.4375 62.3125 C217.97664062 63.28896484 217.97664062 63.28896484 219.546875 64.28515625 C233.24804988 73.19848963 246.36512746 83.05620582 258.66699219 93.81323242 C260.02757765 94.9653774 261.41347897 96.08767802 262.80957031 97.1965332 C269.85039027 102.80365318 276.24206555 108.83765564 282.56396484 115.2331543 C284.19441768 116.8819957 285.8328638 118.52256101 287.47265625 120.16210938 C293.00018086 125.70812331 298.37565015 131.33382238 303.4375 137.3125 C304.29472656 138.28832031 305.15195312 139.26414063 306.03515625 140.26953125 C344.53310234 184.86857815 376.48185903 242.38741949 388.4375 300.3125 C389.66339844 300.39886719 390.88929687 300.48523438 392.15234375 300.57421875 C444.30712607 304.659959 495.29795717 324.54333145 535.4375 358.3125 C535.9442627 358.73047852 536.45102539 359.14845703 536.97314453 359.57910156 C550.35721056 370.62263348 562.82574091 382.54482743 573.4375 396.3125 C574.23414063 397.31539063 575.03078125 398.31828125 575.8515625 399.3515625 C602.42803975 432.98094833 619.23019103 472.36403194 627.4375 514.3125 C627.60411133 515.12912109 627.77072266 515.94574219 627.94238281 516.78710938 C633.41536067 544.82054046 633.20623901 578.35313927 627.4375 606.3125 C627.23350586 607.33569336 627.02951172 608.35888672 626.81933594 609.41308594 C618.22276716 651.67016421 600.61505775 690.75210446 573.4375 724.3125 C572.99744629 724.85696777 572.55739258 725.40143555 572.10400391 725.96240234 C560.6460446 740.00936068 547.88400974 753.32837689 533.4375 764.3125 C532.26251566 765.23894299 531.08807379 766.16607424 529.9140625 767.09375 C519.63026378 775.11725819 508.75583721 781.85347754 497.4375 788.3125 C496.74640137 788.7156543 496.05530273 789.11880859 495.34326172 789.53417969 C460.94597885 809.5133888 419.36214377 820.50431368 379.61347198 820.44392776 C377.71602587 820.44700672 377.71602587 820.44700672 375.78024751 820.45014787 C372.27898637 820.45568211 368.77774984 820.45504809 365.27648573 820.45337028 C361.46329528 820.45263631 357.6501116 820.45766885 353.83692408 820.4619453 C346.27811529 820.46951008 338.71931357 820.47171758 331.16050139 820.47227435 C322.10420415 820.47318952 313.0479134 820.4798617 303.99161896 820.48662117 C282.10209065 820.50266941 260.21256304 820.50858353 238.32302991 820.51336992 C227.96153101 820.51570748 217.60003266 820.51931035 207.23853419 820.5230653 C171.75008536 820.535901 136.26163683 820.54661919 100.77318573 820.5500679 C98.54600009 820.55028953 96.31881446 820.55051132 94.09162882 820.55073325 C91.85914073 820.55095389 89.62665265 820.55117437 87.39416456 820.5513947 C82.91560841 820.55183725 78.43705225 820.55228436 73.95849609 820.55273438 C72.8480772 820.55284377 71.73765831 820.55295316 70.59359036 820.55306586 C34.61129418 820.55669419 -1.37098183 820.57260567 -37.35327028 820.59592474 C-75.42060963 820.62054982 -113.48793744 820.63424202 -151.55528498 820.63543582 C-155.73856259 820.63560726 -159.92184019 820.63582269 -164.1051178 820.63607025 C-165.65011091 820.6361539 -165.65011091 820.6361539 -167.226316 820.63623925 C-183.76609157 820.63738749 -200.30584635 820.64839038 -216.84561491 820.66295731 C-233.488894 820.67736125 -250.13214659 820.68053739 -266.7754302 820.67251733 C-276.64810275 820.66807908 -286.52068948 820.67184891 -296.39335067 820.68775584 C-303.00702665 820.69757182 -309.62064311 820.69626511 -316.23431867 820.68631961 C-319.99029534 820.68097473 -323.74610834 820.68006195 -327.50207084 820.69282833 C-350.28228288 820.76540173 -372.74309346 819.45707129 -395.0625 814.625 C-396.26060303 814.36936279 -397.45870605 814.11372559 -398.69311523 813.8503418 C-452.09840971 802.05709734 -501.91014796 776.92140785 -542.5625 740.3125 C-543.12163086 739.80976562 -543.68076172 739.30703125 -544.25683594 738.7890625 C-554.20304678 729.80612365 -563.9620576 720.61302985 -572.5625 710.3125 C-573.00400391 709.79010742 -573.44550781 709.26771484 -573.90039062 708.72949219 C-587.83712803 692.18989098 -599.86327326 674.72025731 -610.23242188 655.73779297 C-611.44169313 653.53278184 -612.67694221 651.34515115 -613.921875 649.16015625 C-630.78076877 619.09642217 -640.72122641 585.11400319 -646.5625 551.3125 C-646.74039063 550.32507813 -646.91828125 549.33765625 -647.1015625 548.3203125 C-652.5421278 516.79957702 -652.25078476 480.7692769 -646.5625 449.3125 C-646.36382324 448.1776416 -646.16514648 447.0427832 -645.96044922 445.87353516 C-635.49873358 387.53085878 -609.92475804 331.33761129 -569.59375 287.52734375 C-567.78408012 285.55410756 -566.04410109 283.54142187 -564.3125 281.5 C-556.75885893 272.83708297 -548.41985075 264.63398016 -539.5625 257.3125 C-539.02850586 256.86471191 -538.49451172 256.41692383 -537.94433594 255.95556641 C-484.40333476 211.12821293 -413.65536238 179.56178406 -342.875 180.25 C-341.97072266 180.25451172 -341.06644531 180.25902344 -340.13476562 180.26367188 C-337.94398062 180.27526333 -335.75323056 180.29318896 -333.5625 180.3125 C-333.20478516 179.27416016 -333.20478516 179.27416016 -332.83984375 178.21484375 C-331.32915532 174.78230092 -329.32571476 171.8862364 -327.125 168.875 C-326.68397949 168.26591797 -326.24295898 167.65683594 -325.78857422 167.02929688 C-307.74620499 142.29491821 -287.10904515 117.97972928 -263.5625 98.3125 C-262.68335938 97.54421875 -261.80421875 96.7759375 -260.8984375 95.984375 C-239.62314441 77.47296269 -216.16675892 62.00800749 -191.5625 48.3125 C-190.82805664 47.89935547 -190.09361328 47.48621094 -189.33691406 47.06054688 C-131.83662743 14.90930109 -65.54789864 -0.20032809 0 0 Z " fill="#0078D4" transform="translate(649.5625,-0.31250000000000006)"/>
<path d="M0 0 C0.94319092 0.59127686 1.88638184 1.18255371 2.8581543 1.79174805 C3.94032227 2.46077148 5.02249023 3.12979492 6.13745117 3.8190918 C6.71309814 4.18196289 7.28874512 4.54483398 7.88183594 4.91870117 C10.35660283 6.47839155 12.84628856 8.01351311 15.3354187 9.55014038 C16.65494196 10.36488688 17.97371558 11.18084856 19.29177856 11.99795532 C25.92701808 16.10580946 32.63576153 20.08542717 39.35604858 24.05209351 C50.07092223 30.37768312 60.74608446 36.76361725 71.36987305 43.2409668 C82.89556267 50.26633859 94.48270763 57.18384093 106.09838867 64.05932617 C107.36207314 64.80735177 108.62574515 65.55539842 109.8894043 66.3034668 C110.50999222 66.67080933 111.13058014 67.03815186 111.76997375 67.41662598 C116.7735547 70.38119152 121.76090108 73.37229584 126.74563599 76.3684082 C131.10502659 78.98680908 135.47422435 81.58812625 139.8503418 84.1784668 C140.47250076 84.54677612 141.09465973 84.91508545 141.735672 85.29455566 C143.01501746 86.05185163 144.29437038 86.80913499 145.57373047 87.56640625 C157.11736902 94.40166103 168.62090972 101.29700032 180.07528687 108.28076172 C189.46591649 114.00402606 198.90605312 119.63965328 208.36987305 125.2409668 C218.98117403 131.52143537 229.55086532 137.8638918 240.07885742 144.28295898 C250.1423905 150.41632094 260.2654418 156.44512795 270.40786743 162.44696045 C279.82999392 168.02402225 289.21125305 173.66253212 298.55737305 179.3659668 C307.93836377 185.09023139 317.37633739 190.70542373 326.86987305 196.2409668 C336.94568787 202.1160284 346.95140388 208.09304873 356.9074707 214.16870117 C366.35298873 219.93134595 375.8476091 225.60611816 385.36987305 231.2409668 C395.9806591 237.52081005 406.5501019 243.86228453 417.07684326 250.2819519 C426.50607136 256.03016412 435.9894875 261.68222055 445.49487305 267.3034668 C459.55595081 275.6190688 473.49353601 284.12054484 487.36987305 292.7409668 C485.70115574 298.04915324 483.46116106 302.3448424 480.55737305 307.0534668 C480.07453857 307.83818359 479.5917041 308.62290039 479.09423828 309.43139648 C473.74022821 317.96977308 467.70650615 325.91393271 461.36987305 333.7409668 C460.88437988 334.34360352 460.39888672 334.94624023 459.89868164 335.56713867 C448.52380944 349.56818206 435.74152743 362.8137585 421.36987305 373.7409668 C420.1948887 374.66740978 419.02044683 375.59454103 417.84643555 376.5222168 C407.56263682 384.54572498 396.68821025 391.28194434 385.36987305 397.7409668 C384.3332251 398.34569824 384.3332251 398.34569824 383.27563477 398.96264648 C348.8783519 418.9418556 307.29451681 429.93278048 267.54584503 429.87239456 C266.28088095 429.8744472 265.01591688 429.87649983 263.71262056 429.87861466 C260.21135941 429.88414891 256.71012288 429.88351488 253.20885878 429.88183707 C249.39566833 429.88110311 245.58248465 429.88613565 241.76929712 429.89041209 C234.21048834 429.89797688 226.65168662 429.90018438 219.09287444 429.90074115 C210.03657719 429.90165632 200.98028645 429.9083285 191.92399201 429.91508797 C170.0344637 429.93113621 148.14493609 429.93705033 126.25540295 429.94183672 C115.89390405 429.94417428 105.53240571 429.94777715 95.17090724 429.9515321 C59.68245841 429.9643678 24.19400988 429.97508599 -11.29444122 429.9785347 C-13.52162686 429.97875633 -15.7488125 429.97897811 -17.97599813 429.97920005 C-20.20848622 429.97942069 -22.44097431 429.97964117 -24.67346239 429.9798615 C-29.15201855 429.98030404 -33.6305747 429.98075116 -38.10913086 429.98120117 C-39.21954975 429.98131056 -40.32996865 429.98141995 -41.4740366 429.98153266 C-77.45633278 429.98516099 -113.43860878 430.00107246 -149.42089724 430.02439154 C-187.48823658 430.04901661 -225.5555644 430.06270882 -263.62291193 430.06390262 C-267.80618954 430.06407406 -271.98946715 430.06428949 -276.17274475 430.06453705 C-277.71773786 430.0646207 -277.71773786 430.0646207 -279.29394295 430.06470604 C-295.83371852 430.06585429 -312.3734733 430.07685718 -328.91324186 430.0914241 C-345.55652095 430.10582805 -362.19977354 430.10900419 -378.84305716 430.10098413 C-388.71572971 430.09654588 -398.58831644 430.10031571 -408.46097762 430.11622263 C-415.0746536 430.12603862 -421.68827007 430.12473191 -428.30194562 430.1147864 C-432.05792229 430.10944152 -435.8137353 430.10852875 -439.5696978 430.12129512 C-462.34990983 430.19386853 -484.81072041 428.88553809 -507.13012695 424.0534668 C-508.32822998 423.79782959 -509.52633301 423.54219238 -510.76074219 423.27880859 C-564.16603666 411.48556414 -613.97777491 386.34987465 -654.63012695 349.7409668 C-655.18925781 349.23823242 -655.74838867 348.73549805 -656.32446289 348.2175293 C-666.26981581 339.23536528 -676.03522129 330.04499328 -684.63012695 319.7409668 C-685.10885254 319.17071777 -685.58757812 318.60046875 -686.08081055 318.01293945 C-692.87073299 309.89974791 -699.22042877 301.85209422 -704.63012695 292.7409668 C-694.82389987 288.08522753 -684.87093921 283.84844259 -674.84918213 279.68362427 C-670.08380856 277.70292796 -665.3220599 275.71354452 -660.55981445 273.7253418 C-659.57355072 273.31381363 -658.58728699 272.90228546 -657.57113647 272.47828674 C-647.12029463 268.11547668 -636.68655406 263.71245258 -626.25512695 259.3034668 C-624.37638775 258.5096741 -622.49764424 257.71589159 -620.61889648 256.92211914 C-614.95567781 254.52910055 -609.29286353 252.13512595 -603.63012695 249.7409668 C-596.08883859 246.55257116 -588.54730522 243.36475687 -581.00512695 240.1784668 C-580.07396057 239.78507111 -579.14279419 239.39167542 -578.18341064 238.98635864 C-563.6223913 232.8359937 -549.04644216 226.72193475 -534.46258545 220.62594604 C-520.67229002 214.86109355 -506.89704345 209.06141598 -493.13012695 203.2409668 C-478.47552706 197.04521817 -463.80982369 190.87701622 -449.13012695 184.7409668 C-434.49359652 178.62230196 -419.86849023 172.47726587 -405.25512695 166.3034668 C-404.3241217 165.91015167 -403.39311646 165.51683655 -402.43389893 165.11160278 C-395.83223326 162.32235658 -389.23111683 159.53181185 -382.63012695 156.7409668 C-375.08883859 153.55257116 -367.54730522 150.36475687 -360.00512695 147.1784668 C-359.07396057 146.78507111 -358.14279419 146.39167542 -357.18341064 145.98635864 C-342.62169908 139.83570132 -328.04479887 133.72198504 -313.46057129 127.62493896 C-299.71424925 121.87746496 -285.98002616 116.10191089 -272.25512695 110.3034668 C-271.3241217 109.91015167 -270.39311646 109.51683655 -269.43389893 109.11160278 C-262.83223326 106.32235658 -256.23111683 103.53181185 -249.63012695 100.7409668 C-242.08883859 97.55257116 -234.54730522 94.36475687 -227.00512695 91.1784668 C-226.07396057 90.78507111 -225.14279419 90.39167542 -224.18341064 89.98635864 C-209.6223913 83.8359937 -195.04644216 77.72193475 -180.46258545 71.62594604 C-166.67229002 65.86109355 -152.89704345 60.06141598 -139.13012695 54.2409668 C-124.47552684 48.04521808 -109.80980662 41.87705741 -95.13012695 35.7409668 C-79.99393299 29.41323224 -64.86927161 23.05869611 -49.75512695 16.6784668 C-48.84061768 16.29263428 -47.9261084 15.90680176 -46.98388672 15.50927734 C-45.19924253 14.75620631 -43.41475536 14.00276307 -41.63043213 13.24893188 C-39.90032536 12.51813979 -38.16982237 11.78828495 -36.43890381 11.05941772 C-31.88301297 9.136429 -27.34408228 7.18090398 -22.82055664 5.18286133 C-21.86680145 4.76468643 -20.91304626 4.34651154 -19.9303894 3.91566467 C-18.10386339 3.11346414 -16.28051525 2.3039751 -14.46096802 1.48606873 C-13.63877777 1.12618362 -12.81658752 0.76629852 -11.96948242 0.39550781 C-11.25033661 0.07534195 -10.5311908 -0.24482391 -9.79025269 -0.57469177 C-6.10201659 -1.74314819 -3.48342512 -1.66750425 0 0 Z " fill="#27A7E9" transform="translate(761.630126953125,390.259033203125)"/>
<path d="M0 0 C1.23795319 0.00182281 2.47590637 0.00364563 3.75137329 0.00552368 C21.52880276 0.04961859 38.86093499 0.48421523 56.4375 3.3125 C57.56833008 3.47878906 58.69916016 3.64507812 59.86425781 3.81640625 C115.50907471 12.01062526 169.05764273 31.99283537 216.4375 62.3125 C217.97664062 63.28896484 217.97664062 63.28896484 219.546875 64.28515625 C233.24804988 73.19848963 246.36512746 83.05620582 258.66699219 93.81323242 C260.02757765 94.9653774 261.41347897 96.08767802 262.80957031 97.1965332 C269.85039027 102.80365318 276.24206555 108.83765564 282.56396484 115.2331543 C284.19441768 116.8819957 285.8328638 118.52256101 287.47265625 120.16210938 C293.00018086 125.70812331 298.37565015 131.33382238 303.4375 137.3125 C304.29472656 138.28832031 305.15195312 139.26414063 306.03515625 140.26953125 C344.53310234 184.86857815 376.48185903 242.38741949 388.4375 300.3125 C387.37128418 300.32708252 386.30506836 300.34166504 385.20654297 300.35668945 C356.18671684 300.70027676 356.18671684 300.70027676 327.4375 304.3125 C326.53241699 304.4667041 325.62733398 304.6209082 324.69482422 304.77978516 C295.36412653 309.81120123 268.47185291 321.11727592 241.35005188 332.89498901 C232.57534073 336.70040841 223.75448424 340.39235268 214.9263916 344.0718689 C210.43398169 345.94449181 205.94343953 347.8215779 201.453125 349.69921875 C200.55374207 350.07526749 199.65435913 350.45131622 198.72772217 350.83876038 C189.26018036 354.80025685 179.80724863 358.79615971 170.3548584 362.79364014 C167.52670589 363.98871506 164.69761435 365.18153642 161.86816406 366.37353516 C160.01625148 367.15391307 158.16436328 367.93434886 156.3125 368.71484375 C154.95327423 369.28770111 154.95327423 369.28770111 153.56658936 369.87213135 C148.17352283 372.14826496 142.79000026 374.44538317 137.41358948 376.76057434 C134.06624214 378.19975795 130.7141247 379.62758645 127.36105347 381.05337524 C125.80446452 381.71866829 124.25013196 382.38926919 122.69827271 383.06552124 C120.57653637 383.98964739 118.44775511 384.89518884 116.31640625 385.796875 C115.1260376 386.30959961 113.93566895 386.82232422 112.70922852 387.35058594 C108.36006134 388.62927549 105.40462395 388.25377544 101.33642578 386.30712891 C100.6917334 385.88866699 100.04704102 385.47020508 99.3828125 385.0390625 C98.2386084 384.31130615 98.2386084 384.31130615 97.07128906 383.56884766 C95.82943848 382.76133057 95.82943848 382.76133057 94.5625 381.9375 C92.6867817 380.74702341 90.80904176 379.55972834 88.9296875 378.375 C87.8994043 377.7253125 86.86912109 377.075625 85.80761719 376.40625 C79.49393257 372.48375223 73.08664166 368.71835535 66.6875 364.9375 C63.91114992 363.29479168 61.13524829 361.65132634 58.359375 360.0078125 C57.68051239 359.6060379 57.00164978 359.20426331 56.30221558 358.79031372 C50.16541834 355.15632129 44.04880311 351.48919453 37.9375 347.8125 C29.20483387 342.55993983 20.44839997 337.34895375 11.68066406 332.15527344 C0.32238851 325.42664179 -10.99873787 318.64339966 -22.2706604 311.77105713 C-31.6603713 306.04833689 -41.09959884 300.41326973 -50.5625 294.8125 C-61.17380098 288.53203143 -71.74349227 282.189575 -82.27148438 275.77050781 C-92.33230426 269.63879946 -102.45215468 263.6107684 -112.59243774 257.61154175 C-121.59365086 252.28502438 -130.55756826 246.90288909 -139.48440552 241.45266724 C-151.39024482 234.18569112 -163.37047108 227.08944562 -175.5625 220.3125 C-176.32191895 219.88420898 -177.08133789 219.45591797 -177.86376953 219.01464844 C-225.40450882 192.30821029 -279.45590998 181.09004763 -333.5625 180.3125 C-331.94304494 176.04048145 -329.80996613 172.54883719 -327.125 168.875 C-326.68397949 168.26591797 -326.24295898 167.65683594 -325.78857422 167.02929688 C-307.74620499 142.29491821 -287.10904515 117.97972928 -263.5625 98.3125 C-262.68335938 97.54421875 -261.80421875 96.7759375 -260.8984375 95.984375 C-239.62314441 77.47296269 -216.16675892 62.00800749 -191.5625 48.3125 C-190.82805664 47.89935547 -190.09361328 47.48621094 -189.33691406 47.06054688 C-131.83662743 14.90930109 -65.54789864 -0.20032809 0 0 Z " fill="#0264B8" transform="translate(649.5625,-0.31250000000000006)"/>
<path d="M0 0 C0.87811844 -0.00705963 1.75623688 -0.01411926 2.66096497 -0.02139282 C38.95970535 -0.24696407 38.95970535 -0.24696407 56.42578125 3.203125 C57.45912598 3.39648438 58.4924707 3.58984375 59.55712891 3.7890625 C102.40160051 11.94152693 142.96065329 30.04910363 176.42578125 58.203125 C176.93254395 58.62110352 177.43930664 59.03908203 177.96142578 59.46972656 C191.34549181 70.51325848 203.81402216 82.43545243 214.42578125 96.203125 C215.62074219 97.70746094 215.62074219 97.70746094 216.83984375 99.2421875 C243.416321 132.87157333 260.21847228 172.25465694 268.42578125 214.203125 C268.67569824 215.42805664 268.67569824 215.42805664 268.93066406 216.67773438 C274.40364192 244.71116546 274.19452026 278.24376427 268.42578125 306.203125 C268.11979004 307.73791504 268.11979004 307.73791504 267.80761719 309.30371094 C262.45237628 335.62779905 253.6297805 360.27206441 241.42578125 384.203125 C231.65530456 378.65998652 221.95544573 373.00789548 212.30078125 367.265625 C211.61258301 366.85683105 210.92438477 366.44803711 210.21533203 366.02685547 C200.01354341 359.96566897 189.852717 353.84051828 179.72064209 347.66360474 C169.65647607 341.52977322 159.53249522 335.50105052 149.38980103 329.49813843 C139.92767802 323.89638305 130.50267355 318.23840979 121.11328125 312.515625 C108.80731679 305.01731285 96.42512963 297.65269248 84.01708984 290.32470703 C77.50392965 286.47768451 70.99468024 282.62407091 64.48828125 278.765625 C63.81333618 278.36539124 63.13839111 277.96515747 62.44299316 277.55279541 C52.49599232 271.65120136 42.59245063 265.68194765 32.71707153 259.66140747 C23.32755032 253.93876621 13.88850778 248.30379137 4.42578125 242.703125 C-6.18551973 236.42265643 -16.75521102 230.0802 -27.28320312 223.66113281 C-37.34673621 217.52777086 -47.4697875 211.49896385 -57.61221313 205.49713135 C-67.03433962 199.92006955 -76.41559875 194.28155968 -85.76171875 188.578125 C-95.14270947 182.85386041 -104.58068309 177.23866806 -114.07421875 171.703125 C-124.15003357 165.8280634 -134.15574959 159.85104306 -144.11181641 153.77539062 C-153.55733444 148.01274585 -163.05195481 142.33797363 -172.57421875 136.703125 C-183.74372135 130.09261328 -194.86312171 123.40689419 -205.94335938 116.64794922 C-212.37068894 112.73434199 -218.81827024 108.85823672 -225.29296875 105.0234375 C-226.02604248 104.58920471 -226.75911621 104.15497192 -227.5144043 103.70758057 C-231.09706585 101.5867994 -234.6819765 99.4699143 -238.26953125 97.35742188 C-239.56902563 96.5898695 -240.86850553 95.82229262 -242.16796875 95.0546875 C-242.75831909 94.70858429 -243.34866943 94.36248108 -243.95690918 94.00588989 C-246.96722502 92.2253016 -249.82527294 90.36720658 -252.57421875 88.203125 C-251.37337646 87.72786377 -250.17253418 87.25260254 -248.93530273 86.76293945 C-236.43289253 81.79820735 -224.01993586 76.64458598 -211.63671875 71.390625 C-209.67863912 70.56171547 -207.72046631 69.73302605 -205.76220703 68.90454102 C-201.71137434 67.19050457 -197.66093458 65.47554504 -193.61083984 63.75976562 C-163.03738565 50.80904372 -132.45797663 37.86965375 -101.796875 25.12756348 C-99.74791945 24.27536991 -97.69998737 23.42076948 -95.65234375 22.56542969 C-65.37790497 9.95948976 -33.09220387 0.1784849 0 0 Z " fill="#1390DE" transform="translate(1008.57421875,299.796875)"/>
</svg>
