<svg width="800" height="800" version="1.1" xmlns="http://www.w3.org/2000/svg" desc="Created with imagetracer.js version 1.2.6" ><path fill="rgb(0,0,0)" stroke="rgb(0,0,0)" stroke-width="1" opacity="0" d="M 0 0 L 448 0.5 Q 437.7 2.7 432 9.5 Q 425.2 16.2 423 27.5 L 423 199 L 286.5 199 Q 272.9 201.9 266 211.5 Q 260.6 218.1 259 228.5 L 259 400 L 123.5 400 Q 112.4 402.9 106 410.5 Q 100.1 417.1 98 427.5 L 98 772.5 Q 100.8 785.7 109.5 793 Q 114.5 798 123 799.5 L 0 800 L 0 0 Z " /><path fill="rgb(0,0,0)" stroke="rgb(0,0,0)" stroke-width="1" opacity="0" d="M 677.5 0 L 799.5 0 L 800 0.5 L 800 800 L 677 799.5 Q 689.7 796.2 696 786.5 L 702 772.5 L 702 27.5 Q 699.2 14.3 690.5 7 L 682.5 2 L 677.5 1 L 677.5 0 Z " /><path fill="rgb(229,176,18)" stroke="rgb(229,176,18)" stroke-width="1" opacity="0.996078431372549" d="M 448.5 0 L 676.5 0 Q 686.1 2.4 692 8.5 L 694 11.5 L 697 14.5 L 702 27.5 L 702 139.5 L 701 144 L 424.5 144 L 424 140.5 L 423 139.5 L 423 28.5 Q 425.2 15.2 433.5 8 Q 439.3 2.3 448.5 0 Z " /><path fill="rgb(229,176,18)" stroke="rgb(229,176,18)" stroke-width="1" opacity="0.996078431372549" d="M 377 660 L 536.5 660 L 537 660.5 L 537 700 L 377.5 700 L 377 699.5 L 377 660 Z " /><path fill="rgb(229,176,18)" stroke="rgb(229,176,18)" stroke-width="1" opacity="0.996078431372549" d="M 376.5 780 L 377 799.5 L 376 799.5 L 376.5 780 Z " /><path fill="rgb(222,161,14)" stroke="rgb(222,161,14)" stroke-width="1" opacity="0.996078431372549" d="M 423.5 140 L 424 144 L 700.5 144 L 701 140.5 L 702 140.5 L 701.5 276 L 701 268 L 585.5 268 L 585 267.5 L 585 260 L 574 260 L 574 246 L 568.5 246 L 568 244.5 L 566 237 Q 562.3 238.5 563 235.5 L 559.5 229 L 557.5 229 L 553 224.5 Q 553.8 222.3 551.5 223 L 546.5 222 L 538.5 217 L 533 216 Q 531.2 209.7 525.5 206 Q 519.4 200.6 509.5 199 L 423 199 L 423.5 140 Z " /><path fill="rgb(222,161,14)" stroke="rgb(222,161,14)" stroke-width="1" opacity="0.996078431372549" d="M 537.5 586 L 538 677.5 L 537 677.5 L 537.5 586 Z " /><path fill="rgb(222,161,14)" stroke="rgb(222,161,14)" stroke-width="1" opacity="0.996078431372549" d="M 377 700 L 537 700 L 537 800 L 377 800 L 377 700 Z " /><path fill="rgb(246,218,99)" stroke="rgb(246,218,99)" stroke-width="1" opacity="0.9921568627450981" d="M 259.5 289 L 260 303.5 L 259 303.5 L 259.5 289 Z " /><path fill="rgb(246,218,99)" stroke="rgb(246,218,99)" stroke-width="1" opacity="0.9921568627450981" d="M 259.5 344 L 260 356.5 L 259 356.5 L 259.5 344 Z " /><path fill="rgb(246,218,99)" stroke="rgb(246,218,99)" stroke-width="1" opacity="0.9921568627450981" d="M 98.5 546 L 99 551 L 375.5 551 L 376 551.5 L 376 609 L 99.5 609 L 99 612.5 L 98 612.5 L 98.5 546 Z " /><path fill="rgb(244,214,104)" stroke="rgb(244,214,104)" stroke-width="1" opacity="0.996078431372549" d="M 537.5 232 L 538 260.5 L 537 260.5 L 537.5 232 Z " /><path fill="rgb(244,214,104)" stroke="rgb(244,214,104)" stroke-width="1" opacity="0.996078431372549" d="M 260 289 L 536.5 289 L 537 289.5 L 537 367 L 260.5 367 L 260 366.5 L 260 344.5 L 259 343.5 L 259 304.5 L 260 303.5 L 260 289 Z " /><path fill="rgb(244,214,104)" stroke="rgb(244,214,104)" stroke-width="1" opacity="0.996078431372549" d="M 363.5 406 L 364.5 408 L 363.5 406 Z " /><path fill="rgb(244,214,104)" stroke="rgb(244,214,104)" stroke-width="1" opacity="0.996078431372549" d="M 368.5 411 L 369.5 413 L 368.5 411 Z " /><path fill="rgb(244,214,104)" stroke="rgb(244,214,104)" stroke-width="1" opacity="0.996078431372549" d="M 376.5 429 L 377 487.5 L 376 487.5 L 376.5 429 Z " /><path fill="rgb(211,145,11)" stroke="rgb(211,145,11)" stroke-width="1" opacity="0.996078431372549" d="M 534.5 216 L 546.5 222 L 553 223 L 557.5 229 L 561 230.5 L 563 237 Q 566.8 235.5 566 238.5 L 568 246 L 574 246 L 574 260 L 585 260 L 585 267.5 L 585.5 268 L 700.5 268 L 701 268.5 L 701 275.5 L 702 276.5 L 702 420 L 585.5 420 L 585 419.5 L 585 414 L 578 414 L 578 408 L 574 407.5 L 574 400 L 569 399.5 L 569 386 L 566 386 Q 567 383 564 384 L 564 377 L 561 377 L 561 372 Q 557.7 373.1 559 369 L 556 369 L 556 358 L 553 358 L 553 353 L 550 352.5 L 550 340 L 545.5 340 L 545 338 L 538.5 338 L 538 337.5 L 538 225.5 L 534.5 216 Z " /><path fill="rgb(211,145,11)" stroke="rgb(211,145,11)" stroke-width="1" opacity="0.996078431372549" d="M 537.5 678 L 538 799.5 L 537 799.5 L 537.5 678 Z " /><path fill="rgb(248,227,128)" stroke="rgb(248,227,128)" stroke-width="1" opacity="0.9921568627450981" d="M 286.5 199 L 511.5 200 Q 523.5 203 530 211.5 Q 537.6 219.2 537 234 L 260.5 234 L 260 234.5 L 260 242.5 L 259 242.5 L 260 223.5 Q 263.7 211.7 272.5 205 L 286.5 199 Z " /><path fill="rgb(248,227,128)" stroke="rgb(248,227,128)" stroke-width="1" opacity="0.9921568627450981" d="M 123.5 400 L 347.5 400 Q 363.6 402.9 371 414.5 L 376 426.5 L 376 479 L 99.5 479 L 99 482.5 L 98 482.5 L 98 427.5 Q 100.8 414.3 109.5 407 L 123.5 400 Z " /><path fill="rgb(247,222,116)" stroke="rgb(247,222,116)" stroke-width="1" opacity="0.996078431372549" d="M 260 234 L 536.5 234 L 537 234.5 L 537 289 L 259.5 289 L 259 288.5 L 259 243.5 L 260 242.5 L 260 234 Z " /><path fill="rgb(247,222,116)" stroke="rgb(247,222,116)" stroke-width="1" opacity="0.996078431372549" d="M 365.5 408 L 367.5 411 L 365.5 408 Z " /><path fill="rgb(247,222,116)" stroke="rgb(247,222,116)" stroke-width="1" opacity="0.996078431372549" d="M 99 479 L 375.5 479 L 376 479.5 L 376 551 L 99.5 551 Q 98.5 551 99 546.5 L 98 545.5 L 98 483.5 L 99 479 Z " /><path fill="rgb(239,198,62)" stroke="rgb(239,198,62)" stroke-width="1" opacity="0.996078431372549" d="M 526.5 207 L 529.5 211 L 526.5 207 Z " /><path fill="rgb(239,198,62)" stroke="rgb(239,198,62)" stroke-width="1" opacity="0.996078431372549" d="M 537.5 362 L 538 444.5 L 537 444.5 L 537.5 362 Z " /><path fill="rgb(239,198,62)" stroke="rgb(239,198,62)" stroke-width="1" opacity="0.996078431372549" d="M 377 449 L 537 449 L 537 547 L 377 547 L 377 449 Z " /><path fill="rgb(239,198,62)" stroke="rgb(239,198,62)" stroke-width="1" opacity="0.996078431372549" d="M 376.5 578 L 377 698.5 L 376 698.5 L 376.5 578 Z " /><path fill="rgb(239,198,62)" stroke="rgb(239,198,62)" stroke-width="1" opacity="0.996078431372549" d="M 98.5 735 L 99 739 L 375.5 739 L 376 739.5 L 376 800 L 123.5 800 L 115.5 797 L 107 791 L 100 779.5 L 98 772.5 L 98.5 735 Z " /><path fill="rgb(198,123,7)" stroke="rgb(198,123,7)" stroke-width="1" opacity="0.996078431372549" d="M 538 338 L 544.5 338 Q 543.7 341.5 550 340 L 550 352.5 L 553 353 L 553 358 L 556 358 L 556 369 L 559 369 Q 558 373.3 561 372.5 L 561 377 L 564 377 L 564 384 L 569 386.5 L 569 400 L 574 400 L 574 408 L 578 408 L 578 414 L 585 414 L 585 420 L 702 420 L 702 610 L 585 610 L 585 602 L 578 602 L 578 594 L 571 594 L 571 582.5 Q 568.3 583.1 569 580 L 566 580 L 566 571 L 561 571 L 561 563.5 L 559 562.5 L 559 555 L 556 554.5 L 556 547 L 550 547 L 550 540 L 538 540 L 538 338 Z " /><path fill="rgb(242,208,78)" stroke="rgb(242,208,78)" stroke-width="1" opacity="0.996078431372549" d="M 424.5 199 L 507 199.5 L 424.5 200 L 424.5 199 Z " /><path fill="rgb(242,208,78)" stroke="rgb(242,208,78)" stroke-width="1" opacity="0.996078431372549" d="M 537.5 229 L 538 231.5 L 537 231.5 L 537.5 229 Z " /><path fill="rgb(242,208,78)" stroke="rgb(242,208,78)" stroke-width="1" opacity="0.996078431372549" d="M 537.5 261 L 538 361.5 L 537 361.5 L 537.5 261 Z " /><path fill="rgb(242,208,78)" stroke="rgb(242,208,78)" stroke-width="1" opacity="0.996078431372549" d="M 259.5 357 L 260 367 L 536.5 367 L 537 367.5 L 537 449 L 377.5 449 L 377 448.5 L 377 429.5 Q 374.1 413.9 363.5 406 L 350.5 400 L 259 400 L 259.5 357 Z " /><path fill="rgb(242,208,78)" stroke="rgb(242,208,78)" stroke-width="1" opacity="0.996078431372549" d="M 376.5 488 L 377 577.5 L 376 577.5 L 376.5 488 Z " /><path fill="rgb(242,208,78)" stroke="rgb(242,208,78)" stroke-width="1" opacity="0.996078431372549" d="M 98.5 658 L 99 667 L 375.5 667 L 376 667.5 L 376 739 L 99.5 739 L 99 735.5 L 98 734.5 L 98.5 658 Z " /><path fill="rgb(245,215,87)" stroke="rgb(245,215,87)" stroke-width="1" opacity="0.996078431372549" d="M 99 609 L 375.5 609 L 376 609.5 L 376 667 L 99.5 667 L 99 666.5 L 99 658.5 L 98 657.5 L 98 613.5 L 99 609 Z " /><path fill="rgb(230,176,41)" stroke="rgb(230,176,41)" stroke-width="1" opacity="0.996078431372549" d="M 537.5 445 L 538 585.5 L 537 586.5 L 537 660 L 377 660 L 377 547 L 537 547 L 537.5 445 Z " /><path fill="rgb(230,176,41)" stroke="rgb(230,176,41)" stroke-width="1" opacity="0.996078431372549" d="M 376.5 699 L 377 779.5 L 376 779.5 L 376.5 699 Z " /><path fill="rgb(184,97,2)" stroke="rgb(184,97,2)" stroke-width="1" opacity="0.996078431372549" d="M 538 540 L 550 540 L 550 547 L 556 547 L 556 554.5 L 559 555 L 559 562.5 L 561 563.5 L 561 571 L 566 571 L 566 580 L 569 580 Q 568.3 583.1 571 582.5 L 571 594 L 578 594 L 578 602 L 585 602 L 585 610 L 702 610 L 702 772.5 Q 698.6 787.6 687.5 795 L 676.5 800 L 538 800 L 538 540 Z " /></svg>