<?xml version="1.0" encoding="UTF-8"?>
<svg version="1.1" xmlns="http://www.w3.org/2000/svg" width="48" height="48">
<path d="M0 0 C2.99194531 1.51211624 5.06373249 3.26190391 7 6 C7.9375 9.875 7.9375 9.875 8 13 C8.7425 13.061875 9.485 13.12375 10.25 13.1875 C14.0398736 14.30723538 15.06610695 15.56196792 17 19 C17.81191209 23.52702498 17.56977576 26.90603054 15.4375 31 C12.32996194 33.54977482 9.95723818 33.7716978 6 34 C5.731875 34.94875 5.46375 35.8975 5.1875 36.875 C4 40 4 40 1 42 C-2.04176209 42.48175238 -4.95651876 42.47380202 -8 42 C-9.3743291 40.70896357 -10.70896357 39.3743291 -12 38 C-14.67229692 37.38737857 -17.25643894 37.22488205 -20 37 C-21 36 -21 36 -21.09765625 32.62109375 C-21.09098369 31.22652923 -21.07902532 29.83198257 -21.0625 28.4375 C-21.05798828 27.72658203 -21.05347656 27.01566406 -21.04882812 26.28320312 C-21.03700864 24.52209987 -21.01907263 22.76103964 -21 21 C-19.68 20.67 -18.36 20.34 -17 20 C-17.33 19.34 -17.66 18.68 -18 18 C-18.55258891 12.96328793 -18.53929549 9.07859097 -16.25 4.5 C-11.71483256 -0.53907494 -6.52046481 -1.13008056 0 0 Z " fill="#0A7E8F" transform="translate(26,3)"/>
<path d="M0 0 C6.2345679 1.24691358 6.2345679 1.24691358 9 5 C9.86646135 8.46584539 10.36181739 10.88439639 9.25 14.3125 C7.5025208 16.67159692 5.79215772 17.87453856 2.87890625 18.3359375 C-3.41531421 18.4420795 -3.41531421 18.4420795 -6.5625 16.0625 C-8 14 -8 14 -8 13 C-5.69 12.34 -3.38 11.68 -1 11 C-0.67 7.37 -0.34 3.74 0 0 Z " fill="#00B2C1" transform="translate(22,27)"/>
<path d="M0 0 C0.99 0 1.98 0 3 0 C3.0825 0.598125 3.165 1.19625 3.25 1.8125 C4.20455872 4.5966296 5.57132271 5.43311142 8 7 C6.68 7.33 5.36 7.66 4 8 C5.65 8 7.3 8 9 8 C9.33 5.36 9.66 2.72 10 0 C11.65 0 13.3 0 15 0 C15.05391993 1.79133978 15.09275571 3.58313899 15.125 5.375 C15.14820312 6.37273438 15.17140625 7.37046875 15.1953125 8.3984375 C15 11 15 11 13 13 C9.77734375 13.23046875 9.77734375 13.23046875 5.9375 13.1875 C4.66777344 13.18105469 3.39804688 13.17460938 2.08984375 13.16796875 C-1 13 -1 13 -2 12 C-2.1245486 10.35769636 -2.17568524 8.70947724 -2.1875 7.0625 C-2.20167969 6.16660156 -2.21585937 5.27070312 -2.23046875 4.34765625 C-2 2 -2 2 0 0 Z " fill="#036776" transform="translate(7,27)"/>
<path d="M0 0 C3.125 2 3.125 2 5 4 C4.67 5.65 4.34 7.3 4 9 C2.74896484 8.85691406 2.74896484 8.85691406 1.47265625 8.7109375 C-5.56339032 8.01781035 -11.19970816 8.04059388 -18 10 C-17.14653416 6.2447503 -16.31921746 4.30325659 -13.5 1.625 C-8.89172268 -0.51455733 -5.0033389 -0.86580241 0 0 Z " fill="#19C3CB" transform="translate(26,3)"/>
<path d="M0 0 C3 1.8125 3 1.8125 5 4 C5 4.99 5 5.98 5 7 C1.28720531 8.23759823 -2.31306346 8.35608897 -6.1875 8.5625 C-7.31188477 8.62727539 -7.31188477 8.62727539 -8.45898438 8.69335938 C-10.30578375 8.79922685 -12.15286834 8.9000976 -14 9 C-13.47699306 5.68028226 -13.2293187 4.2571149 -10.9375 1.6875 C-7.15232909 -0.48695988 -4.27101396 -0.86970244 0 0 Z " fill="#01CFD2" transform="translate(37,16)"/>
<path d="M0 0 C0.66 0.33 1.32 0.66 2 1 C2.40729228 3.32156597 2.74438677 5.6568787 3 8 C-1.62492794 9.01522809 -5.35417132 8.9109468 -10 8 C-10.33 7.67 -10.66 7.34 -11 7 C-17.61621475 7.39133478 -17.61621475 7.39133478 -23 11 C-23 9.02 -23 7.04 -23 5 C-15.51042522 1.57453557 -9.05515909 1.96664883 -1 3 C-0.67 2.01 -0.34 1.02 0 0 Z " fill="#03AEB9" transform="translate(31,8)"/>
<path d="M0 0 C-0.23564395 4.08449505 -0.40962119 6.34214932 -3.1875 9.4375 C-6.41176773 11.22875985 -8.36804503 11.33785628 -12 11 C-12.66 8.36 -13.32 5.72 -14 3 C-12.948125 2.87625 -11.89625 2.7525 -10.8125 2.625 C-7.14383087 2.02357883 -3.63516111 0 0 0 Z " fill="#006882" transform="translate(43,26)"/>
<path d="M0 0 C0.33 1.32 0.66 2.64 1 4 C-4.4628527 6.7895418 -8.87128971 7.69878753 -15 7 C-18.0625 6 -18.0625 6 -20 5 C-19.67 3.68 -19.34 2.36 -19 1 C-19 1.66 -19 2.32 -19 3 C-16.39533457 2.69127671 -13.79132309 2.37818277 -11.1875 2.0625 C-10.44951172 1.97548828 -9.71152344 1.88847656 -8.95117188 1.79882812 C-5.83266879 1.41783454 -2.98891878 0.99630626 0 0 Z " fill="#06A2B4" transform="translate(42,22)"/>
<path d="M0 0 C1.93166016 0.01740234 1.93166016 0.01740234 3.90234375 0.03515625 C5.19269531 0.04417969 6.48304687 0.05320312 7.8125 0.0625 C8.81152344 0.07410156 9.81054688 0.08570312 10.83984375 0.09765625 C10.83984375 0.42765625 10.83984375 0.75765625 10.83984375 1.09765625 C8.52984375 1.09765625 6.21984375 1.09765625 3.83984375 1.09765625 C3.83984375 1.75765625 3.83984375 2.41765625 3.83984375 3.09765625 C4.82984375 3.42765625 5.81984375 3.75765625 6.83984375 4.09765625 C6.50984375 4.75765625 6.17984375 5.41765625 5.83984375 6.09765625 C5.17984375 5.76765625 4.51984375 5.43765625 3.83984375 5.09765625 C4.52046875 5.67515625 5.20109375 6.25265625 5.90234375 6.84765625 C6.54171875 7.59015625 7.18109375 8.33265625 7.83984375 9.09765625 C7.58984375 11.34765625 7.58984375 11.34765625 6.83984375 13.09765625 C5.18984375 13.09765625 3.53984375 13.09765625 1.83984375 13.09765625 C1.50984375 12.43765625 1.17984375 11.77765625 0.83984375 11.09765625 C1.82984375 10.76765625 2.81984375 10.43765625 3.83984375 10.09765625 C2.84984375 9.43765625 1.85984375 8.77765625 0.83984375 8.09765625 C0.83984375 6.77765625 0.83984375 5.45765625 0.83984375 4.09765625 C-0.81015625 4.75765625 -2.46015625 5.41765625 -4.16015625 6.09765625 C-4.20287725 4.4315372 -4.20079457 2.7638274 -4.16015625 1.09765625 C-3.16015625 0.09765625 -3.16015625 0.09765625 0 0 Z " fill="#1AAEBB" transform="translate(9.16015625,22.90234375)"/>
<path d="M0 0 C4.95849479 0.99169896 6.03186426 1.26234758 9 5 C9 5.99 9 6.98 9 8 C6.03 9.32 3.06 10.64 0 12 C0 8.04 0 4.08 0 0 Z " fill="#03C3CD" transform="translate(22,27)"/>
<path d="M0 0 C0.53625 0.2475 1.0725 0.495 1.625 0.75 C-0.40264225 5.27320194 -2.73919981 7.86670617 -7.375 9.75 C-8.365 9.75 -9.355 9.75 -10.375 9.75 C-9.46121331 5.72933858 -8.69331066 4.01987208 -5.5 1.3125 C-2.375 -0.25 -2.375 -0.25 0 0 Z " fill="#04CACD" transform="translate(18.375,3.25)"/>
<path d="M0 0 C0.99 0 1.98 0 3 0 C3.0825 0.598125 3.165 1.19625 3.25 1.8125 C4.20455872 4.5966296 5.57132271 5.43311142 8 7 C4.5980513 9.09350689 1.94727588 9.17942163 -2 9 C-2.125 5.625 -2.125 5.625 -2 2 C-1.34 1.34 -0.68 0.68 0 0 Z " fill="#078390" transform="translate(7,27)"/>
<path d="M0 0 C0.66 0.33 1.32 0.66 2 1 C2 1.99 2 2.98 2 4 C-1.71279469 5.23759823 -5.31306346 5.35608897 -9.1875 5.5625 C-9.93708984 5.60568359 -10.68667969 5.64886719 -11.45898438 5.69335938 C-13.30578375 5.79922685 -15.15286834 5.9000976 -17 6 C-13.93338886 2.93338886 -10.18027038 1.9522894 -6 1 C-2.4375 1.3125 -2.4375 1.3125 0 2 C0 1.34 0 0.68 0 0 Z " fill="#0DB7C5" transform="translate(40,19)"/>
<path d="M0 0 C0.33 0.33 0.66 0.66 1 1 C3.32817964 1.36760731 5.6618385 1.70241581 8 2 C6.35 3.65 4.7 5.3 3 7 C3 6.01 3 5.02 3 4 C1.9171875 4.061875 1.9171875 4.061875 0.8125 4.125 C-2.20729369 3.99078695 -4.26935729 3.24829381 -7 2 C-7 2.66 -7 3.32 -7 4 C-8.65 4.66 -10.3 5.32 -12 6 C-8.35311673 1.09557077 -6.1534134 -0.32386386 0 0 Z " fill="#068B9C" transform="translate(20,14)"/>
<path d="M0 0 C6.125 -0.4375 6.125 -0.4375 9 1 C10.70702735 1.06996014 12.41668003 1.08440154 14.125 1.0625 C15.03507812 1.05347656 15.94515625 1.04445313 16.8828125 1.03515625 C17.58148438 1.02355469 18.28015625 1.01195312 19 1 C19 1.99 19 2.98 19 4 C14.37507206 5.01522809 10.64582868 4.9109468 6 4 C5.67 3.67 5.34 3.34 5 3 C2.66702567 2.95907063 0.33294775 2.95758277 -2 3 C-1.34 2.01 -0.68 1.02 0 0 Z " fill="#1299A9" transform="translate(15,12)"/>
<path d="M0 0 C0.66 0.33 1.32 0.66 2 1 C0.93106782 2.03590338 -0.15578488 3.05333942 -1.25 4.0625 C-2.15492187 4.91521484 -2.15492187 4.91521484 -3.078125 5.78515625 C-5 7 -5 7 -7.234375 6.68359375 C-7.81703125 6.45800781 -8.3996875 6.23242188 -9 6 C-9 7.65 -9 9.3 -9 11 C-9.33 11 -9.66 11 -10 11 C-10.66 8.36 -11.32 5.72 -12 3 C-10.948125 2.87625 -9.89625 2.7525 -8.8125 2.625 C-5.09963555 2.15746422 -5.09963555 2.15746422 -2.1875 0.875 C-1.465625 0.58625 -0.74375 0.2975 0 0 Z " fill="#007D95" transform="translate(41,26)"/>
<path d="M0 0 C0.33 0.66 0.66 1.32 1 2 C-0.21258505 5.23356015 -1.01284458 6.00856305 -4 8 C-6.33199388 8.07905064 -8.66832622 8.08798769 -11 8 C-7.72291137 4.32966073 -4.28477792 2.30718811 0 0 Z " fill="#029BAB" transform="translate(31,37)"/>
<path d="M0 0 C1.65 0 3.3 0 5 0 C4.67 0.66 4.34 1.32 4 2 C3.34 1.67 2.68 1.34 2 1 C2.680625 1.5775 3.36125 2.155 4.0625 2.75 C4.701875 3.4925 5.34125 4.235 6 5 C5.75 7.25 5.75 7.25 5 9 C3.35 9 1.7 9 0 9 C-0.33 8.34 -0.66 7.68 -1 7 C-0.01 6.67 0.98 6.34 2 6 C1.34 5.67 0.68 5.34 0 5 C0 3.35 0 1.7 0 0 Z " fill="#E2F0F1" transform="translate(11,27)"/>
<path d="M0 0 C0.33 1.32 0.66 2.64 1 4 C-4.36439644 6.68219822 -8.01006953 7.3152595 -14 7 C-14 6.34 -14 5.68 -14 5 C-13.24074219 4.86722656 -12.48148438 4.73445313 -11.69921875 4.59765625 C-10.70535156 4.42105469 -9.71148437 4.24445312 -8.6875 4.0625 C-7.20830078 3.80146484 -7.20830078 3.80146484 -5.69921875 3.53515625 C-2.91810787 3.04253153 -2.91810787 3.04253153 0 2 C0 1.34 0 0.68 0 0 Z " fill="#0291A7" transform="translate(42,22)"/>
<path d="M0 0 C2 1 2 1 2.6875 3 C2.790625 3.66 2.89375 4.32 3 5 C1.42039731 6.57960269 -0.19536816 6.16986544 -2.375 6.1875 C-3.16648437 6.20167969 -3.95796875 6.21585938 -4.7734375 6.23046875 C-7 6 -7 6 -10 4 C-9.67 3.34 -9.34 2.68 -9 2 C-6.36 2.33 -3.72 2.66 -1 3 C-0.67 2.01 -0.34 1.02 0 0 Z " fill="#23A7B7" transform="translate(31,8)"/>
<path d="M0 0 C0.33 0 0.66 0 1 0 C1.125 2.875 1.125 2.875 1 6 C-1 8 -1 8 -4.125 8.125 C-5.548125 8.063125 -5.548125 8.063125 -7 8 C-6.02133662 6.85373678 -5.04205413 5.70800212 -4.0625 4.5625 C-3.51722656 3.92441406 -2.97195312 3.28632812 -2.41015625 2.62890625 C-1.63204305 1.73008851 -0.84063472 0.84063472 0 0 Z " fill="#005465" transform="translate(21,32)"/>
<path d="M0 0 C1.98 0 3.96 0 6 0 C6.33 1.65 6.66 3.3 7 5 C4.625 5.125 4.625 5.125 2 5 C1.34 4.34 0.68 3.68 0 3 C0 2.01 0 1.02 0 0 Z " fill="#3DC7D6" transform="translate(23,5)"/>
<path d="M0 0 C2.97 0.33 5.94 0.66 9 1 C6.8125 3.0625 6.8125 3.0625 4 5 C1.1875 4.75 1.1875 4.75 -1 4 C-0.67 2.68 -0.34 1.36 0 0 Z " fill="#0E7482" transform="translate(6,35)"/>
<path d="M0 0 C2.97 0.495 2.97 0.495 6 1 C6.33 2.32 6.66 3.64 7 5 C4.03 4.505 4.03 4.505 1 4 C0.67 2.68 0.34 1.36 0 0 Z " fill="#28CAD6" transform="translate(33,16)"/>
<path d="M0 0 C-2.83430453 3.2542015 -4.68607774 4.5206753 -9 5 C-8.00233891 2.50584728 -7.31383315 1.21259665 -5.0625 -0.3125 C-3 -1 -3 -1 0 0 Z " fill="#02DBDA" transform="translate(19,4)"/>
<path d="M0 0 C0.5625 1.9375 0.5625 1.9375 1 4 C0.67 4.33 0.34 4.66 0 5 C-2.69082872 4.82364548 -5.32851446 4.38164079 -8 4 C-8 3.01 -8 2.02 -8 1 C-5.36 1.66 -2.72 2.32 0 3 C0 2.01 0 1.02 0 0 Z " fill="#31B9C8" transform="translate(30,7)"/>
<path d="M0 0 C0.33 0.66 0.66 1.32 1 2 C4.3 1.67 7.6 1.34 11 1 C8.29811996 2.80125336 6.06942297 4.00243753 3 5 C2.01 4.67 1.02 4.34 0 4 C0 2.68 0 1.36 0 0 Z " fill="#01ADBA" transform="translate(22,23)"/>
<path d="M0 0 C2.4375 0.375 2.4375 0.375 5 1 C5.33 1.66 5.66 2.32 6 3 C4.02 3.66 2.04 4.32 0 5 C0 3.35 0 1.7 0 0 Z " fill="#41E4E4" transform="translate(22,27)"/>
<path d="M0 0 C0.33 0.99 0.66 1.98 1 3 C-1.31 3.66 -3.62 4.32 -6 5 C-6 4.34 -6 3.68 -6 3 C-4.02 2.01 -2.04 1.02 0 0 Z " fill="#1DD3D9" transform="translate(28,29)"/>
<path d="M0 0 C0.99 0 1.98 0 3 0 C2.67 1.32 2.34 2.64 2 4 C0.68 4.33 -0.64 4.66 -2 5 C-1.125 1.125 -1.125 1.125 0 0 Z " fill="#0498A2" transform="translate(7,27)"/>
<path d="M0 0 C0.99 0.33 1.98 0.66 3 1 C1.35 2.65 -0.3 4.3 -2 6 C-2.99 5.67 -3.98 5.34 -5 5 C-3.625 3.5 -3.625 3.5 -2 2 C-1.34 2 -0.68 2 0 2 C0 1.34 0 0.68 0 0 Z " fill="#008597" transform="translate(13,16)"/>
<path d="M0 0 C1.32 0 2.64 0 4 0 C4.33 1.65 4.66 3.3 5 5 C3.68 5 2.36 5 1 5 C1.33 3.68 1.66 2.36 2 1 C1.34 0.67 0.68 0.34 0 0 Z " fill="#10C9D0" transform="translate(29,16)"/>
</svg>
