<?xml version="1.0" encoding="UTF-8"?>
<svg version="1.1" xmlns="http://www.w3.org/2000/svg" width="512" height="512">
<path d="M0 0 C1.5768457 -0.02416992 1.5768457 -0.02416992 3.18554688 -0.04882812 C13.87322721 -0.05539707 23.48038207 2.13256921 32.9375 7.125 C33.6193335 7.4761084 34.30116699 7.8272168 35.00366211 8.18896484 C39.95437849 10.7932325 44.42551562 13.67668394 48.6875 17.3125 C49.25210937 17.7353125 49.81671875 18.158125 50.3984375 18.59375 C63.78773978 29.01438345 71.65603043 45.96116537 74.6875 62.3125 C75.09035573 66.42832082 75.16594487 70.49150296 75.125 74.625 C75.11670166 75.71659424 75.10840332 76.80818848 75.09985352 77.93286133 C74.71528785 96.39611876 68.09838792 112.58385371 55.6875 126.3125 C55.06101562 127.02019531 54.43453125 127.72789062 53.7890625 128.45703125 C41.46279668 141.61343334 22.69613271 149.90189139 4.68359375 150.59375 C-2.4804646 150.70003149 -9.19894104 150.32872271 -16.3125 149.3125 C-16.6425 158.2225 -16.9725 167.1325 -17.3125 176.3125 C-13.67528931 176.26706055 -13.67528931 176.26706055 -9.96459961 176.22070312 C40.40699896 175.60130548 90.78212964 175.15970517 141.1575613 175.0360775 C142.58981264 175.03253323 144.02206394 175.02897098 145.45431519 175.02539062 C146.16064238 175.02362623 146.86696958 175.02186183 147.59470063 175.02004397 C152.57671515 175.00653944 157.55861006 174.98236764 162.54055786 174.95361328 C169.30094727 174.91475013 176.06107152 174.89709121 182.82158661 174.89354897 C185.32170548 174.88904535 187.82182266 174.87773536 190.32187653 174.85915184 C193.75692654 174.83487127 197.1911116 174.83562249 200.6262207 174.8425293 C201.62137727 174.82971672 202.61653383 174.81690414 203.64184666 174.80370331 C211.07573376 174.85902925 217.21186303 176.44611492 223.02734375 181.2421875 C223.55457031 181.88414062 224.08179688 182.52609375 224.625 183.1875 C225.44291016 184.14269531 225.44291016 184.14269531 226.27734375 185.1171875 C229.10542314 189.51990388 229.93726281 193.8891972 229.94819641 199.05821228 C229.95528122 200.18069366 229.96236603 201.30317505 229.96966553 202.45967102 C229.96718811 203.67688339 229.96471069 204.89409576 229.9621582 206.14819336 C229.9698246 208.08846405 229.9698246 208.08846405 229.97764587 210.06793213 C229.9910073 213.60775619 229.991617 217.14747326 229.98908257 220.68731761 C229.98800944 223.65369534 229.99290575 226.62005174 229.997688 229.58642489 C230.00877651 236.59742786 230.00922638 243.60837727 230.00317383 250.61938477 C229.99715435 257.81745596 230.00939471 265.01533068 230.0307439 272.21336836 C230.04845895 278.41750666 230.05434518 284.62158303 230.05110615 290.82574564 C230.04930648 294.52004843 230.05179473 298.21421155 230.06582069 301.90849113 C230.08093058 306.04320506 230.07134327 310.17753028 230.05981445 314.31225586 C230.06745819 315.51125015 230.07510193 316.71024445 230.08297729 317.9455719 C229.94385738 340.7119023 222.11916432 360.12204079 206.43359375 376.71484375 C195.61203629 386.95145216 180.62440309 395.29720355 165.6875 397.3125 C164.388125 397.51875 163.08875 397.725 161.75 397.9375 C144.7429334 399.57565878 128.88969355 397.77510535 112.6875 392.3125 C112.60628906 392.97894531 112.52507812 393.64539063 112.44140625 394.33203125 C111.44252727 398.28096733 109.63773783 401.47937221 107.625 405 C107.01881836 406.06565186 107.01881836 406.06565186 106.40039062 407.15283203 C103.00000805 413.0050554 99.16893901 418.23411255 94.6875 423.3125 C93.97851562 424.14136719 93.26953125 424.97023438 92.5390625 425.82421875 C83.47854148 436.2040788 73.57324511 444.41030229 61.6875 451.3125 C61.07664551 451.66731445 60.46579102 452.02212891 59.83642578 452.38769531 C51.91674513 456.88180804 43.86689645 460.13959862 35.125 462.6875 C34.311521 462.92621826 33.49804199 463.16493652 32.65991211 463.41088867 C19.96100912 466.87263241 7.0473508 467.70052189 -6.0625 467.625 C-7.1073204 467.62126877 -7.1073204 467.62126877 -8.17324829 467.61746216 C-43.08463858 467.42547968 -72.75927165 456.45072874 -98.3125 432.3125 C-99.43785156 431.28382813 -99.43785156 431.28382813 -100.5859375 430.234375 C-111.65456118 419.74831046 -119.11935617 407.10969573 -125.3125 393.3125 C-126.00020226 391.80882118 -126.00020226 391.80882118 -126.70179749 390.27476501 C-128.5641728 385.92311055 -129.78208172 381.44127368 -131 376.875 C-131.22494141 376.04806641 -131.44988281 375.22113281 -131.68164062 374.36914062 C-132.22978971 372.35148546 -132.77178664 370.33216057 -133.3125 368.3125 C-134.29095509 368.30891747 -134.29095509 368.30891747 -135.28917694 368.30526257 C-151.18136102 368.24605557 -167.07337079 368.1704692 -182.96538544 368.07678509 C-190.65073778 368.03187215 -198.33604424 367.99244719 -206.02148438 367.96606445 C-212.72226797 367.94304781 -219.42290584 367.90960905 -226.12357378 367.86379844 C-229.66959811 367.83991541 -233.21547857 367.82115453 -236.76158142 367.81488609 C-240.72598029 367.80768255 -244.69001952 367.77720476 -248.65429688 367.74487305 C-249.8224292 367.74630814 -250.99056152 367.74774323 -252.1940918 367.7492218 C-261.6315639 367.64046497 -268.32303309 366.14311539 -275.3125 359.3125 C-280.50506456 352.5333185 -281.61076337 346.58727766 -281.57992554 338.30621338 C-281.58672221 336.96153476 -281.58672221 336.96153476 -281.59365618 335.58969092 C-281.60629782 332.59131679 -281.60467995 329.59312436 -281.60302734 326.59472656 C-281.60901278 324.44260424 -281.61581836 322.29048406 -281.62338257 320.1383667 C-281.64104924 314.29525022 -281.64573826 308.45219231 -281.64701414 302.6090517 C-281.64843603 298.95688836 -281.65270639 295.3047399 -281.65800858 291.65258026 C-281.67651178 278.90672358 -281.68467891 266.16090873 -281.68310547 253.41503906 C-281.68190432 241.54192267 -281.70300078 229.66898813 -281.7345928 217.79591775 C-281.76076344 207.59614084 -281.77147241 197.39642329 -281.77019465 187.19661307 C-281.76968521 181.10751436 -281.77535869 175.01857724 -281.79655075 168.92951202 C-281.81594596 163.20028464 -281.81604856 157.47137275 -281.80151749 151.74213409 C-281.79942983 149.64354999 -281.80412763 147.54494607 -281.8162384 145.44639587 C-281.93547495 123.34755096 -281.93547495 123.34755096 -275.3046875 114.69140625 C-274.60601562 114.09199219 -273.90734375 113.49257812 -273.1875 112.875 C-272.16269531 111.94880859 -272.16269531 111.94880859 -271.1171875 111.00390625 C-261.46879769 105.18530905 -250.69946627 105.90250879 -239.82763672 105.97192383 C-237.96411655 105.97277113 -236.10059539 105.97229295 -234.23707581 105.97059631 C-229.20261577 105.96973895 -224.16837211 105.98732266 -219.13396215 106.00831819 C-213.86358087 106.02712829 -208.5931941 106.02883884 -203.32278442 106.03239441 C-193.35347505 106.04170216 -183.3842649 106.06629873 -173.41499913 106.09644288 C-162.06070462 106.13002646 -150.70640527 106.14648284 -139.35207343 106.16152918 C-116.00549404 106.19284943 -92.65900259 106.24558518 -69.3125 106.3125 C-69.66183594 105.31089844 -70.01117188 104.30929688 -70.37109375 103.27734375 C-70.83105513 101.93500748 -71.29067219 100.5925532 -71.75 99.25 C-72.09514648 98.26483398 -72.09514648 98.26483398 -72.44726562 97.25976562 C-78.76951117 78.65953598 -76.02689723 58.22723587 -67.5 40.875 C-64.3776258 34.83083083 -60.8931109 29.37259579 -56.3125 24.3125 C-55.74402344 23.6525 -55.17554688 22.9925 -54.58984375 22.3125 C-40.42353666 6.91303243 -20.50851019 -0.06218469 0 0 Z " fill="#4C53BB" transform="translate(281.3125,21.6875)"/>
<path d="M0 0 C7.60792033 -0.0110077 15.21551789 -0.03662038 22.82332796 -0.07948142 C28.37153464 -0.10961607 33.91965448 -0.12443937 39.46794134 -0.12776154 C42.71281186 -0.13007701 45.95726881 -0.14069887 49.20206451 -0.16422272 C52.74093694 -0.18849946 56.27896626 -0.1876819 59.81789589 -0.18070793 C60.84739861 -0.19351799 61.87690132 -0.20632805 62.93760109 -0.21952629 C70.48041754 -0.16527077 76.66201218 1.34812029 82.56814003 6.21895027 C83.09536659 6.8609034 83.62259315 7.50285652 84.16579628 8.16426277 C84.98370644 9.11945808 84.98370644 9.11945808 85.81814003 10.09395027 C88.64621942 14.49666666 89.47805909 18.86595997 89.48899269 24.03497505 C89.4960775 25.15745644 89.50316231 26.27993782 89.51046181 27.43643379 C89.50798439 28.65364616 89.50550697 29.87085854 89.50295448 31.12495613 C89.51062088 33.06522682 89.51062088 33.06522682 89.51844215 35.0446949 C89.53180358 38.58451896 89.53241328 42.12423603 89.52987885 45.66408038 C89.52880572 48.63045812 89.53370203 51.59681451 89.53848428 54.56318766 C89.54957279 61.57419063 89.55002266 68.58514004 89.54397011 75.59614754 C89.53795063 82.79421873 89.55019099 89.99209345 89.57154018 97.19013113 C89.58925523 103.39426943 89.59514146 109.5983458 89.59190243 115.80250841 C89.59010276 119.49681121 89.59259101 123.19097432 89.60661697 126.88525391 C89.62172686 131.01996783 89.61213955 135.15429305 89.60061073 139.28901863 C89.60825447 140.48801292 89.61589821 141.68700722 89.62377357 142.92233467 C89.48465366 165.68866507 81.6599606 185.09880356 65.97439003 201.69160652 C55.15283257 211.92821493 40.16519937 220.27396632 25.22829628 222.28926277 C23.92892128 222.49551277 22.62954628 222.70176277 21.29079628 222.91426277 C4.28372968 224.55242155 -11.56951017 222.75186812 -27.77170372 217.28926277 C-27.89352013 218.28893074 -27.89352013 218.28893074 -28.01779747 219.30879402 C-29.01667645 223.2577301 -30.82146589 226.45613498 -32.83420372 229.97676277 C-33.23832481 230.68719734 -33.64244591 231.39763191 -34.0588131 232.1295948 C-37.45919567 237.98181817 -41.29026471 243.21087532 -45.77170372 248.28926277 C-46.4806881 249.11812996 -47.18967247 249.94699715 -47.92014122 250.80098152 C-56.98066224 261.18084157 -66.88595861 269.38706506 -78.77170372 276.28926277 C-79.38255821 276.64407722 -79.9934127 276.99889168 -80.62277794 277.36445808 C-88.54245859 281.85857081 -96.59230727 285.11636139 -105.33420372 287.66426277 C-106.14768272 287.90298103 -106.96116173 288.1416993 -107.79929161 288.38765144 C-120.4981946 291.84939519 -133.41185292 292.67728466 -146.52170372 292.60176277 C-147.21825066 292.59927528 -147.91479759 292.5967878 -148.63245201 292.59422493 C-183.5438423 292.40224245 -213.21847537 281.42749151 -238.77170372 257.28926277 C-239.5219381 256.60348152 -240.27217247 255.91770027 -241.04514122 255.21113777 C-252.12711965 244.71242136 -263.32444298 229.44892832 -266.77170372 214.28926277 C-266.20885736 214.288718 -265.64601101 214.28817324 -265.0661087 214.28761196 C-251.33457589 214.27260733 -237.60337044 214.22969854 -223.87201691 214.1571722 C-217.23139181 214.12293213 -210.59113252 214.09779682 -203.95041466 214.09370613 C-197.53760987 214.08941691 -191.12532219 214.060901 -184.71267891 214.01583099 C-182.27040052 214.00287617 -179.8280602 213.99854111 -177.38575172 214.00310898 C-173.95540861 214.00802894 -170.52656871 213.98185747 -167.09641075 213.9486866 C-165.59344193 213.96162506 -165.59344193 213.96162506 -164.06011009 213.97482491 C-156.32713174 213.85008553 -149.90836557 211.78913468 -143.93141937 206.73226833 C-135.24946317 197.52962866 -136.32793162 185.50158266 -136.33933067 173.73433113 C-136.33030538 171.85124763 -136.31997628 169.96817 -136.30844688 168.08510017 C-136.28094095 162.99280467 -136.27160106 157.90062083 -136.26559281 152.80826068 C-136.25619247 147.47909379 -136.22998772 142.15000976 -136.20558739 136.82089424 C-136.16196439 126.73828456 -136.13339161 116.655691 -136.110264 106.57301575 C-136.08318984 95.09051094 -136.03927967 83.60808966 -135.99397528 72.12564456 C-135.90118913 48.51356263 -135.82948077 24.9014545 -135.77170372 1.28926277 C-90.51591107 0.66021218 -45.26069689 0.06457261 0 0 Z " fill="#7A81E9" transform="translate(421.7717037200928,196.71073722839355)"/>
<path d="M0 0 C16.40326872 -0.09359187 32.80645034 -0.16405171 49.20992184 -0.20724869 C56.82696923 -0.22784216 64.44385036 -0.25590086 72.06079102 -0.30175781 C78.7025346 -0.34172452 85.34415773 -0.36745617 91.98601824 -0.37635398 C95.50034636 -0.38155221 99.01432998 -0.39370177 102.52854729 -0.42292023 C106.4591182 -0.45533295 110.38935726 -0.45595311 114.32006836 -0.45410156 C115.47525467 -0.46848267 116.63044098 -0.48286377 117.82063293 -0.49768066 C125.75386063 -0.45732606 132.11209195 0.79361173 138.33984375 5.9296875 C138.86707031 6.57164062 139.39429688 7.21359375 139.9375 7.875 C140.48277344 8.51179687 141.02804687 9.14859375 141.58984375 9.8046875 C144.41792314 14.20740388 145.24976281 18.5766972 145.26069641 23.74571228 C145.26778122 24.86819366 145.27486603 25.99067505 145.28216553 27.14717102 C145.27968811 28.36438339 145.27721069 29.58159576 145.2746582 30.83569336 C145.27976913 32.12920715 145.28488007 33.42272095 145.29014587 34.75543213 C145.3035073 38.29525619 145.304117 41.83497326 145.30158257 45.37481761 C145.30050944 48.34119534 145.30540575 51.30755174 145.310188 54.27392489 C145.32127651 61.28492786 145.32172638 68.29587727 145.31567383 75.30688477 C145.30965435 82.50495596 145.32189471 89.70283068 145.3432439 96.90086836 C145.36095895 103.10500666 145.36684518 109.30908303 145.36360615 115.51324564 C145.36180648 119.20754843 145.36429473 122.90171155 145.37832069 126.59599113 C145.39343058 130.73070506 145.38384327 134.86503028 145.37231445 138.99975586 C145.37995819 140.19875015 145.38760193 141.39774445 145.39547729 142.6330719 C145.25635738 165.3994023 137.43166432 184.80954079 121.74609375 201.40234375 C110.92453629 211.63895216 95.93690309 219.98470355 81 222 C79.700625 222.20625 78.40125 222.4125 77.0625 222.625 C60.45593497 224.22458157 44.69513592 222.82558198 29 217 C29.71620964 210.88405249 31.2769665 205.24676692 33.09570312 199.375 C36.81037218 186.70273558 37.30068019 173.75930357 37.29052734 160.64477539 C37.29653019 159.06935311 37.30333968 157.49393373 37.31088257 155.91851807 C37.32835357 151.68964905 37.33322933 147.46086121 37.33451414 143.23195958 C37.33594507 140.58364683 37.34023189 137.93535415 37.34550858 135.28704643 C37.36393346 126.03176455 37.37218712 116.77653985 37.37060547 107.52124023 C37.36940029 98.91578627 37.39059542 90.31058155 37.4220928 81.70519072 C37.44826325 74.28910147 37.45897272 66.87309377 37.45769465 59.45695871 C37.45718603 55.03918441 37.46281644 50.62163305 37.48405075 46.20390511 C37.50345087 42.05616108 37.50354579 37.90885278 37.48901749 33.76109314 C37.48693176 32.24379271 37.49161626 30.72646479 37.5037384 29.20921135 C37.56311892 21.25996758 37.54125505 14.79910519 33 8 C28.4299356 3.65843882 24.64043517 1.78639687 18.359375 1.5859375 C16.75449219 1.52792969 16.75449219 1.52792969 15.1171875 1.46875 C13.45042969 1.42234375 13.45042969 1.42234375 11.75 1.375 C10.62335938 1.33632812 9.49671875 1.29765625 8.3359375 1.2578125 C5.55745452 1.16362664 2.77897666 1.07800414 0 1 C0 0.67 0 0.34 0 0 Z " fill="#4F59CA" transform="translate(366,197)"/>
<path d="M0 0 C1.5768457 -0.02416992 1.5768457 -0.02416992 3.18554688 -0.04882812 C13.87322721 -0.05539707 23.48038207 2.13256921 32.9375 7.125 C33.6193335 7.4761084 34.30116699 7.8272168 35.00366211 8.18896484 C39.95437849 10.7932325 44.42551562 13.67668394 48.6875 17.3125 C49.25210938 17.7353125 49.81671875 18.158125 50.3984375 18.59375 C63.78773978 29.01438345 71.65603043 45.96116537 74.6875 62.3125 C75.09035573 66.42832082 75.16594487 70.49150296 75.125 74.625 C75.11670166 75.71659424 75.10840332 76.80818848 75.09985352 77.93286133 C74.71528785 96.39611876 68.09838792 112.58385371 55.6875 126.3125 C55.06101562 127.02019531 54.43453125 127.72789062 53.7890625 128.45703125 C41.46279668 141.61343334 22.69613271 149.90189139 4.68359375 150.59375 C-2.38538156 150.6986209 -9.34226696 150.57239908 -16.3125 149.3125 C-17.854554 147.770446 -17.45729847 146.30141766 -17.48828125 144.15625 C-17.52405273 142.86847656 -17.52405273 142.86847656 -17.56054688 141.5546875 C-17.60277584 139.75803699 -17.63441815 137.96109927 -17.65429688 136.1640625 C-17.93023091 127.51385134 -20.60964668 120.17905068 -26.59277344 113.80249023 C-34.24040306 107.17649881 -43.83540519 107.65614287 -53.375 107.5625 C-54.82750874 107.53428965 -56.27998508 107.50435529 -57.73242188 107.47265625 C-61.25896276 107.39939589 -64.78536987 107.34945665 -68.3125 107.3125 C-76.52772801 89.69364664 -78.3223238 69.89153857 -72.05322266 51.29492188 C-68.36718026 41.42983807 -63.40197965 32.14408553 -56.3125 24.3125 C-55.74402344 23.6525 -55.17554688 22.9925 -54.58984375 22.3125 C-40.42353666 6.91303243 -20.50851019 -0.06218469 0 0 Z " fill="#7A82EA" transform="translate(281.3125,21.6875)"/>
<path d="M0 0 C5.81899766 6.69233795 10.43836766 13.48009576 13 22 C13.22300781 22.71414062 13.44601562 23.42828125 13.67578125 24.1640625 C17.09118865 36.94279767 15.31509757 50.95580729 9.375 62.6875 C1.61847195 75.81246249 -9.33603697 84.81029628 -24 89 C-38.13811765 92.58872152 -53.3409017 90.19273827 -65.75 82.8125 C-78.39483976 74.18599124 -85.87236913 63.42821739 -89.59375 48.640625 C-91.88536038 33.74515753 -89.35477058 19.59846357 -81 7 C-72.08704629 -4.97977649 -59.83493955 -12.30028287 -45.0625 -14.875 C-27.86310107 -16.09298319 -13.01150255 -11.280708 0 0 Z " fill="#4E58CA" transform="translate(482,83)"/>
<path d="M0 0 C7.59 0 15.18 0 23 0 C23.06947941 24.74785295 23.12300056 49.49568236 23.15543652 74.24361324 C23.17089813 85.73478963 23.19197423 97.22590427 23.22631836 108.71704102 C23.25624223 118.73399747 23.27558013 128.7509092 23.28226548 138.76790911 C23.28617266 144.07066515 23.29534051 149.37329323 23.31719017 154.67600822 C23.33760245 159.67050471 23.34382419 164.66482092 23.33932304 169.65935516 C23.34014612 171.48906243 23.34608343 173.31877593 23.35761642 175.14844704 C23.48810188 196.92368947 23.48810188 196.92368947 16.375 204.8125 C15.76398438 205.52019531 15.15296875 206.22789062 14.5234375 206.95703125 C7.52898924 212.61971924 0.46904721 213.58937602 -8.30297852 213.54589844 C-9.39669266 213.55623611 -10.4904068 213.56657379 -11.61726379 213.57722473 C-15.20463023 213.60654089 -18.79142969 213.6081496 -22.37890625 213.609375 C-24.87712167 213.62436412 -27.37532721 213.64109279 -29.8735199 213.65948486 C-35.75936391 213.6986399 -41.64506668 213.72035154 -47.53102201 213.73345876 C-54.89644138 213.75094221 -62.2616531 213.79578393 -69.62695312 213.83984375 C-82.751282 213.91506989 -95.87550668 213.96333852 -109 214 C-110.98 206.41 -112.96 198.82 -115 191 C-110.74609375 190.97812622 -110.74609375 190.97812622 -106.40625 190.95581055 C-97.02242821 190.90540928 -87.63877139 190.83880428 -78.25511169 190.76428509 C-72.56738713 190.71961211 -66.87973369 190.68034904 -61.19189453 190.65356445 C-55.69988449 190.62750109 -50.2081486 190.58707678 -44.71630859 190.53681374 C-42.6240582 190.52016561 -40.53176041 190.50863857 -38.43945312 190.50238609 C-35.50231379 190.49272281 -32.56587257 190.46463637 -29.62890625 190.43237305 C-28.7693483 190.43380814 -27.90979034 190.43524323 -27.02418518 190.4367218 C-18.61578303 190.30662144 -12.09614086 188.09614086 -6 182 C-1.80479167 176.03556643 -0.87862283 171.20593399 -0.84178162 164.02716064 C-0.83684364 163.32545549 -0.83190566 162.62375034 -0.82681805 161.90078139 C-0.81146291 159.55006756 -0.80308782 157.19938099 -0.79467773 154.84863281 C-0.78509765 153.16333273 -0.77508749 151.47803504 -0.76467896 149.79273987 C-0.73763796 145.21669172 -0.71662401 140.64063327 -0.69667697 136.06454945 C-0.67481248 131.28257684 -0.64742605 126.50063597 -0.62062073 121.71868896 C-0.57070013 112.6629767 -0.52575894 103.60724681 -0.48259836 94.55150008 C-0.4332206 84.24202993 -0.37830446 73.93259161 -0.32291877 63.62315226 C-0.20910843 42.41546433 -0.10246376 21.20774552 0 0 Z " fill="#6268BB" transform="translate(263,198)"/>
<path d="M0 0 C36.3 0 72.6 0 110 0 C110 7.26 110 14.52 110 22 C96.14 22 82.28 22 68 22 C68 61.93 68 101.86 68 143 C59.42 143 50.84 143 42 143 C42 103.07 42 63.14 42 22 C28.14 22 14.28 22 0 22 C0 14.74 0 7.48 0 0 Z " fill="#FEFEFE" transform="translate(76,189)"/>
</svg>
